<mxfile host="65bd71144e" scale="1" border="20">
    <diagram id="jEU4-j87F02PZduFt7D-" name="Page-1">
        <mxGraphModel dx="1670" dy="1719" grid="1" gridSize="10" guides="1" tooltips="1" connect="1" arrows="1" fold="1" page="1" pageScale="1" pageWidth="850" pageHeight="1100" background="#ffffff" math="0" shadow="0">
            <root>
                <mxCell id="0"/>
                <mxCell id="1" parent="0"/>
                <mxCell id="75" value="df1" style="ellipse;whiteSpace=wrap;html=1;aspect=fixed;fillColor=#d5e8d4;strokeColor=#82b366;fontStyle=1" parent="1" vertex="1">
                    <mxGeometry x="603.25" y="368" width="107" height="107" as="geometry"/>
                </mxCell>
                <mxCell id="76" value="df2" style="ellipse;whiteSpace=wrap;html=1;aspect=fixed;fillColor=#f8cecc;strokeColor=#b85450;fontStyle=1" parent="1" vertex="1">
                    <mxGeometry x="679.75" y="368" width="107" height="107" as="geometry"/>
                </mxCell>
                <mxCell id="114" value="" style="ellipse;whiteSpace=wrap;html=1;aspect=fixed;fillColor=none;strokeColor=#82b366;fontStyle=1" parent="1" vertex="1">
                    <mxGeometry x="603.25" y="368" width="107" height="107" as="geometry"/>
                </mxCell>
                <mxCell id="115" value="" style="whiteSpace=wrap;html=1;shape=mxgraph.basic.pointed_oval;strokeColor=#82B366;fillColor=#fff2cc;rotation=0;" parent="1" vertex="1">
                    <mxGeometry x="675.25" y="385" width="39" height="73" as="geometry"/>
                </mxCell>
                <mxCell id="3" value="df2" style="ellipse;whiteSpace=wrap;html=1;aspect=fixed;fillColor=#f8cecc;strokeColor=#b85450;fontStyle=1" parent="1" vertex="1">
                    <mxGeometry x="391" y="202.5" width="107" height="107" as="geometry"/>
                </mxCell>
                <mxCell id="9" value="df1" style="ellipse;whiteSpace=wrap;html=1;aspect=fixed;fillColor=#d5e8d4;strokeColor=#82b366;fontStyle=1" parent="1" vertex="1">
                    <mxGeometry x="268" y="202.5" width="107" height="107" as="geometry"/>
                </mxCell>
                <mxCell id="10" value="df1" style="ellipse;whiteSpace=wrap;html=1;aspect=fixed;fillColor=#d5e8d4;strokeColor=#82b366;fontStyle=1" parent="1" vertex="1">
                    <mxGeometry x="5" y="50" width="107" height="107" as="geometry"/>
                </mxCell>
                <mxCell id="11" value="df2" style="ellipse;whiteSpace=wrap;html=1;aspect=fixed;fillColor=#f8cecc;strokeColor=#b85450;fontStyle=1" parent="1" vertex="1">
                    <mxGeometry x="75" y="14" width="107" height="107" as="geometry"/>
                </mxCell>
                <mxCell id="12" value="" style="ellipse;whiteSpace=wrap;html=1;aspect=fixed;fillColor=none;strokeColor=#82b366;fontStyle=1" parent="1" vertex="1">
                    <mxGeometry x="5" y="50" width="107" height="107" as="geometry"/>
                </mxCell>
                <mxCell id="13" value="" style="whiteSpace=wrap;html=1;shape=mxgraph.basic.pointed_oval;strokeColor=#d6b656;fillColor=#fff2cc;rotation=332.5;" parent="1" vertex="1">
                    <mxGeometry x="74.5" y="49" width="38" height="73" as="geometry"/>
                </mxCell>
                <mxCell id="15" value="" style="rounded=1;whiteSpace=wrap;html=1;strokeColor=default;fillColor=none;dashed=1;" parent="1" vertex="1">
                    <mxGeometry x="240" y="179.5" width="290" height="150" as="geometry"/>
                </mxCell>
                <mxCell id="16" value="" style="shape=image;verticalLabelPosition=bottom;verticalAlign=top;imageAspect=0;aspect=fixed;image=data:image/png,iVBORw0KGgoAAAANSUhEUgAABLAAAAJvCAYAAABrmSgPAAAABGdBTUEAALGPC/xhBQAAACBjSFJNAAB6JgAAgIQAAPoAAACA6AAAdTAAAOpgAAA6mAAAF3CculE8AAAABmJLR0QA/wD/AP+gvaeTAACAAElEQVR42uzdeXxU1d0/8M/3zkwSNndQkpkEENwQrUYNs2YU7FNaba1tVAIuP9ti+3Szq9pFsXahe+32qG2tFQjaaNW6YBVtyKpWbEWxLigkM4myuCBbkpk5398foKKyZCaz3Lnzeb9ez+spJjNzzvece+aeb849R0BERERERERURFY1TC0b43rzOLX0RAuoNYBXgLGAjgXEAAAU2yDog+hqKFYbo4/WvNL3mLQgyQgSFR9hCIiIiIiIiMjuNlx8yJjt20ecAQtnqeosAcZk8DZbIGgHpHkA5bdNWbz6TUaWqDgwgUVERERERES21d1YPUmgXwD0YgD7Z/Gtt6ngby7Vn3ubev/DSBPZGxNYREREREREZDuxC7xVmpAfQPR8AFYOP0qhejfUuqb6ltjjjDyRPTGBRURERERERLax5qIJFVYieYUovg5gZB4/WhX4k5XAZb7m+GtsCSJ7YQKLiIiIiIiIbCE223ucAoshOLZQZVBgvSX4im9xvIktQmQfTGARERERERFRwXXPqbpUVBYAKLdFgRQ3ShJf8DXHt7N1iAqPCSwiIiIiIiIqmFUNU8vGuDf9HwQX27B4KwX4pK8p/gJbiqiwmMAiIiIiIiKiguhurD4QMLcLcKqNi7lRDM7w3RJ/lC1GVDgWQ0BERERERET59mLDpP0F5gGbJ68A4BC18FBsjncWW42ocLgCi4iIiIiIiPLqhTmT9yvX/gcBnFJExU4A0lDdFLuLLUiUf0xgERERERERUd7EGrwj1CMPAhoswuL3i4VZvkXxFrYkUX7xEUIiIiIiIiLKCwVEPfhjkSavAKDCGPy95zzfSWxNovxiAouIiIiIiIjyItZYdTWAxmKugwBjYOl9a2ZXHsUWJcrrtUdERERERESUW7E53kZVLHLQPPRFSeAUX3P8NbYuUe5xBRYRERERERHlVM+5vsON4jo4axHF4eqRWzUKN1uYKPeYwCIiIiIiIqKceXxerQduXSzAGOfVTmfGKr0/YisT5R4TWERERERERJQzY7eu+wEUdQ6u4tdjjd45bGmi3OIeWERERERERJQTsfO8dWqhE85fPLHVZZnaqkV9z7HViXKDK7CIiIiIiIgo61Y1TC1TC38qkXnnqJRxNa1qmFrGlifKDSawiIiIiIiIKOvGeN68DMDU0qmxnrhf2aar2fJEucFHCImIiIiIiCirYnO9k9XgKQAVJVZ1Y0Fnept6/8leQJRdXIFFREREREREWaUp/ASll7wCAMtAbtpw8SFj2AuIsnxxMQRERERERESULfHZVX4IzirhEFT391dcw55AlF1MYBEREREREVFWKCBqyc9Q4tvVKPDFtedVBtgjiLKHCSwiIiIiIiLKivgc71mqYOIGsCyxruephERZvKgYAiIiIiIiIsoGVVzBKOwkOHaM+81vMBBE2bqkiIiIiIiIiIape3b16SLmAUbiXbYrrGNrmnpeYiiIhocrsIiIiIiIiGj4xHD11fuNEDG/YxiIho8JLCIiIiIiIhqW+Jyq6QKcykjshuJDPXN9H2UgiIaHCSwiIiIiIiIalhTk84zCXhj9zSvnHzqKgSDKHBNYRERERERElLEX5kzeTxRnMxJ7VT2YKvsWw0CUOSawiIiIiIiIKGMVpv8cACMZiX3Rr689d/zRjANRZpjAIiIiIiIiooyp6IWMwpCUWS7X/ykgDAVR+pjAIiIiIiIioozE5nonAxJkJIasPtboO5dhIEofE1hERERERESUEWPwCXBFUXpEf/liw6T9GQii9DCBRURERERERBkR6BmMQpoUh3k8iasYCKJ0xxsiIiIiIiKiNMUavAepB+sAuBmNtKUs6Enept7/MBREQ8MVWERERERERJQ+Nz4MJq8y5TKwfssN3YmGjgksIiIiIiIiSpuKfoRRGFYEg7HZvosYB6KhYQKLiIiIiIiI0qKAKOQ0RmKYRH/aN7vyEAaCaN+YwCIiIiIiIqK09M2tPEKAcYzEsB2ctFzfZxiI9o0JLCIiIiIiIkqLUSvCKGSJ6mfic6qmMxBEe8cEFhEREREREaVHEWYQsjcvN2r9ThvgYiiI9nKhMARERERERESUDgVCjEJWI3pirMz3WcaBaM94ZCcREREREREN2UuzJx7qlsQrjETWvWks11ETFnW/zFAQvR9XYBEREREREdGQeSRRyyjkxH6WMQsYBqLdYwKLiIiIiIiIhkwhTGDlLrrnxxurTmUciN6PCSwiIiIiIiJKgzKBlTtiIL95fF6th6EgejcmsIiIiIiIiCgdTGDl1tRxW9Z/mWEgejdu4k5ERERERERDEr+g6mCTlI2MRM5tsUSP9i7ujTMURDtwBRYRERERERENiRqZxijkxWg18kuGgegdTGARERERERHR0BgcyyDkhwo+GWv0fpiRINqBCSwiIiIiIiIaEhVhAiuf8QauXXPRhApGgogJLCIiIiIiIhoq5QqsPJvsHkh+k2EgYgKLiIiIiIiIhkynMgZ5jrjgip5zfYczElTqmMAiIiIiIiKifYrPqfICOICRyLsKuPR3DAOVOiawiIiIiIiIaJ+MWlx9VTj/0zPbdxbDQKWMCSwiIiIiIiLaNwUTWIUk+uv1DWNHMxBUqpjAIiIiIiIioiHg/lcF5hsoK/82w0CligksIiIiIiIiGsrskQmsAlPFV9eeO/5oRoJKcwgiIiIiIiIi2gsFBIqjGImCK7NcrusUEIaCSg0TWERERERERLRXL19Q6QOwPyNhC5H4HO9shoFKDRNYREREREREtFepFE8gtBNV/cWaiyYcwEhQKWECi4iIiIiIiPZKVZjAshU51D2YvJpxoFLCBBYRERERERHtg2ECy2YU+N/YbO9xjASVCiawiIiIiIiIaF9TRyZK7MetIr/nhu5UMqMQQ0BERERERER7olG4AT2GkbBl6wR7GqvOZxyoFDCBRURERERERHvUU1V9BIAKRsKeBPgJN3SnUsAEFhEREREREe2RqPLxQXu3EDd0p5LABBYRERERERHtzbSiLbnqzxXY7PQGUuDz8caqD7CrkpMxgUVERERERER7JCjaFVg6YI34nhpTD+B1hzeTy8D6LTd0JydjAouIiIiIiIj2SIFiTWCtmbJ49ZsTbun7NyCzd1TF0S0VjDX6LmSPJadidpaIiIiIiIh2q7ux+kCBea1Ii39ndVP842/9o2dO1e+g8r9Obi8F1psy95ETb1r7BnsvDbnfNMDV46muEegUCCZDzaGqchgEBwlkf0DLAIxS4E2BpKBmm4qsF+grEPRaiueSlvvZCYu6X85lOd1sKiIiIiIiItodgRbt/lcKPLnrv8us5DcHU54zAFQ7t70wzjWYvAbAF9l7aU9iF3irkMB0hfohqItBagVmxFsXDiAQ2eVKeqd/7fi3yM7/LYACBoBlUuhu9K4XoBMi7UZS/5ywqO+JLPdvIiIiIiIiot1MdBu9X1DgN8VYdgE+4WuK/+1d9Znj/bgq/ubwZksZY07e8egkEdDdWD3JEjNDVU8DJATAm6ePfkkFt8NYf6lZ0rMqC9c0ERERERER0W4mvrO9N4jgM0VZ+JRMrr419uL7J/PeewX4sJPbTQSd3sXxkDh+3y/anZcbDhubKPOcpkZniGAGgEkFLpIC8pAx5lcTbum9N+N+zaYlIiIiIiKi3elp9D4K4JRiK7cCm6ub4vvvLoHTc67vcLj0aQAVjm48lYurl8T+zF7sfH3zKkcmtiBgwZqpwEwAJ8Cuh/YJHrWMfsW7pLcr/ZcSERERERERvYfOhxV73vsmgFFFV3agq6YpHtjTz2ON3qsUmO/o9gPWA9ZRNU09r7M3O6xto3D3VFXWWcaaocBMCOoAlBVRFQxUfj3wRvnlU5auHhjqi7iJOxEREREREb1P/Hnv4SjC5BUACOTJvf08Web+sWswORfAZKe2nwDjAHMNgC+wNxc3BSQ+x3usgc6wVGb0APWiGKPFuyTJguilZQf2R2ON3nN8TfEXhtiniYiIiIiIiN6tu7GqQSB/LcrCi36uenHvdXv7lZ45vg9C9R8Ob0YDkenVi2P/Yo8uLmvn1owXkwxZkJm6Y882r0Or+pol+hHv4t5H9vWLXIFFRERERERE7ydybLFuAW5SunJfv1O9OPZAd6P3dgE+4eBWtFT1Wp2PkMyHYae2r/gFVQenUjhVYM2E6gyY1GRASmEX/oNSKg/EZ1f9z772xWICi4iIiIiIiN5HFMcXadE14Rr59FB+0SV6qVH5HwCjHduOgD/2gu8iIHYje7V9xBq8I4zHBN/aeN0kcYIAVikeHCnAGCNyd2yud7pvUXz1Xn6PiIiIiIiI6N16Gr0vAZhYhEV/qbopfvhQfzk22/sNFfzE4c25QWEdyQ3dC0ejcPeOrzrZiDUDqjMg8AMoZ2TeZVWqzH3SxJvW9u/uh1yBRURERERERO/ywpzJ+0H7JxRp8f+Tzi97X47/MlbpnQvgOAc36ViR1PcBfJ69O3+6G6snAWamBZkZg84EcOCOLdkZmz2Y6h5Mzgdw+e5+yLARERERERHRuyfecyqDolZ7MZZdgatrmuLz03lNbLa3XgX/dPgcOaWw6mqaelawh+dGfE6V16g1U0VniGIGgPGMStqSoqj1LYm/bx87rsAiIiIiIiKidxHjOh5SnHvxWIIn032Nb0l8eazRu0iB8x3crC6BuU7no44bumfH+oaxo7d7PNPf3sdKcSKgIsrYDIMbwHcBNOzuB0RERERERETvEEwr1qJrUlZm8rqEer7hlsSZAA5wcMueFH/e+/+A+J/YydP39sbrYs1QxYx+4EQBXMxXZfkaFpy99tzxR0+49eX/vntYIiIiIiIiItpFd6O3UwB/0U18gc3VTfH9JcOj3GKN3i8o8BuHN++rbjVHVS7p28ievo/+1ABXj6f6A4CZKZCZgIYAVDAyuSeCBb7F8St2/W9cgUVERERERETvTNoBiQFTi3LSC1mZafIKALxHxH8fe957PoBTHNzEBydFvgfgf9nb3+89G6/PEJiD3r4yKH/jkKJRgW/tej1zBRYRERERERG9awIvMC8WZ+nluuqm2OeG8w6xRu8pCnQBsBzczAZG6qpviT1e6v19TcOEw9zu5EzdscJqJgRVHAVs0klTqWN2fYyQK7CIiIiIiIjobZaY47VYF5uIeXK4b+Frij8Wa/T+UYF5Tm5mWPp/pbihe9+8ypGJLQi8tfE6kDxRAeEKKxt2Upe7DgATWERERERERLQbBtOK9VkdhT6VlTdK4Ap48HEAYx3c0ifFX/B+Coj/wcndWaNwdx9WeYpLdiSsklswXQAP01VF0Xq1AG56619MYBEREREREdE7U0bB8cVa9EGMzEoCy9ccf61nju9yqDr6tD5VLOibXXmH0zZ0f88+VqdbwAFMWBUl367/YAKLiIiIiIiIdnVckZZ77ZTFq9/M2sx5cezPsUbvBQDqHdzWByUt1/cBfLaYK7H6/EPHeVLuegsyU4EPAaYaAJSPBRa7yl3/wQQWERERERERAQBeOf/QUYMpTCrKwmuWHh/cSQCNKb6kghWOnjurfqZnju9P1Ytj/yqWIq9vGDt6m6us3hJrx8brKRwLcBcrBzpg138wgUVEREREREQAgKRxT0Oxnr4nWJntt/Qtia/sme37LUQvdXCzW1D9P52PU+y6obs2wNXjqf4AYGYKZGY/NGwB5UxZOZsAqV3/zQQWERERERERAQAUMq14Z7vW07l42wGr/Kpy7T8H73mcyWFqe573fhqI32CXAnXPqT4GuiNhFYPWC8x+b/VSKpXxiAksIiIiIiIi2t2EUYt2A3ekTOrJXLzvlMWr3+xp9H0N0CVObnsBftQ3u/JvhdrQ/X37WOmOfayYsCrlAQmv7fpPJrCIiIiIiIjorQnjcZCiLHn/hJf7VufqzaubYrf0zPFeCMWHHNz6B6XE+gGAS/LxYa+cf+iogZTLb8GaqcBMpHAiAGG6it4miO36TyawiIiIiIiI6K0J47FFWvBnpAXJXH6CS8ylKbVWAihzavMr8OlYo/dPvqb4Y1l/7yjcPVWVdZZaMxU6czAldQJ4mLCiPQ9HTGARERERERHRe7zUOL4GwIHFWXqzMtefULWo77meRt/PAP2Wg7uBpcDvtQF10vzu/Ycy0d1YPQkwM60d+1idLooDdiSshBcc7dt7DmZgAouIiIiIiIjgEmta0W43lKMN3N/LPTr1g+QWaQRkgoO7Qm2szHcpEPt5ui/sOc9XqZaZIbBmAjoTMJUAoNzHijK6rvGulYBMYBERERERERFEcVyxll2NrMzH51Te0LetZ67vyzB6l6M7g+oPe+b4WqsXx/61t1/bcPEhY7ZtL4tasnMfK+gxAgE3XqcseNW7KP7irv+BCSwiIiIiIiICgGnFWnCTtJ7K12dVL4r9vafRdzegZzq4L5Sp6j09jb4Lqpti/3jrP65qmFo22r35FIiZKZCZ2/u1TgRupqso+/RBeU8mlAksIiIiIiIiAiBFmcBSYP3E5rWv5PMzjcv6spVKzQQwwrG9ARgH6P09jVVrAWs1oNXApkl4O4/AtBXlsP+J3P3e/2YxLERERERERKXthVmTywEcUYxlt4Cn8v2ZExZ2r4HKD0qjd8iEHftZ4QhwEQzlR9KotXQ31zoRERERERGVshEHbz8KgKcYy67QJwvxuZuT+/1UgGfZe4iy7t6app7X3/sfmcAiIiIiIiIqcZqSacVbeuupQnzq1OZVgwbmi+w9RFkej9T8abdXOkNDRERERERU4gTHFm3ZDZ4u1EfXNPUtA/RWdiCiLFH0Vr/ct3R3P2ICi4iIiIiIqOTnjDiuSIuekpSuKmgBEp5LAWxiLyIaPgGulRYkd/czJrCIiIiIiIioKB8hFOAFX3N8eyHLMLF57StQ+R67ENGwvTmYLLthTz9kAouIiIiIiKiErblowgEAvMVZennKDqXwvRz7NYCV7E1Ew7mc9TeHN7+0x9WMTGARERERERGVMFcyVbQbuKtNkkbSgqSK+d8dRSKiDGxMDJb/dG+/wAQWERERERFRKUuheE8g1MJt4P5eNYv7OgD9CzsUUUYX8w/3tvoKYAKLiIiIiIiotEnxJrCM23rSTuWx3Pg6gFfZqYjS8vzA6yN+v8/ri3EiIiIiIiIqaUWZwFJgc83C7rV2KpP35t5XIXIVuxTR0BnVz01ZunpgX7/HBBYREREREVFJ06lFWvCnxYZ7TvkGY9cJ8G/2K6KhkJsnLOl9eCi/yQQWERERERFRieo9r9IH4ICinPaK2PLUP2lGSkUuAWDYw4j2Kq6QS4f6y0xgERERERERlShjWdOKuPhP2bVg1Ytj/+KG7kR7H37Ewvk1TT2vD/UFTGARERERERGV6gwSRXwCoWClnYtnufENcEN3ot1T+bFvUbwlrWuKUSMiIiIiIipZRZvAUiNP27l83NCdaE/kic3J/ean+yomsIiIiIiIiEp1Gqk4tkiLHkvn0aNC8Q3GrgPkCfY0ordtslJm9tTmVYPpvpAJLCIiIiIiohKkUbghOKoYyy42f3zw7XI2IwXBZ8EN3YkAwKjoXO+tvc9n8mImsIiIiIiIiEpQz/jqIwGUF2PZ1cjKYilr9eLYv6C4iT2OSL9bs7j3nkxfzQQWERERERFRCRJRnkCYJ5ZHvwlu6E6lTHGHr6n3R8O6jhhFIiIiIiKiEiTm2KItuqVPF1N5vTf3vgqVK9npqEQ9VZEcuEAAHc6bMIFFRERERERUitQ6rkhLPvjm4P7PFVuhfUfGrgPwGDselZiNSMnHxzVv2DLcN2ICi4iIiIiIqCSZ4nyEUPHfTE4wKzSZDwORL4AbulPp6LdUP1p9a+zFbLwZE1hEREREREQlZsPFh4wBpKYYy65Wce1/tStu6F7yklD0lkhdFSIXeZf0dmXrDZnAIiIiIiIiKjED28uPBSDFWHYLxZvAAgBPMnk5gNfZC0uCAngKKr9SNR8dkIqDAb2lNKouV1Yvjt2azXd0sz8RERERERGVlpTINCne4hd1Amt88ysbemb7vgPR37EnOtKLqnhYLHlo0Br85+SF69a/9YNVDVPLyj39s50eAAEWeptiP8j2+zKBRUREREREVGIEmFasZdeUPFns8fcdGbsu9rz3QgCnsDcWNwXWW5DlBrpMXa4HJyzsXrOn393Ps+l7ClQ6PCLt/a+P+MxwTxzcHSawiIiIiIiISm/WfWxxPkCI16pvifUVe/hlPkx8jn7ZqHSAW/sUmzcAtIjiYWNZD9Us7nlmKC/qafT9j0K/4fDYvOhW/Xj10tUDuXhzJrCIiIiIiIhKjRTnCiwFnnRKE3gX9z7SM9t7EwQXs0Pa2nZAOhTaAZj2DaPHLz/phhWJdN5g7bnjj96595WTk5VvwiVnVS7s25irD2ACi4iIiIiIqIT0nOerBPTgoiy84GkntYUnmbw84XF/HMCB7Jm2kQTwOKDLxJKH+l+t6JryrhVF6S0AfGn2xEMtGbwPwAEOjllCRc+uWRjP6fXJBBYREREREVEpsYp3/yvLYKWTmoIbutvGSwIsM9BlgGtZTVNPVk6JXHPRhAprMHEHIBMcHT3RL9Us7n0o1x/DBBYREREREVFpKdoEFsRZCSyAG7oXhq4TWK0GuszjNvdX3tzXk/VPACQ2mPwTAL+jIyn4ac3i3uvy8VlMYBEREREREZWWYk1gGY8rscppjSHzYXrmyBeg+gi4oXuubAHkEYUuA6xl1U09T+TilLxdxWb7fgBoo5ODKoJ7fYPxK/L1eUxgERERERERlRCBTtPiLPqLhy1ct9WJbVK9OPavnkbvnwF8ij00K5IAntzxWKBZlsnG68PR0+i7CNArnBxgAf7tsRLnSjNS+fpMJrCIiIiIiIhKhDbAFQOOKtLiP+XktrHceplJylkADmZPTZsB8KwA7Qa6bGTFwP1jb9y4+Z0f9+WtID2Nvgig1zk83n2WMR87rCm/CWUmsIiIiIiIiEpEX3nlZBiMKMayq8MTWN6be1/tme27khu6D9nbG6+73HjYe3Pvq4UuUO/cyiNTRu8EUO7guG+HyFlVt/TF8v3BTGARERERERGViKSR46RIy26psxNYAOBLxq6PebwXA6hlb30vXQeRh0XxUAKpZZOaXu62U+n6ZlcekjTWvQAOdHAjGEBmVy+O/asQH84EFhERERERUYkQsWZAi3QHLAeeQPi+KjYj1XOefBaWPgpu6L4NkM58bryeqVUNU8uS2NQM4HCHDyDfrF4cu6tQH88EFhERERERUQl4fF6tB1vWfaRIi7/Ne0T8xVJop+pbYo+X6IbuCUAfVchDUGvZhjFjH83nxuuZUkBink1/BhB1cuOo4g81TbGfF7IMTGARERERERGVgLGb130NAm+RFv9pmQ9TKm21c0P3jwE4xOFVfXsfK1PmeXDiTWvfeOdHPUVRgZ453vmiaHR4Oy3fktz/C0C8oIVgAouIiIiIiMjheub4Pg/Vq4u4Ck+VUnt5b+59tafRdyWgv3daV4RiGSDLknA/PGnJmnXFXJnYbO9cVXzX0Z1R9L8pj+esqU2rBgtdFCawiIiIiIiIHGjNRRMqXAOpj4ulX1DVQDHXRUssgQUAvkTshpjH+ykU94bumwD8EyLLrKR50Htr7/NOaZ+eub6wGv0jAHFwN9yIpHXmxMW7rowrHCawiIiIiIiIHKJvXuXIxGbMsMRq0MHkxyDYr1j3bN+VC7qy1NqySDd0TwJ4csdjgWbZhtHjlxfDPlbp6m6sngRjbgdQ7uAuOCgWGnxNMdvsPScgIiIiIiKiotU3u/KQhMiHLUiDAqc7cVLtVjO2cknfxlJs355G7x9h7w3d397HKpkof+Dw5pc2Obk9Yg3eg4wHnQIc6eBqqkIvrGnqXWircYDDPRERERERUXFZc96ECZaV/JhAzkhCowK41bnV7SvV5BVgxw3ddZ3AajXQZW5jllbd0hcrlbbYeZJns8OTV1DBNTWL7ZW8ApjAIiIiIiIiKgrds6unQkyDAGcAyZ37IqnzKy5YWcrtboMN3bcC0qXQZYC1rLqp5wkpiY73foduWfdbBU5z9uUmzb7Fsfl2LBsTWERERERERDak82H1PFcdsMScocDZgJlSknEowQ3c38t3ROz62PPeiwCckoePSwH4z1v7WG1JHNg6tbnwJ9AVWk+j7zsKnefwaj7uGp26yK4JSu6BRUREREREZBNrLppQYQ0OhixYZ6rgHCgOK/WYKPQCu+3FUwg95/lOyuGG7m/vY2XKPA9OvMkep87ZRXdjVYNAboWjcyi6Nqll0yctWbPOriVkAouIiIiIiKiAXjn/0FEDSddpllgNCnwMwH6MyjssSz/gXdT7JCMBdDd6/yDAp7PwVhsE0mKgy1JI/WNS08vdjO7u9czxnQzVFgAjnVpHBTZbgqBvcdzWqx35CCEREREREVG+J8Xn+SrhMh+FyscHUzhVBB5lWHYnuf3VEc8yDDt41FyRFOtsAAel+dJtELTCyIMCXeZdEn+qVPexSsfa82smaip1jzg4eQUgKZAG3+KY7R/V5QosIiIiIiKiPE2GJZX6qEAaAPUjN4+COYvi6eol8WkMxDtijd6zFbh9H7/2rn2sBl8f2TZl6eoBRm/oXpgzeb9y098BwbGOrqjIF6oXx35XDEXlCiwiIiIiIqIc6W6srhVJfRwqZyGVmrrjv3Lhy9An1/o0g/Buvqb433oafd8A9EfvmdOvBmSZQB80sP5Z09TzOqOVmcfn1XrKt6y/3enJKwGu9RVJ8gpgAouIiIiIiChrtAGuXk9VRCFnKXAWYKqhfPBlGJ5iCN6vuin2s965lXcnjdQJrHUuk3qm6pa+GCOTHWO3rPs9gJlOrqMI7vUOxr9WTGVmAouIiIiIiGgYdj05MMaTA7PKGHDz9j2oWtT3HIDnGIns6m70XpaljfLtbNXgYNkcaUaqmArNBBYREREREVGa1lw04QBrMHG6BTnTDCbPElhjFODTgVlWVqZcgUV5s3N/sR86upKCV9wu8+Hqppc2FV/RiYiIiIiIaJ9ebjhs7KDHNcuCNCjwQQBljEpOveFrih/E0/IoH7obq2sFZjmAUQ6u5nZL9DTv4t5HirHwXIFFRERERES0B7ueHJiA+gWwmE3JE8VTTF5RPsQu8FZpwtwFcXTySgG52Ls4/kixVoAJLCIiIiIiol3sWImhZwN6FlKpY96e+1F+WXx8kHLvhTmT99Nk/1IIqpxcT1V8q2ZJ7JZirgMTWEREREREVNJ0Pqye56oDlpgzFDgbMFMYFRu0i8FKRoFy2sca4Ipr/2IFpjm8pjfVLOldUOy1YAKLiIiIiIhKcuLa4672W2IaYs+jQcSM5xorm7WRcgUW5VbM470WwBnOvpDQNvDGiM86oSpMYBERERERUUlYc9GECmtg8HRLrDNiwMcFZiyTVvaddidcI59mGChXehqrvgLg8w6v5kueZPIT1UtXDzihMjyFkIiIiIiIHKtvXuXIxGbMsMRqMMBZAoxhVIrCmuqm+CSGgXIh1uj9sAJ/B+BycDVfs1Lq997a+7xTKsQVWERERERE5CjxC6oOTiXxEQvSkNyC00VQruBf74sM97+inFh7XuUJCtwKZyevEka1odpBySuACSwiIiIiInKA3vMqfUnL+rgoPm6SCAvg4uOBxUyZwKKsi8+p8hojdwMY7ezLRy6ZsCT+sNOqxQQWEREREREVpbXn10yUVOqjAmlIQQMCCJdZOWUCbj3BIFA2rW8YO3q7yt0iqHL2tSM/ql4S+7MTq8YEFhERERERFY3u2dVTIaZBgDOQStXunLExME6bqHpSTGBR1uh8WLHnyxcJ8AGHV/VvviNj33HsuMCuTEREREREdvZW0grAeQJzJCPieK9W3tzXwzBQtsSf9/4SwMecXUt5osw1eIHMh3FqDZnAIiIiIiIiW9Eo3D1VVfUCnA2VswBTyaiUUgfAUwwCZUvPHN/nVfVLDq9mzFjWGYctXLfVyZVkAouIiIiIiApuzUUTKqzBwZAF68wY9FxROZRRKU0ieJ5RoGyIzfZ+SFV/5fBqbrEsPbN6UffLTm9PJrCIiIiIiKggNlx8yJjtAyM+DOBsDCY/DFijd+xmxZ3YS5lCXmAUaLhis73HGcFfxdl5j5Qxel51U++TpdCmTGAREREREVH+JpUN3oOMR8+wYJ2xvV8/DOgoRoXegwksGpY1DRMOU0neLcAYJ9dTga9OuKX33lJpVyawiIiIiIgop3rO81VCcJaInq1AvUDcypMDaQ+slPkvo0CZ6ptXOTK5Jfl3ANWOrqjo72sW9/66lNqWCSwiIiIiIsq6lxrH17jgOksgDYD6AVhMWdEQbKy6tZcrsCgjCkhsi/wJwMkOr+o/fL29Xy619mUCi4iIiIiIsqJ3buWRJmWdq8DZAI5/e0pJNFSi1ws7DWUo3uj9EYDzHF7NVYlE2bnSgmSptS8TWERERERElPmEcU6V18A6F4rGlNETuf86ZUqBxYOvjbiGkaBMxBq9n1LgModfI+uNcZ9xePNLm0qxjfn1QkREREREaembVzkyudV1HlQvABAGYDEqlKFtgP5dLLnetyjewnBQJtbOrjrNErkfgMfB1ey3VE/zLuntKtV2ZgKLiIiIiIiGJH5u1RHqkosV+DSAgxkRytDrAllmYO4ZWTFwx9gbN25mSChTvXMrj0wZqwvAgQ6upgpwvq8pvriU25qPEBIRERER0Z5nTQ1w9XiqzgbkcwaIgn8Ep4w6Enph6V2qeseG0eOXn3TDigSDQsPVN7vykKSx7oWzk1cA5CpfU2xxqbc3v3yIiIiIiOh9Hp9X6xm75ZXZgHxLgCMZEcrASwLcY9Rqrl7S08HN2SmbVjVMLRvt2XS/AKc6u6Z6q6+pdzavH67AIiIiIiKi900K3zhPtqz7LiCTGRFK0zMKNAPW3TVNPSsYDsoFBSTu2fRHdXzySjoGXq+4kMmrHZjAIiIiIiIi6HxY8ee8F6ts+h4g4xkRGqKUAq2W4g5LzZ1Vt/TFGBLKtfhs73cVON/h1XzRramzqpeuHmCL78BHCImIiIiISlzPHN/JUP01gOmMBg1BPyDtCr0npZ5bJi1Zs44hoXzpbqxqEMitcHY+4024JFi9MPY0W/wdTGAREREREZWonvN8lWLpAgXmcm5A+/CGQB7kyYFU0DFrR7K9BcBIB1czoTAfrmnqW8YWfzc+QkhEREREVIK6G73zAP25AqMZDdqDlwG5C4I71o8a90+eHEiFHbOqJ0HNvXB28goi+Hz1YiavdhsbhoCIiIiIqHS83HDY2ITH/QcAH2M0aDfWCHC3Uau5+sieTpkPw5BQob0wZ/J+5aa/A4JjHV7Vn1U3xb/BFt89rsAiIiIiIioR3bOrT09Y5mYoDmM06B3yBIA74MKd3HOH7ObxebWe8i3rby+B5NVdviPil7HF94wJLCIiIiKiEhCb7f20ivk9FB5Go+QZQLoUercF/M3XFHuBISG7GrfllWsBmenkOgrw7/LEwFyueNw7JrCIiIiIiBxMAelp9F6lwFWMRkl7++RAk3DfOrF57SsMCdldbLb3Gwp8zuHVfNky5mPjmjdsYYvvHffAIiIiIiJyKI3CHR/vXaKCTzIaJWkTBPep6h0jEoNLOUGmYtIz23cWRG8HYDm4mluNZSITFvU9wRbfN67AIiIiIiJyIG2Aq8fjvUnA5FWJ2SjAUqOmefCNkQ9MWbp6gCGhYrN2buWJMLoIzk5eGajMZfJq6JjAIiIiIiJyGAWkx+39PwHmMBol0eJrBfJ3A3N3dV9fi7QgyZhQseo5z1cJo3cBGOXsmspl1Utid7LFh44JLCIiIiIih4k1+r4v0M8wEs6lwH8sxR0A7vQt6V3JiJATrG8YO3q7pfcK4HX49fvHmqbYz9ji6WECi4iIiIjIQXrm+j4Ko1cwEo5jAPxbgXtcKW3y3tr7PENCTqLzYcWeL18kwAccXtXWLYn9Pw/E2ehpYgKLiIiIiMghYo3eKWr0ZvCwJqcYAKRNofeo5frrhEXdLzMk5FTx572/APAxJ9dRgGcNrLOmNq8aZIunjwksIiIiIiIH0Pmwep7HXwTYn9EoatsEeNhAm5OJ8rsOb35pE0NCTheb7f20Al92eDVfBfDRmqae19nimWECi4iIiIjIAeLPe/9XAD8jUZwTWwHu48mBVIp6Gn3/o9D/c3g1Exa0wdvU+wJbPHNcWkxEREREVOTWzq0Zb5nUMwAOYDSKZiLWDeAunhxIpax7TvUxoqbD4WOXKvTCmqbehWzx4eEKLCIiIiKiIicm9T0weVUMVipwhwt6p7ep9z8MB5Wyl2ZPPNTSxH3q+LFLf8DkVZa+6xgCIiIiIqLiFZ9T5TUqLwIoYzRs5+2TA92WWVK1qO85hoQIiDV4R6gHDwOY7uR6iuI275L4OQIoW334uAKLiIiIiKiIGWN9DaJMXtlHCpBHFNosRpqrb4n1MSRE71BAYmX4E9TZySsAj7vGmAuZvMoersAiIiIiIipSr5x/6KjBlOcVAKMZjYJOyDeLyFIY3JlIeu7jyYFEe9Yz2/dDiF7h8FFhbVLLpk9asmYdWzx7uAKLiIiIiKhIDZqyMwBl8qowdpwcCL273JW877CF67YyJER719PouwhwdvJKgc2WyseYvMo+JrCIiIiIiIqV0XP5TEV+598C3G/U3LNhzPj7T7phRYIhIRrixTPXF4bR6xxezRREG31NvSvZ4tnHrzsiIiIioiK0cxPkVwGMYDRySPE0RO8wlt45YVHfEwwIUfri51YdYVzSBeAgR1dU5AvVi2O/Y4vnBldgEREREREVIVNmThS1mLzKQWix8+RAo+aWiUv6nmVIiDIXa/AeZFy4Gw5PXgnwax+TVznFBBYRERERUTFOllROYRSy5u2TAy03bvPdHO9lSIiG7/F5tR6zZd1tAhzh7AEZ93t7419ji+cWE1hERERERMU5YzqJMRiWraJYCsGdyTL3vRNvWvsGQ0KUPQpIbMv6PwI41eFVXTmivP8caUGSrZ5bTGARERERERWnSQxB2l4T4F4DvXtEYnDpuOYNWxgSotyINfq+DegFjq6k4BW3y5w59saNm9niuccEFhERERFRcRrLEAyVPqiCGzaMOuwunhxIlHs9c3znQvV7Dq/mdlF8rPLmvh62eH4wgUVEREREVJwOZQj2KaYwF9c09S3b8U9ubUWUa/E5VdON6k0AxMHVVBW9oHpx72Ns8fyxGAIiIiIioiKbOe2YGI5mJPYqqaJfrW7qe4ihIMqPNedNmJBSuQtAhaPHYNFv1yzuvY0tnl/CEBARERERFZ+eRu8AgDJGYp8TnmdV5Q9upG6uXNK3kREhyo1VDVPL9vNsekSBE5xdU72puqn3/7HF848rsIiIiIiIinEKBQwwCkOK01EQ/XlSrHhPY9WSeGPVqco/5BNl3X5lm652fvJKOjYnDriErV2g6DMERERERETFp6ex6hVAuA9WZl4QwR8HrMRNkxeuW89wEA1P/IKqg01SegGUO7WOCmxWl+v4CQu717DFC4MrsIiIiIiIipHIWgYhY1NU8eOylCcWa/T9tXt29ek6n3MjokyZpHUSHJy8AgBLcQ2TV4XFUwiJiIgoq/x+/0Eul+sAK2Xtn7JktIi4rJTZZFxmUyKR2Pjoo4++ySgRDZ8CLwhQx0gMS5lCG0S0Ifa898XuOfonM+j588Tmta8wNERpjEdikqLOfsArqe5mtnRh8RFCIrK9YDA4RuD6FjSDMctYy9ofaVnmpHiEA+FPqFpZ+yuxwLwJxYaU5Xl19Bb3xgdWPrC11PpYNBodnUyYb2fSx1TkoY6O5Q+W6vUZqYtMSbl1hhg5CYKjARwF4KB9vGw9gCdV5T+wtN2YxINdXV3bi2dMipwrmt4eH25jXdfySMvafJQvFIhcBWBEGi/pb+9snW+7vhWIRAwwxwZFeb69s/XnduyLsdneK1VwNe8Usi4B4G5R/MF7ZPwBmQ/DkBDt3QtzJu9Xrv29cPDpqBWJgTHjmjdsYWsXDldgEZH9GevrEFyeyUvFMl4AjklgBQKBcQq5DaJZe0+FAAJYSGLb6KSGA5EXFdqlIveO2lxxTykktJKD5utAhn1MTTWAUkpgSSQQCacg5wv0gwaoFpV0/yQ2DsDpIno6FN9wwbM1FKhfKjCL2jrb7gbsPVm0FF9WwJ/Oa1Ke1LX5KJvf7z8IwPz0xgD8O93X5GXoBz4KYF6hy6GQP9r361GfcPqKhwLxADhbBWfHnq9a29No/QkGN1bfEutjaIh2b8ri1W/2zPEthqpjNzjf5vJMwY7vTCoQJrCIyNbC4fBYTclXMp944DgnxcOlrmk5nquIApMBmSyK87eN7n8zGAj/BWIWdHR0OPLGPRqNHpIcNF/J/B2s40rlWjRJfFZELjLAJIFmsddhFKCfVMgnQ4HIs1D8dLz30L80NzenbBgKUWBqmq/Z2NbW9nJexghX+XEw6eX/LMVKm3a74+zR4Pq0Xa/LQYxoLUd/kvf0Oe0BEwC9Bhau6mn03muM/qEm1Xu/NCPF2BC95ztIUr9MqfUpp45JlrguABNYhW0DhoCIbC0pVwIYM4x3OHrWrFnO2VDSyvuEbj+BfFHUtTrkj1wejUYdd0OSHDTfBbBf5u+gR0aj0QqnXoKBQGBcKBCZrylZLSLfAzApxx95FAQ3vPTSS7a8R4lEIhMy6C9P5a2ARtMeI1TyWL608gaYZo8Ji03jgx0rHkTwGG8W8sIN4GOWJffEPN41sUbvVfE5VV6GhegdVYv6ngPwF8dWUPSiDRcfMoYtXcipEBGRTUWnRyeo4DPDveHctGn70U6JiaocW6CPHgHBjxKD5qFoNHqIk/oYgOEudXen+lPHOO76i0YrQoHIfAvubgBXYVhJvrS9vGLFioQd45JKZZRUydsKJ0X65TOwX4ImGo0eAsVhdihLEsmnbX2xKh7gHUPe+RSYb1TWxhq9d/fM9X1UG+BiWIgAlzFXA+h3aPUO6N9e8RW2cuEwgUVEtpV0mR8gC8fxWmoc84iXoLArEgSIJAe1PXpy9DAnxDNh6TXZ6GMFWBmXU4FA5IOpQfMUdiSuKgrQ0bptew1q+tdgPlc4CdJfgeVyqe0SWImETrNJUdZ1dnaut/kl2wRk85leSufyUeAMGL0r5vHGYo3eBWvPr5nIsFApq7qlLwbo751aPxV8Y/X5h45jSxcGE1hEZEvhuvBxUJyXpRmdU5ILVgZ77+Tiq/vIpMcs9fv9I4o5mBF/ZJpAG7PxXkadsQ9WbW2tJxSILLCA+3fshVYYolhr1xhlkkS2TN4SRBaAdFcDvpav/bnS7AN2SWA9bffr1tcUfwHQDt45FNx4BS6zUqnVPY2+B7sbqxoen1frYVioFLlVfwTgTYdWb3RZ0v1NtnKBJkMMARHZkVqyIGtjlOjxTohJpC5yOICRNinOB1zivraY42kEP2Ife0cgcFrNiPJRrQAuQ7pnCmb7+od9E1iafmLFjNg6YlUex4jRaVbIlhu4K+yRwBIb73/17oJaf+adg53mVzpTIH8dt3VdT6zRu6C7sXoSw0KlpHJJ30YBfuHYCop8vve8Sh9buiADLBGRvQSD9WEIZmVvJiSOSGCl3LZZkfDWt/enQ6FoqBhjubPcH8nil2lR97GIPxKwkHwCwHSb9K0eO8Zp1qxZ5RBMSasmwEsPrHxgaz7Kpy7nbOAuao9HCE0RrMACAPeo1C0KrAfZi+IwBS4TmBd6Gr3/6J5T9UmuyqJSUVHR/wsAG5xavaRlXclWzj8msIjIjhOXBVl+y7HhcHh88cfFdo9CClKpa4pzUmGy2scUONjvP62qGEMRmh6daQT/AHCQXcpkoGvtGKvNmzcfBSCtyadqPjdwl/Qfb4RlxwSWBbHD49J5ffxzWCpv6NtmKX7GOwhbz7k+KCrN47a8Eos1eq/tnl09lWEhJxt748bNKvpDx85XgP+39tzxR7Ol8z+YEhHZZzLtr/84gEDW3zhZ/PtgKXCs7QolEo34IycUUxzDgfDHoAhm/QvVSh1XhNdbAyxzH9J97Czn3Splz03cjSv9Ns7nCqcM9vszIrZL0AQCp020SZ80rnLXM8VyPXvcid9zFVZRTHsPVeBLIubpnkbv492N3nmxBu8IxoWcaMvgAb8HsMah1XNZbvd8tnJ+MYFFRLbR0NDgAvT7ublftIr+MUKB3R4h3CEFmV1MfUxh/SAn7WOKax+sSCByGkQXIs0VRXmgxhhbPkKYwf5XEORvBU8GG58rkFhltzi7NGGTsU7XtLS0bCmWa/qwheu2isqPeTdRVGoFuF496O5p9P60d27lkQwJOcnU5lWDEPm+Yyuo2rB2buWJbOn8cTMERGQXfX3rLhJJ+wStoX7DFPUKrJ0n/h1ux7KJ6CwARXEay8u96y8ANDePbUjx9LFAoP5kA70TQHnWb+WAblH8FxY2QHUrIC4IRgOogeJIAIfs4z3Wd3V1bbdlX7fMNGh6+9urlZ8E1geP++CobehPd6PoNR0dHZttNx8QyWS16UuAvJ7lorQX23eF7+XYr3sqvecL8AHeVRSVsQC+njLW13savSsUuMEz2iyqvKFvG0NDxc43GPtLzOP9GpCre/xC3xpYPwTwIbZ0fjCBRUS2EI1GK5KD5qqcTYhQ3I8QWlb5VKhxpfeVig6IOXPPmQYdoeoZ50IqrJD/BXBUhsU7JhQKHdje3v56EfSx+TlspaLoY4FAYJy1I3k1JktvuV0ht0P0bmMSy7q6ul7b2y8Hg8EjAet0UZmD3W8a323b4Gnae0xtHz9+/Iv5KNrWMYPTRNNbWa+w6Ql7guOg6b3EQOZ2di7vKvXvUmlBMtaISxToAp+0KFa1Alyf3GL9ONbo/SsUv/Mtia9kWKhox6VmpGKzcaUKbnNoFf9n7eyq0yYs6X2YrZ17TGARkS0kBswXRJDL42iPnjVrVvnSpUsHivLLP7MTuf6zj6TS6wD6APxn1qxZN7y5adsfBTo3g8+xABwB4FE7xzA5qP8LoDp3n6BHRqPRipaWln4bh8Gy4F4EoDIL77UewE/cZdafWlpa3hjqizo6Op4D8ByA3wYC9Sdb0Kuw64mQirV2DFwoFDoQBulu1L+qubk5lZeGVZ2m6Y4rdk1gZfAoZCrVvwoEAPA1xR/rmeP7A1QvYTSK2gEKzINg3lursspdicWHLVy3laGhYuNdEv9brNH7CGxz2nGWv4NFfqTAdEG6f36hTCYdREQFNbN25v6W4PIcf4x706btRXxSiEn7kRo1Q5+cLl26dKB/YMvFgGQ0CVS1auwcvWAwOAbQy3Ldx1L9KVsvjw8FIt8CcPow3yYB4Psjt1RMau9s/Xk6yav36uxc/q/2ztYzRPXj2HnUtkJsuQLLMlYmSeS8rZowMGmXT8V+CaxZs2aVA5icZk1eevTRR9/kt+k7Kgb7vy7As4yEY9QKcP1gytMba/ReH59bdTxDQsVEAFWY7zq4iqfE5vrOZEvn4X6MISCiQhsoS1ymwME5//IUU8Q3fGk/ugRXmqsrVqxYkQDw68y+THQ/W0dPXZcBGJfrz1HLvocFRKZHjgYwvJtHxTOWora9s/W7D6x8IGurANq62u6EZU4C5EmB2jKBZTLYwF01jxu4Q9J+hNWVsl8Ca8vrW6Yi3ScEVJ7kN+m7jWvesAWCcwBsZzQcZX8F5hkj/3nrBMNXzj90FMNCxaCmqW+ZAA85toIp/YHOZ34l1xhgIiqocDg8XqFfyuClaZ9SJlrEG7lLBo/UWKm0J6cpldaMJvdAhV1DFz05ehgUl+alj9l3I3cxor8HUDaMt7jNXW7VtXa15iTp0d7e3jOYdM9QK9Vi0zumaem/BHlMYCHdVZoDVoX1gt3CbFzpJ+sh4P5Au+FbHH8Kol9lJBzrrVVZfbFG7/Vrz6s8gSEhu1ORK+DUx+wEx/Y8XzWHrZzr2zEiokJ+kRm5CoK0/3qogs9hx6NM6XyxFGUCKxAIjIPisPQChLWZnC7mciXXZfSdbcS2JyUlPakrM+ljAv0qgC1pTb7Vnn0sFKifC5HoMN7ihvbO5ee2tLRsyWU5H3vsoVc7OjpsuZeRZNC2KUnlJYEViUR86a5iVeCZlpaWpA3jnH4CS4UJrD2oXtx7nQALGQlH20+BeZZlPdEzx/tIrNH7qfUNY0czLGTPMSn2LyjudGr9BDJ/VcPUMrZ07jCBRUQFE6mLTIHi4gxe2tnR0XofgDVpTnKK8hFCl7oy2dsmowmdO+HO6FEEtbDFln0sEpkIyKcyeOlTbZ1tdwDyXJpfqrbrY9Fo1A3o/GG8xY3tna2fBWBKeLgSBaam+Zp1nZ2d6/NRuFQq/aSPiD03cBdkkMBypfgI4d464uhDPwXIMkaiBCjqFPjjdk95X6zRe313Y3Utg0K2u691mSsAJB1avUljyt78DFs5d5jAIqKCMRa+D8CTwcD13Z0TnXQ3qB0bDofHF12cMpjQZXq6WMKd5kqvt9okpb22jF1SfogMHpsT6HcBGIGm1ccUONjvP63KTjFIJMwcAJMynAwtdZdZl6DET9WJTo/WAEh3n7e8rQoSk/7qsHQOecjv/Dvt8W5ze3v7GtAenXTDisSAlH8in32SCkuAMQrME5jHd+6V9eXuxuoDGRmyg6pFfc9BZbFT66eqV264+JAxbOncYAKLiAoiFArVQtCQwV1ZR2tn68M7Jjqa9glLmnQV3SosEcnbIzWiGsjkdYNattqGfex4QM/JYAL977bOtr8DgFF9Lt3XW1bSTn3MEpUrMnxtbDDlOd+Oj5nlW9KtGZxAmL8N3DPbn0ttl8Dy+/0HAUjvjww7Vpvy2PJ9mLJ49ZtutzkT0LWMRsmpFeBXAtPTPdt7Q88c38kMCRVaSl3zAQw4sW4CjNveX/5FtnKubnmIiApBZcGOMT7dbwXrO7u8R9rJBRtvsr036W7ODEv16Qwb5qMZvGjjo48+tN5uQRNj/SST7zmx5Kq3JsQC69n0P9c++2AFApGZgB6ZSUeAZV3w2GMPvcrBKrN9mSSPG7gjg/25jGVsl8ByucrTv3ZUuapoiCpv7utxGY0AeJHRKEmjRfAZqD7W0+hd1d3ovSzW4D2IYaFCmHjL2rUCXO/gO4dv8vrKDSawiCjvQqFoFCozM5iltbe3t7TsMoA9m8F7FFsCy4KmvfdOfyani0X8kQCAGRl8SbfDZisgwv5wvQIfzKAuK9rbl9+zS/DT72M2SpJa0Isyu+/Cwl2vtVKnGSSw1MrPCqepU6eWATgizZe91tHR0We7232Tytt+f6Wq6pa+mMuYUwGsZjRK2jECLFAPemONvr92N1bOZEgo39yJ5PcV2OzQ6u0PD77JVs5Bv2EIiCjfcxSkzIIM1l5BFN951+S83HrGDKa3r7TacJPtvfH7o5MgJt2N1dM+XWxm7cz9+2Xwz5k1qHnYbn1MRRZk8kIVvRK7JONGHTDq+c2btqYAuNJ4E1v0sZm1M/fvx+BZGby0X5G6ArRro6a7ClKNcQ+EQqFJOe/sKZmi6e/zZtP9r+TYDC72UaHp0axMvo2FjZ2dLf9xem+uuqUvtqZhQtjlSd4N4CRe3yWtQqENAqsh1uh91gA3udz6R+/NvVx9Szk3vvmVDT2NVb8C5LuOvHMAvhyfU/Vb7+LeOFs7e5jAoozsONUKBwwOWvtb1uABSLoPFCu1v6q1x1V9IkbVuN6AO/m6MWVvJJPyBh9PKT3BYKQBiroMXvpQW1fb8l3/Q0tLyxuhQGQ9gHFpvM9Rs2bNKl+6dGlRPHfvQvp77yjS2/8qWhf19luDtyH9VRwAYIyY2+0Us3Ag/AkFpmeQCljR0bF86a7/ZenSpQOhQHgtIIcP/W1wRDQarWhpaekvZBwGygfOBGREBi+90Y6rcwolwxVOYsE8BZP7he6awR8DFDZ97E5xfAZ/3PgZrOwckGkJrgfw2VLo1xOb177yyvmHRgeT7iaIfJRXOilwlAALTFKujjX6/m6QuqG6qe8h4R5zlEMjKgZ+uq2/4hJJ716+WFQYtb4N4HNs6exhAovep7a2duTIkSMnGCMTRGWCKiYItAaCCQCqoDggObhjRYgFAxgLsAwUsuOg8T1PqgFrx+9bSKLMDYQCkX4APQC6oeiB4AUVWelJylMtj7YwW+0wDQ0Nrpd7112d0cQC+N4ebrieTfNLz71p0/ajAfynKIKWweNogqHtfxWti3oTVur/JcV8BUCmpxP9007Jjp197HsZZgK+g93eqMuzAA5Pp4+l+lPHAHiikLEwsGZIBvMOldSvOVq948ADDzwaJv2TLO3MgmXHFVgCwTGFncBnundgcTps4bqt2oCzY+6qH0Pkq8hkX0pyovJdVmU90w3cYCWw0Nccf42hoWwbe+PGzT2Nvp8C+lNn1lA/FZvr/blvUZyPbWcJE1glLloX9SY9egKMnqjACQKcAKBaU2/dxShE3neLmU0V2PGX7SPeel9RRdKlCAUir0H0Cai0q0irMYOPdHV1bWerFa+++LpPi+CoDF76YGtna+vuZzx4FkAkrVmSmONRLAksyLHp/vFTgE+EgpG6PWQnBNCxACqTMFNkmBe0ivzcTtF6pXf9xQCOzuClj7R3tdy/h589C+AjacXFso5HgRNYAnNqugO2AF3tHR3Pgd6JiZFpTlt+YERsl8AKhUITYVDQY8ctY89HK3Pav5uRAnq/Hpvj7VDFnwHsz6uednGMAL9SDxZ0z/HeJkmZX31rjIcAUHbHoYT+Tj34MgCvA6vnUYOrAcxhS2cHE1glJBqNulP9qTq4rBlQDSpwQhJmLMzbExe7OWjnRt8zRRUu8QwGA5FHLNF7DMzfOzjJKip+v3+EyLv3sBpyMkDkmr187T2XdoJHi2oj9wweIYR/zyHJ5lRcVnR0LL/fRmNcRXLQZLSPggGu2mMtIc9pun2swBu5BwKnHQ4ka9KOg+JvHK3ed8VMc1qVksntz9huAmODROFAquzpUu3nvsXxO3rO9a2ES28B98Wi9ysXxSu+dbFuhoKyPv40x7d3N3qvcfCphOfF51b9xLuo90m29vAxgeVsEq4LT4MbM1RlRnLQ1MOS0dCi/VtymQARVYkIXD8JBSIvQHC7WLqwra3tGTa3vVmW+1JoRn9Z+UdHx/K2Pc7ERJ+VtLu0FMVG7n6/fwSgk+06CbagX4WN9sZIDpovA/Bl8NLOzs7WB/b0QyNIu4+pFvawAEtTx2XyVwkVaxlHq/cFZZqjHqxSrH300UfftF+xpNCJwr5S35ez+tbYi4/Pqw2M27L+ckC/Azjr0VnK2Bsq+pmaxb23MRSUs/GnL35jrNL7NWS2H6vtp0Gq8gMAZ7Clh48JLIdpaGhw9fWtj1hGz1HB2QqMc/DWi1OguFxTcnkoEHlcoDcnNbm4q6uLz+jbTCgUOhBGvp7Z3NGav7efi5hnoWlvlFwUCSyXy3UMTBqn3+WRKK5v7dr9Y52FEI1GD0gOmm9mVhe9cq93HZZ5VlNSVH1MLXOUpL+797bOzpaVoPd0EGetwBKx6WNyikInCp9iZwdOumFFAsA18blVf1cjf9YdW0tQ6boTRj5fc0ucB3tQbr+bWpDsmSNXQvUWJ9ZPFR/pnl0dqlnS087WHh6LIXBMgqA2FIhc+3Lvuh5RfVgFn4UzT3PY4z2XQn7tEk9fKBC+OeKPTGOvsNGXklrfAnBQ+vNG3NfR0fLI3n6nvb19LYBtab71IeFweLztA2dcdn3U8akkEl+1U4GSg6krMuljEHS0dbU9tLdfaWtr2yBAuiszDvL7T6sq2DUHSXuvOQWeA2BAb4tGowcAqHJSndSuiZoCJwptm9grEO+i3ie9R8RPUuiFADYyIqVG1yn0wuqm+Merb4kxeUV54Vsc+ysgTzi1fiK6gK08fExgFbFQKFQd9tf/MBSI9MBYjwP4EoDKEg9LOSDnG8GToUDkgbA/XM+eUljBYLBSFf+b2f2TDuXEQgPIC2m/ddJl+1VYqrZc+dHrNtZH7XSgQjAYrATkC5lN5mVIe2ap4Nm0v2CtZOH6mNHqDCbwazlivVsiodPgsJPZ1IaJmlmzZpUDmFLIMhjgafb494wJ82Fqmnpvdqs5WhV/AJBiVEqAyl8kIcfUNPXezGBQXsccQEX12w6+uIJrz6v6CFt6eJjAKkKhUDQUCkb+CmO9qKJXILM9X0pgDMTpKtISCkbag8H6UxmSAjWEcX0PwMgMXnlPW1fbY0NrbE07uVDoTbaHWMZjbVakPnHpB1seaVlrqzipNT+zPqbtHR3L/znE2W36fczguAJ2nv0yKO+boPfEpKgOfBjajZ+ltktgbX1j6zEo8LYWVkq5AmsPKpf0baxZEp+XUnOsQJoBB29OUdJ0LSAfql4Su8jXHOd2HFQQviXx+xX4p1PrZ1nyI53PHMywYsgQFIdgMDgm5I98PhSIPANj2qBoAPcwG+L3MYKi+nDIH7kvMj1yNAOS1357JAQXZvJaA3xv6E2cfnJBRe2/D5a99t55Cpbx2+3AhFAodAQg/y+j8OrQT8UUS9M/9VQKeljA6PSvCQxw1HrfXZLTHkcfcLlcz9utUKbwJz2mkpL8Lzv83k1c0vesryl2DoycIsA9YCLLKYwAv65IDE6rbor9g+Gggk/djPmOg6s3Lfac71y28nBuzcjWotHo6FAgcpmoqxuC3wJgAibzZMAsY2FlKBC5PhqNHsKA5CPkrh8hg0SrAH/v7Fz+rzRm3uknFxTH2fzaPwSKw2xyK7HQXWYF2tvbe+x3k2P9MJM+psDDbV1ty4fexaxn0y9cQVfvjM7ggj2Qo9b7OorTElj/bWlpSdruu6LgiUJZbafHou2u+pbY476m+JlwyXECLASQZFSK1mqxMMPXFP/yuOYNW7L95sFgsDIUiPwsGAj/mqGmoZpwS18nIHc7d4KkP1jVMJWnvGaIK3hs6oPHfXDUttH9X0gNmm8AOJgRyWqfn5ccNGeFA+GvtXW2LWJIciMUCtXB4KxMXmug3aFA/bw0ZpmTMviYI2fNmlW+dOlSW646MYPGBgk2eVLUfG1fm5wXSiBQf7JAz86oZtAX0+ljmjJVIpLuhxwRjUYrWlpa+gsQnvT3qlEwsf/eFgSOcVaV7PmYnA32++PjgxmoXhh7GsAFa8+vucpKmi9B9GIA+zEyRSEB6IKB10f8YMrS1bm4D5KQP3K+KH6hwMEi8juGnNLqQKLfVsVH4MwFNxPHlL1xMYDr2NKZTebJRmbNmlW+edO2C7ehfz6A8VybnTPjFLIw5I80Wh5c0traGmNIsjwhMdYPJcPNjwXyxTw8meDZue/Kv+0YP1PYI+UfUcEvOzqW3wYbn0pnQX+EjDfYls8A+pmh30hl9DHuZDI5FcCKAoRnawYxKaWTa/cpEDitGkgekObLngDk+jwV8UxAz0hvbLXsulF5uvv9bYFlsvaIrtvt5v5vwzBhYfcaAF/ZcPEhV27rr7hYoJcCMoGRsen9GfAftcynJizqy8lpb5FIZKJJ6Q1QzNR3PnQNI0/p8C2OP9U9x9skirnOvBDlyr55lTdX3tC3ja2d5nc2Q2AfwWDknM2btv4cgJfRyBPBLJPEypA/8uX2rlaetpK1vlw/S1RPs3s5UxaOg00TWCpyrORve5EkIE8Ceo+luL21q9X2qxHC/vD/KDDD9heDcR2HwiSwMngURI+sq6vb79FHH+VkHoClg9Mg6f3hV1T+0da1/Ia8jLOB+nC6aVVVWWm3OPv9/oMAVKX5sqfb29tfYi+1l7E3btwM4Fqdj9/0PFf5ERHXlwCdycjYxnYFrq5OxH8mzTk5UdIKBeo/bZL6c0BGv+emhtcrpX8LlXJ/12UlzwHgxMftxqe2Wl8A8BO2dHqYwLKBSF1kinHhN1D8D6NREAdA8JdQoP7MigHPp5etWLaJIRkWEdXvF0VB1b4njIlqBiuw5E6IJvbxSwkotgDYoII1LsULFVsqVjyw8oGtxdTHVKwfFMP+wYU77VLigJ6U7j2B210eAnAfhzFALZkmaXYxzeOjaJLBxucpWLZLTrtc5cfBpLvQkycG2nrcmw8D9N0N4O7uxupaC+bLCpwHwMPoFGpAQ5vLZT5TtajvuVy8fcQfmWYEfwT0lN0mIkS4AovSNvGWtWt7Gr1/APB5R16Wiiu6G6v/UNPU8zpbO42bVYagcGpra0eOKB/1TQNcDqCcESn4MPLJ/vLB4yL+yHmtXa3/ZjwyE/JHZgM4sUhus+16EqGF9B+p2dTeufxslMCpUOFA+FyF1hbJzcnxBfrcNZk89SiqM8AE1s5YpJ8gMiJ5SaxEo1F3ctAclebLXuvqerjXdnE2qWmaZrZeuGdV0ahp6lkB4IK1c2suE5O6RIAvAjiIkcmbTQpcVX1k/Dc7EotZn8t4RpSP+urOk6P3uEpm5ICbCSzKyKAr8T1PynOBAGMcWL0DRFJfA/AdtnR6kyQqxATMHz5rRPmo5wBcBSav7OQII+gMB8JzGYrMbmQg+r0iKrItE1h+f3QSBKPSfNlKlEDyqra21gPINexj+/p2N89nmE443+/3j+BoBgBWuqvnEps2bXg+HyUz/WZKBvcO9tzAHZkkCm27lxftwYRF3S/XNMXnVyQGahS4RIBnGZXcEsG9luixNU3xa3ORvAoE6v0jykb9B8AC7CV5JcCrfLqBMjV54br1ovJbx1ZQ5dI1DRMOY0uncXfGEOR7YuofEQpErlWRO8C9ruyqQiELQ4HItQ0NDS6GI43AVYy8BJDDi6jIhwSDwUq7FcoFzeRErpJYkTCifPRnFJhcREU+KFoXzftYb6XwWIYvHWtZ7gtLfSybOnVqGaBT0nzZs6tWrRrMR/lSrvSTPqJ2HSMk7bpYlmECq0iNa96wpaYpfoP3iPhUVfNRQJYxKlmfEa9T6IW+xfEzvIt749l+99ra2pGhQGSBBW2DDOmkVu5/RcP7zit3/QTAaw6t3iiXJ/lttnIa9wAMQf4Eg9HpbvGsBPAlRqMofOnl3nV3BYPBMQzFvkWj0dECKboBWIzHdvtgiZX+5FTF+XvCfPC4D46C6HeLrdwJt8l7H3NVuFYCyOhkG1F8vba2dmQpj2cHjT7oKKS7aazkL0FkQY5Nf4wQO44RAgxpArzrK15pa2vbwG/d4ibzYWqW9N1d3RQ73RhzogALASQYmeFeUNLsVj22pqk3JwcThfzRD40oH/kMgMsADOmPvMoTCGmYJt609g1V/NTBVbyku7F6Elt6qPdAlI+JvTsUiFwmalqLbOUAAR8Rdf8zEAjwePl9SCX0q1AU3xJYMbZ7jFAz2HvHZex3uli2bRvd/5Wi7GPQvPexlpaWJIB/ZnhRHD6ifOTPSnk8M+70VwXB5C+BlckYYWy4SjMSiUwAsF96lef+V04z4Za+f/ua4hdYopME+DEAbmic7qgNdAPyIV9T7JzKJX0bczCXOSAUiFwPMfcBUpPmbJMrsGjYPGPMrwG87NTqCfQqtvJQhxTK9c2ZLzVoWrHj+XCevlKUtNaCuy06PTqBsdjjjc0hqvq1Ir3rs+FJhGmfXKcDZsDRj9SEQqEDAXy1KLuYWgXpYyq4Yxil/mw4EP5YrseNUChUbc82y+ARvTyughRouiuwNJXqX2W3OKdSyOBxaZ5A6FTexb1xX1P88lSZu1KhF0L0v4zKUIZ63FBR0T+tuin2j9x8/9afmRw0qwDMA9I/HxnKEwhp+Cpv6NsGle87+FKeG59bdTxbet+YwMrphCsaMkn8SwE/o1H0jkhapj0yPXI0Q7GbSUjCfBvp/hXdNt8X9kpg7dxA+/D0qoDuRx999E1HdzIj3wFwYHH2MS1IH7Ms/TuATPdkEoU0hf3h+lyULRisn5UcNP+RhBxgxyaTDDYWVys/iZXa2tqRCkxywhghGY2/3MDd6SbetLa/pqn3Zt+U3mMV5nQB7kEJHFKSgdVi4TRfU/ySsTdu3JztNw+Hw+ND/sjtMPp3ABnvF6rCRwgpO9aPGfcHAC86tHqWMXI1W3kIgWIIciMUqJ8HYx4CcCij4RhVxkJLMBicylC8IxA4rUYVnyviKhwVjUYr7FIYl8t1DIa4r8QuA7mjHx/0+0+rAqR4+5jgyEKc7LdjnyC9fRhvMVJF/hEOhC/KVpki0yNHh/yR20X1PgBVrhGuHjs2WQYn421qb2+P5aNs5eWjp6Z7/2bbDdw1k/3+hCuwSoTMh6lp6lvma4qfaVl6ggA3AOhnZJAU4McDr1cc61sUb8lF6EP+yAWakqchOHvYl7m6+AghZcVJN6xIKNTJSZ6PrT2vMsCW3ue8h7Jp535XCwC9HuluAEvFYJyo6+FwOHwMQ7FzEJHk95D+ce524jYDxjYr68Skv/eOOvwEQktS3wcwooir4NqZmCxAf8LvhvkW5Qr5cyhQf4ffH814D8ewP1wf8kduNRae2mVC9GZLS8sbNvwePwDpnhIseBp5WiFiaQanlIpNk9ySdgLLjNpcxsfKSpB3Ue+Tvqb4JUn1TFDgagAbSzEOCvxHYU33NcUvn7J09UC23z8UCk0KBSIPQvAXAAdl4S1TAwObetiDKVuqj+hdDMWTzr3ntRawlfcxcWMIsiccDo9NDJrbBIgwGo42TlOyLFIXqW99tPWFUg5EIBA9FmrmZHQTpnplR1fbNdm+BjUl69Mui+jxAP5tk5vTDFYkODeB5fdHjxKYuRm+fH57Z+vV2S2P/yCXeF5N/xbeOh7AinzHr+2Rto5gIPKwAKcNs2ee5RL9SMgfuQMwC0duHfnPB1Y+sHVPvx2NRg9IJEzAAk43irMUmLCbX7PlpCaR0GmS5j4vks8N3CHHSpq5MjuOEbNmzSrfvGlruknRLdtG938hFMjubdbILRW/3Vt/JvuYtGTNOgDzYw3eHxu3XmCJXKrAUSVQ9W2AXFWdiP1SmpHK9ptHo1F3csB8Hin8AIJRWbynia1YsYKnS1LWyHyYnka5CtA7nVlBhHsaff+Tqz3tnIAJrCwJhULVmrIeEOiRjEZJGG8s/CMcDgfb2tpeLtUgWGp+CEnvcbcdYzNeTZjBa7M+WW9r2xAKRF5Dmn81NAXaZHsP0Un/BMKUcx8htMQsyPC76g13mZX1PtbV1fVaOBB5VYGD0+z0hetjYl0GNY8hk813380DwTmAdc620f2JUDDyX6i8BOhrAJIQHKiKgwWYnBw0XgEs3cuHik0TWGLzx9pE0t7AHZZlv43PN23afrSV/uE2+2HHoTjZo9j6wMoHnHw8uyP5muPbAVyvwA09jZUzLFhfVuAjWRjn7EfR5nKZz1Qt6nsuF28frgsflxo0f4Tg5OzPxbn/FWVfdVPsru5Gb5c4dZ9p1R/rfDwo82HY2ru5p2EIhi8YDB4JY7WByavSIpioKfnHztPRSk4oFA1BcGZm4zJ+lsMNhZ/PYEJ4nI36VbqT5wGrwnLkSsCwP3yKAB/NbJIvP83V42kKZDKJKFgf6+hoeRzAn7P8tp4dByDoWQAuBjAPioadK72qh3R/oXZNYKm9V0FmMEZs27bNdmOEhQwehcyNpwFOEor3Vgz61j5ZoviAw/bJ2qTApb4j49FcJK+i0WhFKBCZry75lyL7yaud4zz3v6IcXftyuYMrd3zP81WfYCvv6f6BhjfBmh4+UdTVtvOGnUrPNBjr9lmzZpWXXM1TqUwf/9uoVup3uSqWaPrJBQE+YIeQRqPRQ6A4LL17QzzT0tKSdGIXU5EFyOyv6RsNkr/JYckymUgU9GjkRGrgK7DZiidjqT03cLfSX4FlzOAqu44RgDxrx0d4NIOVbjnCUw0dwrckvtIp+2SJ4F6XMdNqmuLX5mIVRsQfCSQHzRMArkIu9+zlCYSUI9VNsVZAljm1fgL5vkb5tNzuMIE1DMFgfVgteRjAWEajpJ26+c2tN5RShUOh+jMhEs1wSP5RR0fH5pwVzpK0V2ApcHAwGKwsdFzNoEl7lY6lznx8MBwIfwTAqRlOjH+c0z6m6fcxAAdF66LeQsXz0UcffVNULwBgm0SGpYjZsOsJFOmeNBvv6up6LR+FSyTUMYc8iGXsksDiqYYOM2nJmnU1TfH5A69XeBV6IYBniqXsCqxX6IW+xfEzqm7py/oYWVtbOzIUiCwwgjYAuT/ARoUrsCiHN864Ank6QKUAjohXei9kI+/m/pEhyHAC749+SFT/AWB/RoOguCAUiHytZMYNg8xWXwle2T6w5brctoXJaJm9GE/BHyM0yg3c3+pjCvl+pn2sf3Dr73M89c6ojyXcpqB9rK2rbTkUn7XNfadY3bb7bg+FfAAOSHP8fyp/F4ZJf/8ruyZoVGzx6LYlTGA51ZSlqwdqmnpv9h0Rn6Ywpwtwj50nuwJp9qiZWtPUe3Mu3j8YrJ81onzUfwFclq85oFrCFViUM9W3xB6H4k7HTi8VV8cavCPY0u+7r6F0RfyRAGBuQ3Ef607Z95OQP3SG0ysZDEbOBzSjx6FE9YcrVqzYlsvypeDKbJ8IMcfbILzpP7rkwNUDoUD9HGT6WKfBglz3MXGbDPci0YL3sfau1hsBfN8O7exJif1WYKUy2KtMNK8nEKZ9SdgwQeP3+w8CUGmHsiSR5COEDifzYd7aJ8uCnmjDfbL6ADnL1xQ7p3JJX9YfewyFQgeGApHrRfU+5HnLE9VBrsCinHK5zBUAHLmVBgRV6pbPsZXfjQmsNIX94VOM4P5sHjFLDrqexFoUqYtMcWoFp06dWiaKKzO9QUtq8o+5LuP++494AcjgiOlCnhL3ThnSTmCVJayVTutjgM7P8OUvp5DI+eO8r7322upMbpbEJqddtne2fhdAoTc/TW1ObO61W/9TK/1TQCWPSWTJJMltXLYbI9xw2+XxwXWdnZ3reftSOrxNvf/xNcUvSSXcE3fuk/VqIYccAW4YUdF/VHVT7K5cfEDIX98AYz0HYF7+a4etnZ2dG9jrKJd2HHAgTY6toOgVL8yZvB9betcJNw1ZIBA9FiL3ARjDaNAe7G9cuL22tnakEyt3wH4H/S+ASZndpek1XV1d23NdxqVLlw5kdLqZSqFXx1gAjknzNRtb/tXyipP62IH7H/LZTPsYIN/PRx9btWrVIKAZPP6mx9slzu2drT8G5AIA2wtUhD47biwumTzGa+VtBZYo0t6f6/Wurodtlyg0Fjdwp8Ka2Lz2lZqm+PwyV6JGgUsEeDbPRVgtFk7zNcUvGXvjxqzv2RgOh8eHgpG/QfSvKNRevTs2cFf2Nsq1JJJXAhhwaPUOKdP+r7KV3z1hoiHw+6OTLZgHFDiY0aB9mDayfJTjNnWPRqOjReSKzF6t3W+88dqNebxpymCTbT0yGo1WFCq+gcBpEwGMTqvEcNYG7tFodDSg38rw5T1j9h/5p7wVNrON3I/w+/22efS8vXP5QhUrIsDqAnx8zJ69MO0VWMkxY8bkZeIbnR6tAbBfmmOEPTdwV7FFAku4/1XJO2zhuq01TfEbvEfEp6qaj+bhVLOkAD8eeL3iWN+ieEsuunUoUD9PU/IsFB8v6PUF8PFByotJTS93A/iDU+snwNdemj3xULb0DkxgDeWmsS7qdUlqGYDxjAYNcdIwJ+SPXOykOqUS+k0A4zKc7H9vx6qVvMlkjyK3GTBHFyq+lqbSP4FQnJXASg6arwPI6AtaRK9ZunRp3v76JlZGfczlcrmOsVPMOzpaHneVWdOw41GaPP71Um23gXttba0HwBFpDvbP56vfJSV5bPrXhU0TWLDHCiw1TGDRzj45H6ZmSd/d1U2x040xJwqwENk+tVXxpMKa7muKXz5l6eqsjxuBwGmHBwORZYBejzST3Tm60JnAorwZdCWuUWCzQ6s32o3k5WzlnfMfhmDv/H7/iKTL3AFIDaNBaX5x/y48PXyiE6oSDofHquqlGd6xvegut27Oc/Az2mRbpXCPeEkGj9Q4afIVDofHAvhKZnMCrH3tjdfy2scMNLON3FPW8XaLfUtLS397Z+t8t7GOguB6ALlMNq+DYIHbuL5ltziMKht1FICytK7bPCaIMtmfy6ZjRCaPQubmOhZhAoveZ8Itff/2NcUvSCXc1Tv3yXptmG+5XYGr14859OSapp4V2S5vNBp1h/yRL1uafFKA0+wSR1WeQEj5M3nhuvWi8lvnziv1f9eeXzORLQ24GYK9dxUXPDcBOImhoAxUwJJbZ9bOPGnZimWbirkiauQqZLz3m3V1S0tLXk8HETXPqUj6k5kCbrKtGey946TJl0nhu5LpX4wF8/O8wg+A9VxGW3vY4bCAPWh5pGUtgM8Gg8HvWeqeq9DzARw77OsReFUF/1Dg9v7+rXfbce8rADAZrArSvG7gnv4JhC4bPkIYrYtWJWFSAF4v9Ffb6C3lz/BWhfZkYvPaVwDMX98w9mfbPeWNAL4qwJFpdrN2l6Wf3rHRdDzrZQzXhY9LDpo/QWw4V7HABBblVarc9RPXYPISAAc5sHplVir5XQAXl3o7M4G1F6FA5BoA5zASlPHdMTC5v2xwIYCPoZg3shTzEwh+kclLx48fn/dHhV5787W2Aw888PB0X5dMlG8tWF+R5HdEZEE6rxnYvt0xjxCKpT8D9FeZvLayAH3sjTc2dmTSxxIF7GND1dHR0QfgJwB+EqmLTDEuORWi9diRZJ0CYG97xSWheF4ET0FkZUrxz6qqcY81Nzen7F7visGye/tH9KfVpqq6IY/XyNdV9btpzR/d7h67xbnl0Za4QycX5FDjmjdsAXCDzscfe56r/IiI60uAztzHyzYpcFX1Eb2/kfkw2S5TNBqtSA6ayxW4AmmuHM3bfY0m+Qgh5dXEm9a+0T2n6mei8kNn1lAu6J5T/bOaxT0l/ccXYVffvZC/vgGitzJGlCVfb+9s/TnDQETFft8QrYtWJT3Jg62UNcqoNdISs03d+kYy6dn05pvrNuR/NRwRUX7FzvPWqUu+CtWPA/Ds8iMjwGK4cYXv5nhOTgANhaIhGPMHAEfZOUbuMmtMS0vLFvYWyqdXzj901KDxrIbiMCfWT4Hba5rinyzpG1F28919MYTqYKwW7P2vzETpSIjRU9seaetgKIiIiIiKX6zBexDc+LCKVgPW60jhgepbYy/m4rPq6ur287jKrwHwBdh9H2PBK+0drTz8igpzXTZ6v6DAbxxaPYVIXfXi2L9KtX2ZwHrfl8OMQz2uxL/BEwcpB+PpYNJzwmOPPfQqQ0FEREREQxEMRj4siusA+IpkgtnV1tkaYMtRITw+r9Yzbsu6ZwFMcmYNZVl1U+z0Um1fnkL4nniUuRI3g8kryg1fuTtxM5g4JiIiIqJ9CAQC40KB+iWiuBdFkrwCABVu4J6JaDTKp3+y4KQbViRU9HvOraHO7J5TNaNU25cJrF2Eg/WXK/BBRoJyNtwAHw4Hw5cyEkRERES0JyF/fYMF99OAnleEN7zcwD1NwWB0enIw9QNGIjuqB3sXAVjl1PqJyo+0RBdFMIH11pdEKFSnqvMZCcr5d7rKjwOBej8jQURERES7CgaDlaFA/R0Q/SuAscV5s8sVWOkIBKLHipr7AJzCaGSHNCMlwJUOruLJ8Tnes0qxbZnAAhAKhQ5UY92Cd58iQpQrHgt6i9/v5zHiRERERAQAEgrUzxN1PQtocU9MXRZXYA1RtC7qtWDuA3AgINPArUayxtcU/xuAR5xaP6P4kUbhLrV2ZQILEBjXjQJMYCgoj6pdUnY9w0BERERU2vz+6ORQIPIQoNcDGFP8NUoygTUEp5wy4+CkyzyId/Y32z8SiXgzfb/YHO+s7kbv/LXnVQa0AS5GGFCY7zq1bgIcGav0zS21Ni35BFYwGL6k6P/KQcU6pH4yHKj/HONAREREVHqi0ag7FIhc5hLzFIBTHVKtxPjx43vZuntXW1s7ssyd+DuAo3b976mUHJvxmxqcLMBVlmV1xDzejd2N3tu6G73z1pw3YUKpxrmmqW+ZAA87t4bmqhdmTS4vpTYt6QRWKBSqFpWfcAilQlHoL0KhUC0jQURERFQ6AoHTDk8mzAoACwA45vQ5Abqbm5tTbOE9q62t9YwoG3UbgMD7JueKaRnPK0S27fLPAwT4hADXu6zkmp5G73Pdc7y/7p5Tdcb6hrGjSyrgBt8CoM6snEwoO7D/klJqztJegaXikGW6VMSDzovGuPklT0RERFQiotHoaAvJB6A4znHTK3AD933d/I+oGPVHCGbtPn4m4xVYIrq3U/eOEMUXReXufk/56z2N3sdjjd4F3bOrQzrf2TkB3y3xRwH83bEdCvjOhosPKZmcRskmsEKB+v8HlQ9xDKUCfsUvHLmlvK6zs+U/jAURERFRaUgOmksATHLobJr7X+1F0F//Yygu2OPsAJk/QijQp4b4q24AtQpcJmLaYs9718UafX/tbvTO6z2v0ufIwLvkOwCMQ7vV2O39Iy4tlWuoJE85iJ4cPSzpMc8AOJDDKBXAFoF+rq2zbRFDQURERFRaQoFIC4B6h1bv8vbO1h+zlXfX7vVfBfTn+/i1/vFVh47O9DHMnkbvqwCGe9L5SwIsM2ruMeVlD068aW2/E+LfPce7UBSO3PRcgc0JV2Ly5IXr1jv9OirJFVhJt/kdmLyiwowuzxhYfiaviIiIiErW0c691xWuwNqNkL9+NqA/HcKvVvT19U0eRgM8k4XiTlJgnoj1d9dg8rWeRt+D3Y3ey7obq2u1iBfAmJT7uwAGndi/BBhTlvJ8oxSuJasEB48GCM7mMEoFGFmud5dbtZ2dLU8zGERERESlJxqNjgYwzrEVdKWYwHqPsD88A6J/Hurc21Jr2jA+7qksF38EoDMFWCAwj8caq15+63HDtXNrxhdTO0y8Ze1aQP/k4K72Bcc+AroLdykNHn6/fwTE/LREn5ykwtkMlUvaO5cvYSiIiIiISldqe2oSXM6di6RSKW7ivotgMHqSqrkTQPlQX7NzH6zbMvpAtZ6G5PLAPTlUoQ0CNIhJ/V9Po/ffAiwzMMu2JA5sndq8ytYrnIzlvsYyqQsBjHRgd6tIivVdAPOcfE2VVALLJZ6vAajhUPo+SQieUZUnoKbHEmwEsEGNa+OOC91Ylsr+IsalKodCtBIqkyE4FsDhAFwM4R49kVLr3K6ultUMBREREVGJc2Gig2u3qaur6zU28g5+f3SyqLkHwOh0XqfAscPoX0/lcatyCzs2g68VWJeN8Wza2tPo61LoMoh1d83inmfs1iYTFnW/3D3b+1sRfNOJfU4EF6+ZXfmLiUv6nnXqdVUyCaxgMFgJxWUcSt/u3k+K4G8G8oAxA092dXZtz+Rd6urq9nO7K4IwONUS/bgCkxnbt7589Df77T/6G0uXLh1gNIiIiIjIKCaKcxdgcfXVTuFweLxJmQcBHJr2LA3I+BHClNv1lGswqSjMI0ejdj5uOBNqFvQ0endsBg9dZso8D068ae0btrgGy90/cg0mPwNn7ontconMB3CeU6+tknmWLhio/7NALyrxsXSdiPw+aaQpVyuCIv7ICQb4PARzAFSUaJzfUMGnOjpa/8avbyIiIiJ6Z04S/rVAvujEuilwe0dn6ydLvY3r6ur287jKlwP4QIZvkUppYkxXV2YLDHoavTEAXpuFJQXgP289bljd19ciLUgWqjA9jb7vAHqNQ7ugGsucNGFR3xNOrFxJbOIenh4+UaAXlPA4+oIqPususya0dSz/Xi4fZ2vtav13e1frp8Wl1SLybQAvl1isH3Mb6wQmr4iIiIjovQQyyal1s4QrsKZOnVrmcZfdjsyTVwDgEik/chidzI4HRrmw43HDywTWg7FK7ytvbQbfd0Fldb4LU+Ya/CWg65w6zFhq/cCx40xJjCSWXIMSPHERwDYAV7++6dVjO7par29paenP1we3tbVtaOtY/sPtA1snA7gaQL/DY60Afv36plfDLY+0rOXtGRERERHt5o7RsXtgqUqpJ7CsA/c/ZDFUZg73jVxIHZt5F8v6SYS5cPDOzeCvTyat7p5G74uxRu/13Y1VDRsuPmRMrj/8sIXrtirkhw4eZz4Ub6w61YlVc/weWOFw+BhNYVbJDZ+CO9xJ60stj7bEC1mMFStWbAMwP1IXWWzc+muofMh5ocarasn/a29ffjfvyoiIiIhoj7eNggnOnTTLS6XcuMFA+FeAfjI7oZSpmb9Yny7CnYImKTBPIPO291f09zT62hW6DLCWVTf1PCE7Fgtk1ZbE/teN8Wy6FHBmUtlAFigwPRexKyTHr0rSlHwNJbTXF4ABVXy2vaP17EInr3bV+mjrC+0dbbMAuRjAdsdEW9AhbpzA5BURERER7U0wGBwPYKRj511WomRXYIUCkflZ3dvMIOMElhp9qsjDWbFzM/gFAvN4T+M7jxv2nOerzNaHTG1eNQiVaxzcLU/pmV15htMq5egEVjAYrAQwt4TGzl4VK9rR1Xq9XQvY3rn8z7CMX4DVRR5rBfDr7f1bT21tbY3xloyIiIiI9jrxSlkTHVw94/F4ukuxXUOB+nkArsry22b8CGFi08hngMJtkJ5tAox763FDWNrb0+hdFWv0LuhurJz5wqzJ5cN5b18ydjNE/+vUvimwfqjznZXzcXQCS+D6IoCy0hg65clEylPb0dHyiN1L2t7e/mT5QNlJAvy9SIO9AWp9uL2z9csrVqxI8HaMiIiIiPZFLWuSg6vXl8/9du0iGIx8FNDf5WAiOyEYDGa0F9SUpasHIPqCg8N+zFubwZcf2L+xZ3bVXT1zfJ+PNXqnpB3mZqQUuNK5KQIcG3/O2+ikKjk2gVVbWzsSis+WyNj5xGDSPePRRx8qmpMUlq1YtumwqkPPVshNRRbr5SqpD7R3tdzP2zAiIiIiGjp1bAJLgZLb/yoSiEREcStys6+0qLqPyvjFRlaVSDOMhshHofpbBZ7vafS+9NZm8N2N1QcO5Q2qF/feDsCx8VLRa1Y1THXMoh7HJrBGlo/8KIADSuCifWIw6fngY4899GqxFby5uTnV0bn8YhH8qji+l/Hr7QNbT+/o6OjjDRgRERERpZVUcPAJhJaipPa/CgSixxrgTgAVOZyoHzuMlz9VopfZxJ2bwf9VYDb0NHoff+txw8fn1Xp2e10CCpWfO3jkmTDG/eanHTPWOLWZVKXR6VenAmuLNXm1azXaOlq/AsEC+17zeEVUT+cjg0RERESU8U2vYJKD61YyCaxIJOKzYO4DcGCOo5r5SYRWySawduUCUPvW44bjtqx7Ldbovbu70TvvpcbxNbv+4vox4xYB6HFsJES/88r5h45yQlUcmcDy+/0HQfA/Dr8g+yFWQ5Enr97W3tF6BQS/s2HR/imWntjW1fYQvwOIiIiIaBgcvIm7lMQjhNFo9BCTxAMAfHn4uMxXYCme5uX2PqMVOEOA691wre2ZU/VMz2zfL2NzvLMq8bJHRX/p4LqPH0h6vuiEijgygWVZ7nPg9M3bFZ/v6Gh53ElVcnusSwHca5PipFT1yvbO1pltbW0vc7wnIiIiokzNmjWrHEClYytoieNXYNXW1o5MDZq/AzgqTx+Z8Qos7xHxFwFs45W3t/m0HA3RS1VxX3KL9ZooPgEHnd74XiL4+oaLDxlT7PVwZAJLIHMdfrW1t3e13ui0WrW0tCS3D2w9R4CuAhdlnYrM6uhquwaA4ehORERERMPx5ptvToCjt29JOHoFVm1trWdE2ajbFPDn8WO9oVAoo8cUZT4MgGd45Q1ZOSAh5GZDfrs4uH97RdEfcue4QbSubsahUAQc3PHUwPqmUyu3YsWKbUZSnwRQmBMVRe8Xl07r6Fj+IMdxIiIiIsoO9yQHV66/o6PDyU8sSEX56BsgmJX3D07KMcOYNnIfLHp3jxD9Wt+8ypHFXAfHJbDKXIOnAhAHj593dXYu73LyhdXR0dFnAY0AUnn82CSAy9s72j7c1ta2gcMbEREREWXtDt6okxNYa7DjxG5HCgUiPxXoRYX4bLWsqcN4MffBoveORIcmtlhFfSKh4xJYCjnV0V1OzXWlcGm1drY+DGB+nj4uDss6tb2z9cdO/vIlIiIiokLdxDt3A3eBc08gDAfD3wDwtQLObjNOYCmEK7Bod9frN16YNbm8WMvvxOewT3VwZ3t12+C2h0vl4mrvbP0hRO/P7XcC7h5Mej7Q3t7SzuGMiIiIiHJ0I+/cFVgKR+5/FfJHGlVlQWFDm/lJhOoSrsCi3fGWHzDQWKyFd1QCKxKJ+ABMcWpPM5A7VqxYkSihi8ukjOfTADbl4L0HAflae1frxx577KFXOY4RERERUc6oc1dgqTjvBMKwPzwDgj8Xer4sw0hgTVjU/TKA13jx0fs7ln6uWIvuqASWSeBUh3e0klsl1NX1cK+Ifj279w9YK6rh9s7lvwAfGSQiIiKi3HNsAgvqrEcIw/7wKQq5C0CZDYozLhAIjBtG26zipUe7cXLPeb6TirHgjkpgCXCyk3uZqjxfildXW0fbnwR4IDvfr7jLaKK2ravtMY5bRERERJRrp5wy42AA+zu2gq6UYx4h9Pujk1XkbghG2aVMbrgzXoUFESawaPcsvbAoi+2kNjCCY5zcx5JJ9/MlenlpCu55ADYP4z0GoLi0o7P1411dXVxKS0RERER54XYnnXwCIRKJhCNWYAWDwUpLzIMAxtmpXEYxLdPXCpQJLNqTczUKd7EV2lkrsJydwOov5b2aOjsf7lbRb2U2cGO1GA20d7VeCz4ySERERER5naOokxNYGx999NE3i70SdXV1+4m67hVggg2Ll3ECCxa4kTvtydj4eO/MYiu02ynR9/v9B0FxmIM7WKLUr7COjrbfhwLhcwEJDfmGAbh1MDUwzwlfrERElNf7ihEul2s84K5ESscDWgnBWBGMUtVREDkABqNVMEoge3nURBWib0CtNwB9U1U2ieibIrrJQPpcBrEE3N1dXQ+/DMAw8kROpJMAcWTNBMW//1U0Gq1IDJq7AXzApkHOOIHlSpmnk2LxEqTdj0yCMwDcX0xldkwCy+UqPwbG0fd9I3Z8R5T0CiKjYj4t6noSQPk+frcfisvbdqy6Isr1jc8Bg4PWwUDqIMvI/gAgVmp/VcsCdAREKqDaD8h2ABAxqsb1hiVmGxSvWynr9RGHjHh96dKlA4wmUf5EIhEfkpiSUkwRwRQojgBwOASVAA7YkU4y75p3qu6csumO/7fjR7rPO8S3fkdEd76PQAAYAVxIIhSIJADtAxCDynMAnrIET1ll1sqWlpaNbC2i4iUOPoEQQFHvf9XQ0ODq6123SICIfbMMmIodT06lPdmtXNK3safRuwHAWF6JtBsfLrrx1CmRDwfqP6PQG5zcuwaTnkNK+THCt9vaX/9DFb1iL936OVipc9vb25/kmETDZEUikRozaB0OS32AVgOoBuDb+X8HAzgIgCtLNyhbIfoKID2i6FHBWih61JI1lmWebmtr28AmIUpfNBp1p7anjoELJxrgRBE5EYrjAYwukiq8LMBTBvo4xGoHku0dHR2b2bJExSEUDD8IlZlOrJuo/Kita/m3irX8YX/kNyr4gt3LmVJrSldXy+pMXtvd6H1YgFN5JdJur2ELU3yL4quLpbxu50QePqevTapwJY4E0FnqF1kSg9e44DkXwG72E5DbKgY8n162YvkmDkeUzggSqYtMTrlxgiiOEeAoBY4EcKRJYgSsPK3uFIwC5HAAh6u8/d8gqtCUIBSIrFfgaUBXWYKVKXU90tnZ8gz42BHRu9TV1e3ndpeHRBEBEE4OmhPhkoqdl1QxrmUer8B4gXxwxxIwVyoUiPxbVdosMcvV0tb29vbX2fJENqXi3D2wpHgfIQz6w1cXQ/IKAFzQaQBWZ9ZEWAUmsGgPjFF/pn2rEByTwFLoQY7vXCIngQksdHV1bQ8G678gqvft8p+3QfHF9q7lN3IYon0JhUKTkLKmQ3AiVGshcoIB9t/5ZI+d57bjBDgNkNNUAQsGoUBkE0S7BFaXpqTTXYH2lpaWfrYylZJoNFqRGkjVq+CDgEQAnADN0spIu85lgJNE9CSFfAVGkqFAZLlA71JL72pvb+9hryCyzfjkTg4an1Prp0aKMoEV9EcuEcGVxVJesTANwB2ZvVhXQYUXI+2+e0BOAbCwWMrrnBVYKgc7fXsohZ4G4Ne8zICOjuVLQ8FIMxQNUDyjVuqcjs4OHhNLux2XA4HoVAsaAUwIkAgMqt5+gFqK/gt9f6h8SKEfgqVIDmJbyB9ZLqJLJSX3tz7a+gK7ADlRMBistNT9EQP9SHLAzITsbSN1x3MDmKGQGTBybShQ/wSgd6qkmjs6Op5jbyEqHGOMD4DHuaNPsuj2wAoGIx8Vxe+Kah6omW/krsb1tAgX69OecgyoLbYbHqeE/mDHz8KBD9bV1e3HE/XeuthSl4q41m8f2PrNFStWbGNE6C1+v/8gy/LMFNUPAfIhwIx/+ypyvpEQzFLILHUB4UBktQK3W4pbW7ta/83eQcUsEDitxoXUuQqcA9UTFbojBc0/LL/ndkFrAdSKuq4JBcLtAvxpxJYRzQ+sfGArw0OU5/vVhE5ywB/L9iS1ffv2WDEVOOwP16viVqDoVulmnMCCgH/kp705vMhucpwhFKh/fOcNm7PvSkU/09bR9kdeZ0Tvn9haSH0CMB8HxF+ENyb5GEGeUzW3ulRuaX2k9b+MBxXFZCMcHq8pq0Gg5ykwHUxXZWqzQm6FyJ86OloeYTgoa/fgodCBAI4AXONUdZwoxgMYC8g4hXpEdMfpvCqjFFKmUEuA/XfOREZC93my9FD0A9i+l59vBWRwjz9V/XV7V+vNORnDnHzQlGJNe1dr0ezvFfFHphnBcgAHFmG0UylNjOnq6tqeyYt7Gr19AMZzxKLdGVHRv9/YGzcWxeEwTtoD6+BSuKNVla8BuBHctJkIkUhkokngXAg+ASRPws67YdrjCHKkiFxpBFeGApFHVHCdMYm/ZnozRJQrtbW1npHlIz+qkM9oCjMBdSnDMlxjBPppqH46HIj8C9Aft3W23cH7CUpHXd2MQ8tcgycp5AQoTlDBiTCY8NbduLzn7nzHoQmy81+7+Z28Xth7+TCRA3L4sROdemuiRbSBeyQSmWiS+AeKM3kFAC63uo8G8ESGrfU0IExg0W5tGxjpA/BMMZTVMQksQVb+elMMjgoGI+d3dLT+hZcalebNc91+Hqv8LFh6vkliBoQZqwxNF8V0l3iuDQUit0pKf9f2aNtKhoUKOsGoi0wxLnwKwEUKHMqI5GwafzIgt4UCkZeg+HUKiRuYyKY9sEKh0Akw1kwIzoQmAvrW83DioD8ZaSpn+zipYKJzu4cUxf5X0Wj0kOSgLgW0qBM4xiXTkGkCS61VED2dQxrtjgup/YqlrA7aAwvJUulgovjhzNqZdy5bsWwTLzcqmYltIBJRYJ4CZwMYwdNUsmZ/APPUJZ8J+SP3W4IFrZ2trQwL5XWC7A99GGJdaoDTwGWU+TQJgl+54Lks6I/8wiDxOyayaMc1Gf0gJNUIyIdgMHbHBNi5FVZLc7iSSCc5tqMUwQqs2trakalB83cARzpgDpjxPlgCXcWVzLQnBhYTWHn/4gFSJXTHW7m9PPFbAOfzciMnq6ur28/jqjgPop83iuMYkdzeF0EwywCzQoHIE1Bc297Vugh8vIhyZNasWeWb39h6LkS+CehURqSgxovgpy54vhwK1F8zvmrcn5qbm1MMS2kJBoOVoq7zobgEYiaWUC5Z+/v7c5mIcWwCS429E1i1tbWeERUjb1eF3xk3asNIYFn6tPKPv7TnzlVRLEW1nBJzq4RWYO3oYzo3GIxcyKuNnMjvj04OBcK/91jlfYBeDyav8u1ECP4SCkSeDAYjZ4MrYiiLTjllxsFBf/jqzZu2xiD4C5NXtuIF9Pq+3nX/CvvDMxiO0hDyRz8UDkTuFXX1AFgARz/ytluv5Oo062AwOAbAIY6NnCtl50cIZWTZqD9A5UNOCbcOI4G1HSOegaPXUdKw+lZKimb1teWgC7rkVgmI4rpgMHoSLzlyivD08ImhQPhml5j/AvI5CEYxKgV1rChuDwUijwSD9acyHDQcfr//oFAg8v0yd2KNiFwJ7Hwsiex3fwGcoCLLQv7IfcFg8EhGxJlC06MzQ/7IIxCzVIEPo1RP7xXkLAljJS1HJwONMbZdgRX01/9cBU77Y//4U06ZcXAmL5yyePWbAOIc+WgPg9W2oimqg8JeikvdK0TN7eFwmJMAKmrBYP3poUCkVS1ZAcj5cNb+fE5wiqg+HA5E7g3XhbkajtJSV1e3XygQucwlnhcBfBvAGEalaCb2s0RdT4UCkQVTp04tY0Cc0aqhUP2Z4UDkMVjmQQjqSj0gqpKzJIxa1uEODt2Wzs7O9XYsWDhQ/00R/YoTg15Wlpo2jJc/zSGQdselsrVYyuqcBJbizRLtb9Vq0NTQ0ODipUfFJhSKhkKByMOi+gCAMCNi92EWH1aX/DsUCN+c6V8AqXTU1taODAUi3/G4ymMAFgA4gFEpSh4Alx14wMH/CvvDpzAcxSvsD58SDkQehdG/7ziJkoAcb0Tu7Mcxbbn6KuSPNCp0gVODLiY1YRgvX8UrnnY7DqoWzeo85ySwRF4u3VmlzHy5d90PeOlRsQiFotFQINIBY9oA8NG0IvuOA+T8MndiVcgfuQDcH4t200dC/vqGivJRqwBcA2A/hsQJ9xo4TkW6QoHI9Tv39aGi+c4NHRgKRK5VkU4mrnbXt03OHiEUVccmsMSGCayQP/ohCG5y9L2J4MBhvJgJLNrN1zs2Vy7p21hEExGnMC+XeN/7ZjAYOYeXINlZOBw+JhSovxvG/BNAgBEpaofu3Oj9n8FgkJtw045r3B+eEQxEHofoXwWYwIg4jgVgHtS1MhiMTmc47N9eIX/kAhjrOQBfQqnucbXPfIC8lMM3n+TgwNlqA/dAoP5kiGnGjlWjzjWckx+FK7Bod93C3qeJ7u5GxBFUUeoJLBHFHzmRJFtOasPh8aFA+AZNyUpAz2BEHKVe1PVEKBD5djQa5d5lJSoQOK0mGIjcqSLLBDiBEXH8ze4EUdMS8ke+DK7CtKVIJDIxFIy07jjpkwcm7JU7d5M3hXMTWLncOyxdoVDoCAt6L4DRDu+tbyaRbM30xWXW4DMAkrzo6T3j1FPFVF7HJLAsq+QTWAAwBuq6JxAIjGMoyA5qa2s9IX/ky5qSZwH5DPjXX6cqA/D95KDp8PujRzEcpXeNW0g+LcDHGJGSUg7Br0L+yF3cE89eQv76BpPECiiCjMY+DbS2tvbm6L0FTl6JqilbrMAKh8PjkbLuR2kkan/Y1dX1WqYvPmzhuq0AHudlT+8eqKSjmMrrpE3cmcDa8U05wYLr9lmzZpUzGlRIwWD9qSPKR/8bgl+Be+CUilNcYv4dCkQu48ESzhcJRCK7XOOjGZGSvfE4s8yd+HcoFA0xGIVVV1e3XzBQvxCifwWGs09OSXXgtQBMLt7Z7z+tEkCFUyOnlhZ8BdbM2pn7a8pa6vDN8t/qq3e2d7b+JAtzxd/yuqddWZbpLKryOibyKcTY/d4emkJvbtp2HeNAhRAMBiuDgchtovowoHyktfRUAFjwcu+6f9TVzTiU4XDkNT4mFIhcb4AWXuO0kw/GPBQMRj7FUBRGIFB/ssdV/pRA5zIa6dwym5wlYSwrNcnBkdP+/v6CJrCmTp1a1l8+2Azo8c7vp+gYuaV8LgAd7lt5m+JNIrgMwHYOAARgQ9VA79PFVGDHJLBe2/LaswAG2QffGuf0onCg/se29V8AAHwjSURBVJuMBOWz24X8kQtEXU8J8AmGo+TN8LgSK0PTozMZCucIBuvDlrqeADAP3PuI3q1MFH8MBSLXwlGHBNlfyF/fYEFbAFQzGmnSHG7gDnXyBu7rVqxYsa2Qc9gDDzh4EYDTS6CXPqZIzXpg5QNbs9N0UN/i+E9SZe5KVf0sgKUA+jkYlOgQCNwlzUgVU5kdc4OxatWqQQDPsRvu2iH1R+FAmHuSUO5vnkOhSaFA5MGdm8UexIjQTuNgmftDgch8TmiLW21t7chQILJAVFsUmMyI0F58KeSP3FNXV8dHx/OQRggFIpdB9BYAIxmODO6VNXcbuIs6+LE2LewJhKFA5BdQNJRAF30qpYlZHR0dm7P9xhNvWvtGzZLe66ub4h+WBA5SNR8V4AYAfRwZSuhLBHJbsZXZclYDYCW74bvbVyGLQqHQ8QwF5e7muf5LMNbTAGYwHLQbLgBXhQL1d82snbk/w1F8AoF6/4iyUU8DuAxMRNLQbshmeVzlyyORiI/ByI1oNFoRDkQWAljA63JYM6GXcngdODaBpZCCJbBCgch3AHy5BHrnC+6E9cHhbNo+VL7m+PaaJX13+5ril/iOiPssUT9UfoQiO52O0r6S121O7PfP4hu2nXXHxATW+42Gse4LhUJcVk7ZvXk+OXpYOBC5B9BrAYxgRGgfX5Jn9JcnOiKRyETGonjuEUL+yOUWtLU0NsilLPuASaKLJ5Pm4Ps3Gj0gOWj+qcAcRmOY30xqvZTDN3fsI4SWoCD7X4UC9ecD+F4JdM2Ygfv0ln+1vJL32fR8GO/i3keql8S+Vd0UPy6J1AQFLhHgHgADHDUcNP5BrpvavKrotmByVAJLlQmsPaiEWndzOT9l7QbCH2lMesx/Ffgwo0FpjNJTTRKPBAL1fsbC3sLh8NiQP3IPBD8C4GZEKENVLjHLA4HoBxiKLH3/hkIHJgfNPwBMZzSGb+SAO4eJGHFsAiuXj17u+d4zdAagN8L5+y+uU0md3tn5cLcdCjOp6eXumqb4Db6m+Jnu0eadRw0Fr3AEKWqDJuEuykPfHDUA7PyL1EbseGSF3v9t0zLmgNEfWrp0KbPnlOk1VpEcND8G8CVGg4ZhQKCfbutsW8RQ2HCCPD06E5ZZBICnSFK2vCaqs9q62h5jKDIXCATGWeJ+EIrjGI2sTIJebetsPSSH90tb4dDHO0U12tbVtjxv30uhUB1S1kMQjHJ4t9yokop2dHSssv20sgGumMcXBPRMBc4U4EiOKkWUFgD+WNMU/0wxlt1Rg2pLS8sbAjzBLrmnbxuJbt605c/gyVGUgXA4fExyUB8Hk1c0fOUKuTkcDH+FobDXt0QoELkMlrkfTF5Rdh2kkIcjgchpDEVmoidHD7PgeZjJq6zK2eODpt9MhIP3JlOX5m0FVjgcPgbGuq8EkldvqliziiF5BQDSjFR1U6y1uin+jZqm+FEK63AFLgVkGYAEhxdb2+42pmgfxXXcwKqCh9gn9zrczA4FIt9jHCgdwWDkQk3KY4BOZTQoW4ORqvwiHKy/kqGwweQ4Gh0dCkZuxY4NobmKmXJwxWOUAe4OTY/OZDDSvj4PSXrMcn4HZ3nOkMPH4NRy7v5XABLjx4/vzccH+f2nVWkK98H5J1xvs4AzOzpaHi/WCtQ09bxU0xS/tropdrrCOlSh5wiwEMAbHG1s94X8y6pb+mLFWnrn/WUgZTGBtW/fCQXq/5dhoCHcNLtDgcgCUdxUAn/5ooJMIPTqsD/yG3BlaMH4/dHJyUHTWSJHklNhjYRl/h4M1ocZiqFen/4RyUFzF4AjGI0sT+EgL+bqvY2zD75Y29zcnMr1h8ysnbm/S1L3AlLj8K44qCKfbO1sbXVKhWqael6vaept9jXFL1g/+tBxKjpTgGuRw1WPNNRxD90jKrYvKOY6OC6BlZKBDgD97J77nDZeu2MzRKLdi54cPSw5mPongMsYDcrpaCT4Qtgf+T2YxMq70PToTJeYxwBMYzQoT0aI6l0Rf4R9bh8aGhpcLsuzGECA0cjJTC5nK7BEHZ3AynkSwu/3j+gvH7wb0OMd3gtTAp3T0bF8qVMreNINKxI1i3sf8jXFL61uih/+nkcNkxyI8nvLrSLzxt64cXMxV8JxCayurq7tAJazf+6TG2LdGp4eDjIU9F5hf/iUpMf8C5AQo0F5+UYVfDYYCF/LSORPMBi5EJa5D8CBjAbl2YFGsCwUCnFV0V68El/3Kyg+zkjk6HvHSA73cbIc+wih5PgEwoaGBpcLnkUAnL5S00BxQVtn222ldN3t+qihJ5GshMrFAP4GYAtHpZyPetdVL449UOy1cOjmgnIrO+iQjFRL7g2FQsczFPSWcCD8CRX5JwAvo0F5HbkhXwwFItcwErkPdSgQmS+KPwPwMBxUIONgrKXh8P9v78zj46yq//85z8wk3WlZCqV0BUEoIhAhnTVjKcWAbEoQVFAQQUUFcQH9fVVQcV8ARQVBQKAoVVS2sLTwZOaZmaYYZbEurIVu0FK6L0lm7vn90YCFJqVNZibz3Ofzfr36etGSzPPcc8+595wz556bHEdR9LYXN31FBZ+lJCpIuFi5SiKxuAeWSEUTWC8veeUqCD5geyZBFZ/xCpnZQTbBcXNeXjnxjsU3TZy95IOluvBeCnOsANcAWMIFqtw+Nv4h3fJFS8ZiH42NjaMiofpXAAyhuu4Uy8LGibvz3UUURbBJRFMXQfBTWHxzDvHDxiSXZvNtP6Qkys+0adPqxoze4zdQnE1pkBqx+CfCdZJ2XXcNZbGVZDTZpCJzAYQpjYpR3Ny5cVhHR0dFbktLxFLrAIy0c4/WlkpVDSXjTd9S1a/brnyq+HKukPkxzbBvXjxz4jSIaRHg/QCOBNtMDETjXnEE79nv9qVWJAatVYRErOnPgJ5Chd1pRXi2qxRJtLfPe4XSCB7pdDpc7Cr9EpBPUhqkFnZaET0/m8veQFGUj1mHzRq+acSWPwM4ltIgNcbD4TrneNd1A98PJRaLjXUQ/geAfakWldxl8IJXyFSkSiqZTO6lJVlhrewc8x7P8zrK/bHxaOoCEfw6ANr3dS+f+Q6NcOdZdNakKVIqneQAJymQApP7u7DUYX1IdNZ+ty+db80SZG/0o3dQZXdJuQ+IhLrvTafTIyiNYNHQ0DCs1GX+yuQVqSFEVX4Vjzcx0VIm0un06E0jtzwIJq9IbXJsd1fppxQDHAfh28DkVRV2mco1Ile1+PjgVsouu3g8dZIIrrVe7QRXMXm160y+9cUXJs1ecvWE2UuOUThjFXq6ALcCWEvp7JBNjoOTbEpeARYnsLZs2XgvgPXU213iPcUuc1dzc3M9RRGcoHZo/bAHFTie0iA1RlhU/xiPx6dRFAMjFouNLXaZR6HgpR2khvMJ8rlkrOnTQZZBMt50OZhkrhJasQSWGLH5BsK1nuetLqveR5NNovgDgJDlSvfbbC5zCW1vYEya/dLqSbOXzpkwe8nZ67t3GwuR4wBcC2AxpbPNCgesV9GTJty2xLVtbNYmsDo6OjYp9Gaq7y5z7Pq1m36fTqdZmmk56aPS+xS7zKO8aZDUMKPEhO5JJpN7URT9tPPG9H4Owm0ADqc0SO073Hp1MppsCuLYY7GmqKr+P2pBlXRNKniTnjg2V2A9V169Tx+qIn+G5X2LFXKbl898cmtegZSLaXMWdk28ffFDE2cv+ezE2UsmqjqHKnAZILmAy3o54Lx30u1L59k4OKsbNRsNXQPA0Lx3eZk9pdhV+i3YyNveoHZ6enIxYnIMaknNI5iiJZnT0NDA2/J2kVQqNaHomAyAd1IaxCdEVOSO9FHpfQIVhE2bVucAv6HfVdXNpWIVWEZhbQWWonyJv61fsJj7AYyxXNf+EqmTcxiTVp5Jd7y0cNLsJT+YOHtxIhw2kyHyWUAfBtAVHLcZ/wiHzfRJs1/qsHWMVm+UhYL7LIBWmnO/1P+sRDx1DeVgH7HYjElFMY8AmEppEJ/QNLR+GHtG7AKNjcfsbYp4CIIplAbxGeOK4dIdLS0toaAMePfRe14GKI9LVzMAMlq5CixY3ANLy5P4O/roY/YohszDACZYrmoPj9xt2Bm8oKL67Pu7ZS9NvH3xtRNnL50VHmHGqJqTBLhegRXWWidwzZbVQ6L7/m7ZS1av37Yrr4pcTRPur/BwYTyavIKCsIdYbMYkR4uPMqgl/kO+HI+nTqIcdsbOY2MjTvcjYOUV8a25S3rZkpe/EYShJhKJA1X1q5z06hKqDz1fwY+3NoHllOHoZUNDw7C6cPfdAdij8sM2DDm1tbW1kxY3uOx7/bJNk+5Yds+E2UsumLhsyXgVnSnANUAFjxJXl8UCvH/C7CUXvaP1Wev1TYLgBiViTU/xm60BifCLXr6NtwP5nGg0fUBoa+XVBEqD+JRXwyXnCLfdXUJR9E46nd5za287HEppEJ9jVGRmLtf2qN0+aqoNQJLTXVXWe/nMqAqtweFil9kMwMpesqL6vmwh+2B/f7+hoSEytG74XyFotlzHFqiUZuZyOV4oVuO8+OGJUwFzokBaAI3BX/mRbgF+NWTIlv/b67evBkbXgnDWXlX02zTPAYnwx8lY0ycpB/+SSCQmhsTMA5NXxN/sWQyZ2bxkoncaGxtHdXeZh8DkFbHERxU1NzU2No6ydYDxeOp0MHk1CFSu/1VXlzMJliavAEBDAzp6KUPrh10XgOTVU13FyPFMXvmDSbNfen7S7CVXT5y9OAEj+6nqpxS4H8CmGn7tbqjcIsC0CbOXXBSk5BUQkGaRuVzmTgX+QRPt/4aj0F8lY8kzKAr/EYvFxsI4DwKYSGkQC0h2d5e+TDG8mWnTptVFQvV/FOAISoNY5H5MioTqrrJxZC0tLSFRXM45HhSvtmIJLMcYm1s0mJEjR77Y319OxJLfB+Qcq1ULeFZCetyCBfNW0dD8x8TfL1426Y6l102aveSEUl14D4gcB8jPIPrvGnnFtRD9pQmFDpp4x+KPT5i95JkgzlNQbjtRB/p1muWACCnkd8lY8gSKwj+k0+nRgvADYC8cYlXsId+Mx+M8Fr7NXj5m9B63ATiWoiAWWvw5yVjyg7aN6uWlK87l3jxYUQEq1//KUZsvyFna335OiVjTZwD5iuWatThknGOz2exyGpn/mXLzoi0Tb1/80MTZiy+ZePvSQ8JhM0mBCwDcBWBlFV+lKMA8hZ4dHmH2nXj70gsn3/riC0GeGwnSYBOxlAugiSY5IDY7wPsy+UyGoqhtZh02a/imEVseAXA0pUEs3LwK+4zfOzlnzpxS0GURjyWvEcjnqBXEYoN/eciWunfO7Zi71obhpNPpIcUu8zR4rH9wUHzWK2SurUisEU99D4rL7BQbMrl8ZpfjqGQseYZCbofdhRMrVEqpXC73XxpYMFj84f3eYURjomgEnMMAPRTAbmX46BKA/wIoiKK1q1g3d/85z6+lxP9HoPqIOMA3DNDGaR8QQw1wdyKROMbzvA6KozZpaWkJLVv6yu3C5BWxNv5AdPnSFRcBCPQFE4lo6jIATF4R2w1+ny1Duq4E8FkbhlPsMheCyavBUyencj2wYDDV3vKAXZdbPN70XlW9GXYnr15VKc1g8ipY9BzfewbALa//2wtnTJ7siHmHI2aiEUwUlclQHQmRkYCOxjbFQwKsVchGAEtFdTkES0vG/HtIpPTEPre+spES3sFKFDhnP566HYoPc+oHzBpHMSNTyLC3WC3qeSx1HYDzKQliOZvCxpnmzncXBXHwyWjyFBX5E4LTDoAEG6PixHM5d76fB9HQ0BAZWj/8BQDjOaWDQ0mdgwsF9z8V8r8eA/AeK4NGkW9mc23f2uk9qjF5mIakDcBoi9VpnYpzTC7n/o2WRUh1CJzT212MXAJgNad+wIw2ggdS01MHUxS1RSKW+j8weUWCwbBiyPwwkHaeSLxbRW4Fk1ckQD6rqP6ipaUl5OtFq37YB8Hk1WCi9fVYVKkPF8DeJu5qdroCK5FITNWwPAi7k1ebHOBEJq8IqS4SxEFvbSSo13L6y8ISJ4xUJpN5gaIYfHr6DMwOqm2TgG5kqulsIRuY4+GxWGysg9ACQCZx9ivKegBLAayBYjUcrIZiQy8aOAqiISj2BLAXBHv2/HeYIqyE4yrnZ/Ntv/GvD5rMApLgTA6e3+rlMxU5vtnY2DgqEqq3tleNGE1k52dzb+uLJpN7aUk8AAdarEddKnJKLtfWSpMipNp+QDBxErFUDsB0qkBZeAmOSXqe9xJFMYhOcSLRAONkAQylNCpCCcAKAK8IsMxAVgjMCkC0l58dCuhegOyzTUC7F4AQxVgRHh83fu/3BKGhe3Nzc/36dRvnQRHntJeFzVA8CeCf4uh/ofiXEbOoWCwubm9vX9ffD21paQmtXLxyQndIp4jRKRCdBsi7ARwBYHeKfUAsD9c5B7quu8FvLx6Px6eJhv7JKRxUsl4+k6rEB6eiqSOM4O/WBo0h3fftbtiLx+MjRcOPAtpgtT+ocqZXaJtDcyKk+gT120Fj4HzagWkHUEc1GDATYZwHYrFYOp/Pr6A4qk8ymRynJfkLmLwqj2MCeRaqT6ijjzuKJyUsT2YymSUAdCCJh41rNh5igHcp5FBxzLug8m4A4yjyAXN4z5X0v7F9oBvWbLwKwuTVAFgsikfgqKeij4XD4YWu6xbL/ZCeZOqinj+Pbvv/otH0ASHRpKg2qeAYAPtxWnaJccUu8yUAl/suAaChz3P6BnsOULEG7iUHU0StFd2WbDb78o5+oKGhISIammN58spAcTaTV4QM4joe5MEnYqlLAXyfalA2bXqyZLrfWygUXqMwqkdzc3P9+rUbXbCisN/OiAJPCPRhmNDDm7vX5zs6OjZV6+Gp6amDjSPHAjgW0DSAEZySfrEsXOfs77ruFlsHGI+nPiKK2zjVu0QnRB8Vde6Wks7NtGeeqbWdM5FIHKklOUnE+SCg0zhlO8UGCemBb1cNUkuk0+khxS6zAsBITt+gcrmXz1xRkTU6mvqSCH5kpdQU//IKmWk7XMviqZuhONti3VFVfDpXyFxHMyJk8Ah0fwYvn/lRPJaaJcAMqkJZNrfDQhJpjcfjM3O53HoKpDqsX7fxajB5tau8AuA+gT6MEOZ52ezKwXqRzPzMvwH8G8A1DQ0NkaFDR8ZhzJkATofdzU/Lzb7FLj0fwDU2Di41PXWwUfya07xTbFHgPgf6+1Bd6IEaP2qmnud1AOgA8M1YrOkoR/RjUHyE9r9DRmhJLgNwkV9euFjUY8HkVQ0gFavAErG4gbtgh71uE7Hkjy1PXkFEL/XyWSavCBn05SjgRKMzxoel+IQCe1AdykZ+2IYhsx568qGNFEVlSUSbzoTobEpip9gMwb0QuXXz5g0PdHR0dNfyyzY3N9evX79pFlTPguIUABFO4duyvKTd+xcKhc02DWrWYbOGbxrR2c7qnLd1aApGcGMk4vzJdd01fh5LOp0eUezSc6F6MWwOige4poe7nanuY+7LvtivY8nfAnIOp22Q14mdbETerzmOJ1uh8j4b5abQn+fy2V6PwCZjTV9R6A+s1huRb2Zzbd+iBRFSE/4eSUSbToXoXZREOTVL54YjoRNtPs4z2CSTyUO0KAsgGE5p9ElRgfsgmG1M9z1+TWykG9P7lcLmi2rwSc732zjZql/IFbJXWbVHxVO32P7N9gDYAOitcPQ6z/OesG1wLS0toWXLXvmoqF7BWyd75SdePvMlP8zj8qWvLAewF6dskPcIKY3P5XLLKrJWx5r+A+hBVrr1opdkc9mfbR9DpT4MwW2Wx5RXe/nMxbQeQmpkPaIIXt90UlcDYHPNcjoJwF8jdc5plWiQG3TS6fSIYqdph+AQSqNXVgP6Gycsv8hkMottGVTP1dQXAbgQPF7U1672cjjiTLEleZ6MJc9QyB2c2O1YAeCaknb/Kgh9F5ubm+vXrdnwaRG5HMBunP43HI2NEtYp2UE8Br5TdhxNNqmIywkbdLZ4+cwwDOBClh3gJGKpTQDqrdxaVU/NFrJ/eYteH6Mi98PqC7H0Ji+f/USFdIYQ0g/CFMFWxo3f+5Lly14+0NbS38GJI3FysUvvaGlpOSMI19tXk2KnuYrJq155GpCrh22ov8XGI6w9Qdr/zWyY+aPOId1fVNUvAxjCaX9TQLtPqat0BoCb/T6UaHTGeEXxl5zUN+0rqyB6ZdEUf23bUdEd0dra2gngqmQy+QeU5GcKfIjaAEAwXEvyGQBX1PJrqsiJAZ+p56FYCNFXRZ2XVXTt4MyDrq1UIiKVSo03RTuTVwAA8+bbG2OxpqMU+hdYnLxSyG25fOY8MHlFSK35guR/wUJ095CEFwCyP6VR1g3g5ly+7VxuAOUhGUt+UCF/pCTetJI9qcDXc7nMvQBMUIadSCSmouRcBcGJVIJt1xz8I5fPHOl3rU7EUg8COJYzCgDYJCpX13dFfjC3Y+7aoAsjkWg6EUZvBI+kAYKXV69ZNWnhwoVdNTtfsVQOQCxAs2IEeEAhv3fC6tpUCd0XqVgqZYA2W8fXXercrb29fd3WeCl9QEiMB2BvixeWv4TrpIWnSAipxW2fvHkDmp462DiYD2AUpVHOgLLv5o9k5+GlA9vxEiBXjhs/9sYgV/klpqdnwjE/B/BOqkTPmiOSyuXasr6d02jqIgiu4kzCQPCncMn5ijvfXURx/I9YLDbW0fDNEDTT3vHRXC5zey2+WzqdDhe7zDoAQwMwFZ2AXgtHr/U87/kg6WAylvy4Qm6ydHgrvXxmLAAkk8lxpiR5ASbbGx3r3JGjRry/p/KVEFJjOBTBm8nMz/wbKh9HgKo4qrIXQD6XjDfx9o4B2mtIircwebXVmQLkotVrV73Dy7ddH/Qjqt58d25Ju48EcD1V43X/0789DePx+EEQfI+ziIclpO/ycpnTmbzannw+v8IrZN4P4Ae099q1d9Np3oVgJK8edQyO8PLZLwYteQUARq2+LfQFAGhsbBxlSnKf1ckrID9s/dBTmLwipIYDYoqgl2Cw0PZnEf0SJVFeVPXriVjqUkqifySiqU8DOCbgYigBuFqltL+Xb7umlo+MVJtCobDZy2cugMrpANZSInpKNDpjvB9jcWjo+oAEvH2xUqBnefnMrGw2+y/q8o7jZi+fuQyQswEEOeA6OpFINNTkSiTyHstl362KT3n5zIzM/My/A6uB4ky1eHDPT5s2rS4Sqv+jAEdYPIuPh+ucE2zsoUqITTCB1Qc9V8VeTUmUne8n48kvUAy7Riw2YxIrMvCUipPw8pmLc7ncempF73iFtjlwzGEQ5AIuinBIih/120snY03nCZAK7rTJ77uKkYOz+exttOZdsPt8262iegIUgQ281MjHavG9DHC0xWJ/zQHelytkrgu6DYqoxRVYmhyz2x73wu6ejE91FSMzXdddwx2FkNqGCawdOoSZS6C4i5Io8zao8pN4PPUJSmLn/aIQitcDGBnQ8W9W0a9t7tzYkMu586kOO7F2ed5Lm7dsfK8obgn2YoOz/fS66aPS+yg0qMfB1gJygZdvO3PBgnmraMW7TraQnWdE3gvgtWA6tPLhadOm1dyNaAI91FabdRTpTD7zCK0PgMLiCiyMh8XJKwGelZAex72HEL/s92RHmBK6PwogT1GUd68QxXXxeIrXgO8EiWjqHAVmBXT4C0rqHJbLZb/X0dHRTW3YeTo6Orqzhcw5Cv1ucFcaHFKrx4p6oxjRnwMYE8B5yjlhvMvLt7GH2wDJ59seU3ECWYmlwB67j9r9+Bp8tQMtFHe3irRkCpmnaHVANBodCmAfSsKXLAkZ59hsNrucoiDEHzCB9TYUCoXNXcXISQCepjTKSkgUtyZjyRMoir45+uhj9oAEtkHv9avXrkoWCu6z1IT+x3S5fPb/QfEJAMG8Cto4Z/nhNbeuhXpa0PRTBD8OR5x0JpNZTHMtD1srVZ3TAAQu6a+QmrL3dDq9J4DdbZOzQL+Yy7U9TGvbSjgcngLe7O5HVpTUOZaXhBDiL5jA2gkWLJi3yinh/QBepTTKSkQhc5LRZBNF0Tt14a4fAdgzYMNeI6qnevnMBWzSXh68Qua3Pc3dg1jFdmZLS0uoll9w2rRpdQr5acDmZYOofiCby3zZdd0irbTcNu8+AEjwjuoL3tfQ0DCsVl6ntKV0kI1ucTafvZZW9j+0qFMpBf/5mgbOcYWC+x+KghB/wQTWTpJpzzxjIMcD2ERplJWhKnK3n475VIvk9GQckI8HLProMAi/J1vI/oUaUO6Atu3PKjgDW29yDBJjly1bEavlF9x99O4Xwc5jRn2xBI5J084rbPP5tlsBDVpidNjQuhHH1ZCX/Q7L5Ft0FOcBMLSwbV2XEBNY/mKdgczK593HKQpC/AcTWLtAPt/2GBwJYgBYaUbBOK3RaPqdFMVW0ul0WB35BYJUkq64q6RdyXz+keeoAZUhl8vcpaKfDdzADU6s1VeLxWJjVeX/BWg2FhgUGzzP66BFVp5wXehSBYLVZNvRU2pnX3MsS0zLX9j3qhepWH0DoXVsFtWT8vm2xygKQny6zVMEu4bntd0jol+mJMrOXiExDycSiYkUBdDdXfoUgMODM2L9qVfItBQKhc2c/cqSy2V/LRKohAlE9OSafTdErgSwW0Cmok2lNDOfz6+gJVYH13WLkW7nIwBWBmc7wfvT6XS4Jl5FLKvAcoRHB3vXOVZg+YMuFZyWLWTbKApCfLwVUQS7TjaX/ZkIrqIkys5+MM7DsVhsbJCFMLNh5m6i8o2ADNdAcbGXz34RPJJQxTWs7bsQBCkQObAWKzwTicS7BXpuIGZA9IHNnRuPz+Vy62mB1cV9zH1ZVM8P0JB3N53m6BrRe4sqsOS/nucy8O8FBViBVfuUoPLRXC5zP0VBiL9hAqvfAWDmiwr8iZIof6AZQvjeeDw+MqgC2DKk6zIAewVhqAI93StkrqbaV5/Va1ZdAkV7cDY78/6aeykT+k4g9mHFXavXvHZyR0cHe0gOls9SyP4F0JsCFKkeUwOvIVAcYI9UzX0AlNbUK0xg1foupDjfK7TNoSgIscGnJ/3eyY12nyVAgaIo9y6DowTOXc3NzfVBG3u6Mb0fFJ8PwFC7BHpaNp9lEniQWLhwYZcTQQsCcruqI3hvLb1PMpo8GtATrBe8YHa43vkQbxQdfEpa/BICcpRQgBmD/Q6JRGICgGG2yFTFmUsr2p6eUwMjKInaVV0V/YxXyPyWoiDEEp+eIug/hUJhc2cxciIU/6I0yu4pzVy/dtPva6WPRbUohs2VNjm8fdAt0NOz+ex9VPTBJZPJLFaRsxGA45sKJGppPVGR78P2SxoEv/NymbNc1y3S2mrCZ3kNkEsDMViRaENDw+DupcWwTQ3cVaQ0n1bUm6rVsf9VTW9Dclkul/01JUGIPTCBNUAWLJi3qoTwLEBfpDTK7i+dUuo0NyAgN/FFo+l3QvERy4dZUsFHs/nsX6nftUEu19YKwQ8DMNRRXV16RC28SGJ6eiZQWxVh5Q8acHc44nwC7G1XU3j5tpsDUjleP7x++PTB9bBt6n+lz3uet5oW1MtaZwwTWLXL5dl82w8pBkLsggmsMlAoPLLUKcmxAHizUrldJsHHEvHUd4Mw1pDoNwGErJ5O0U/lcpk7qdm1xchRwy8H5L/WBxqqTbWx85pvW71uA5midp/ByqvanB4jwajCMopBbeQuou+wx6blnzSdviaaNxDWKNd4+cwVFAMh9sEEVpnItGeeUXFOhmIjpVF2z+myRKzpEpuHGI/HpwF6utXTqHpJNpe9gQpde7S2tnbCyGetjzME6cF+h1QsNQPAdIvF/LwT0tMKhcJmWlZtksu1ZQEE4Qj3UYPsu1hTgeUInqHl9AkbuNeex3mTl89cTDkQYidMYJXVKXTnQ51TALBZbfk3ox8noqkPWxtYa/hyq+1RcWOukL2Kely7ePPduRDMtnyYRw/2CxjgKxbLd7VK6fhsNruSFlXbGDj/B9tvlBM0DvIbHGiPvuhztJo+YQKrtgz/j+PG7/NJ8MZMQqyFCaxKBIGKc8C+H+V3RQU3Jqcn47YNLB6PHwToByyeudzI0cMvpArXPt3FyCUAbO5zsle6Mb3fYD08FksfDmCWpbItqciHcrncf2lJtU8+7z4OwPZb5cYnk8lxg/HgadOm1Skw2ZptvBR6llbTF8ojhLUyE8Bfw3Vy5pw5c0qUBiH2wgRWBfAKmdlQfJ6SKDtD4MhftyZ8bNpxw1+y1RYVWCSOntra2tpJ9a192tvnvaIKq3vOFSOD18g9BHMZ7L2U4vJcru1hWpGP1meRn1k/xu7QtMF47ujRo6cAsOYW5TDABFYvNDQ0RADZj5KoAUTnRuoc9l4kJAAwgVUhvELmWkB580W5nVFgD9HQ/bFYbKwN40kmk+MEepalk7XRKenJPE7kL4ZvHPIrANbOmSgGJYGVSCSmKnCapbbe6uUz36X1+Itcru0BAP+xOqZ1SgcPzpND+1skxu69Juy1mBazPXV1IyfB7st3/LIJeZu3bDrZdd0tlAUh9sMEVgXx8tnLFHIzJVF2pjoI/3HrN18+33JLuBhAvZ0xLb6Ybc8+SXX1Fw89+dBGKH5qrZs7SAksGLnQ0kBnRbeJ8Ni8X81B9GqrBwgMSgLLUbUmgSXAizyS1YdsxPD44ODzTzh6UkdHxyaKgpBgwARWhX2nfcePPQ+KuyiKspMcUj/sJ34ewKzDZg0H5HwrnTrg/lwhcz3V1J+E651fCLDK0mX5sGo/MRqNDgXk4zYKU6DntrfPe4VW40+2bNn0O3ttHYAOTgILIjYlNp6npfQ1zex/NcgsdsI43vO81RQFIcGBCawKM2fOnFIJ3R8FkKU0yuw4QD6XiDWd49f33zyi88MARls4NStD3c4nwBtgfIvruhsgYmsV1qRp06bVVfOBIUTOBLC7hYvw9dl89j5ajH/p6OjYpNAbLc4wHDAYj1UDe44QKhNYfaqX8gbCQVVNcU7PZDI83kpIwGACqwoUCoXNQzrrTgTwOKVR9u3rl4lEosGfPqF+ykqHDvoZ9zH3Zeqmvymarl8DsLH5fmjMmDGTqxxEf8ZCOS4bsqXuUlqKDZ6gzrZ4dOMGpd2ATRVYIi/QSPqUDRNYgyl+NZ+kFAgJoNtCEVSHuR1z16qUToCCjkB5GQIjf0qn03v66aWT05NxAEfa50zglmw++0eqpf8pFAqvQXC3lU6vkXdU61mxWFMU0AbrZAj9zNyOuWtpKf7H87wnAPzb0uGFhg4dOq7q5gG1JrGh9Ft3IBzhEcLB5ZxULDWDYiAkWDCBVUVyudwyI+FjIWB1Snl9xUndXeYGf1mefNrCiVhTkuJXqI8W+eaQm6wcl1bvWJEDPc++JRdzsvnsX2khNtmEzrHWQyjKhGo+Lx6PjwMwzBoBhko8Qti35bACa5DN2wC/2tpTlhASFJjAqjL5/CPPOQazALDhYFnjKZwcj6c+4Yd3ndkwczcFPmBhAHRFPp9fQW20h333HfsQgGUWrhdVSWBtbd6OD1omvs0Q8yVah23eoLnT1qGZkOxX1fVFIrZV5TCB1YcvBxt7G/qPAzeN3PITioGQALksFEH1yRQyTxnICVBspDTK6DQaXJ1IJA6s9ffsrO8+HcBQq4Sv+NeWrk3XUgvtoufq9FttG5c6GF+VDdaJnARgN6tkp/ojz/NeonXYRS6XWwjIQkt9gz2rayNmf4vEt5Y3vPXhy0U696cUasYHvSARbWqhIAgJBkxgDRL5fFsBMGcA6KY0yuWlYjiMc/ugNGzdpX3WnG2f8+Bc1NHRQV22EAPn9/bpq+5VlSVJ5aOWSW55pD70I1qFtVGgnccIBWOqu2iqTRVYz9Eu+oygeHywpuxcfxmPx/elIAgJwvJLBg2v4N2rgnMAGEqjbLxn2JARX63Vl4vFZuwPSNwyr+Ev3nx3LlXPTvJ59wkAlh0NdSqewEomk3sBepxVYlNc6bruBlqFnajII5aOrKoJLEfEosoc4fHBPkUDNnCvLfYUDd0MQCgKQuyGCaxBJpfL3A7F5ymJMrqqql9PNiYPq0l/R7s/bNnmqnBKl1Pr7DYpCKxKUAq08keKSjgDQMQisb00cvTwG2gO9jJq1LAFADZbOLSqJrAUsCaBxRsIdygbVmDVHscm48mLKQZC7IYJrBrAK2SuFZFvUxJlI6whXIsaTBSJiFVn9AW4p+cKdmK1py5WJbAU2D2dTocr+ww51bJg7butra2dNAZ76Znf+dYtX5BRVX6kNZU5jjCBtQMPiBVYNblXyfcSicS7KQlC7IUJrBohm2v7hgiuoiTK5lgkErGmmuo/k2pMvQPAu6xyFBzzXepaADaKsNp2RFSwsXKNnY8++pg9ACQtkteKSL1zCy0hEGQsdHSrVgmZTqdHABhrzyZveISwb5jAqk3qUXJm99wCTAixMS6hCGqHbC7zRUB+T0mUzfP6USKRGFMzbxO2q/oKonM9z2unngUgos1kFgNYbtOYuiKVS2DVhYsnAQhbJK5rXNfdQksIwK4p0mbdmLR6CaxisWjVzXRi2ANrB/HTRIqhVhUXhzgS/gEFQYi9CzCpHczmzg1nC3A/RVEW9oY6NXM0UxUfsMtBCF1JFQuUR9hh1WikojcRnmSRqDZ1FSO/pv4HxAkxXfMBdFkWzNZV7VmlkE1VOWb47sNfolVsTyqVGg+gnpKoZbOXzyaiifdTEoTYBxNYNUZHR0f30A1DThegQGmUAcWnUtHUoB/b23q1rx5pkWQf9zzXpYIFyJTU/N0q59aUhlficxsaGoYBOssiUf1+wYJ5q2gBwaBQKGwG8LRdbkAVL1MQtSmBtYR97/rQqW7l8UEfbPMQ57fpo9L7UBSE2AUTWDXIQ08+tFEdcwKAf1IaAyZkgMsHP1gOvQ823T6o4G1kQdssBFYlsNRxKlKVMax+2HsBDLNGTuL8htoftOgc/7IrioVW8WE23UzHBu59r4tMYPmDvYp1pZtg1+3fhDAmoQhqE8/zVquUjlNgEaUxYIfy1Fis6ahBfovjLJLoFoTMbCpWsAiZkFW3TTqqFUlgGXWOsUhMT+Vy7nxqf+D2zH9bNqKqHYkUtSmBpex/1dc825WotBuV9yWiqc9QEIRY5MNTBLVLLpdbZtQ5FsArlMbAfA0H+MZgPbylpSUkAnuCWsFdnuetploFC3e++yKA9db4tCoVSWCJo9bYuojeRM0PZMC30CoHAOiumugsuplOlRVYfWGUCSyfLQI/roV2IoSQ8sAEVo1TKLjPwjHHAVhDaQzIFXt/PJ6ePhhPXrZs5VEK7GHNoqG4kfoUTCMC7KnMEKf8FVixWGwsFLY4yaZoIndS7QMYnItYVYGlgmr1cRLYdDOdwxsI+55o9sDyGUOMYHY6nR5CURBiwfZEEdQ+nuc9AeO0AGAzzYE4HGouHxQjU03ZEwnghUw+8yi1KZgoxJreOKrl74ElEn4vrOm1oflC4ZGl1PrgsXbtyqcBFK0ZkKlOBVYymdwHFvW/CxlWYO0AVmD5j0OLXeY7FAMh/ocJLJ/gzXfniuoZAEqURr85Lh6PT6t+0I+kNRIU/TOq2RCX1BaqC+0Ziil/AkvVov5XzhwqfDBZuHBhF4DlFg2pOkefu2FVVY5TdFiB1QvRaHQoAN5s508uicebmikGQny+P1EE/iFbyP5FFRdSEgMJMEPnV9/GNGaP/HA/tSjIO4Y9vXEcB5Gyf6hK3Bb5lFRo68HGnt6bUqUWDI5VVTmb3Mdc9l/thXA4PAW81c63q4Go3pBOp/ekKAjxsQ9PEfiLXCFzHYDLKYl+87FZh80aXq2HpaKpaQB2t0R2615b91qWKhRkz69kT3NnxZZyflw8Hh8JwTstkc7ThYL7LDU+wLYOrLDG1FXXVuM5djX2lhfAauve9anI/lc+Z99il/6GYiDEvzCB5UO8fOYKEVxFSfSL3TaP6PxwtR5WAmL2iE4e6jlaQoK69njeYgUWWRKhby7nx4U0dJRFe2ortT3gQTrUmuobgayrynPEogSWKo8P9jnPwv5X/lfwU5Kxpk9SDoT4EyawfEo2l/miAH+gJPrjmFfvGKYIjrRGbqL3UntoPiJqRWWOGtlUzs8riTbaE/ArL2pglG7T8bHVVXIu7ElsCJjA6gOjDhNYNvgAqj+Lx+MHURKE+A8msHy8h762dtXZAB6mKHZ523p3IpFoqNLDDrdnry+yKoMAKpb0jpDNZZaLLQksLaFUoKIHG4Fac4RQpDpHCGFVBRZvIOx7ni0+QqjYGKBFbrho+PaGhoYIlZoQf8EElo9ZuHBh1+bOjacAyFMau4hxTq30I9LpdBjAuyyR2LP5fH4FFYcAGGuH72o2lffz0GDJ/D5DWycG8po9capUvAJraxAs+9kiM3WYwNrBWj/V4sFdBUV7cGZTG4bVjbiCWk2Iv2ACy+d0dHRskpCeAuBpSmNX9ixUPIFlOs3BAIZa4rAtoNKQHqyowBIpXwVWOp0eDcCO4FUwnypOxIg9/Q4NVlb6EfX1u00EELLGRVKHRwj7ZrK1rrHgmRKcjwLYEJhwQPTSVCw1g2pNiH9gAssCstnsSieMmQAWUxo7HaQdkkgkDqysz2xN9RVU8RiVhjQ2No4CUGfDWIplPEJoOs0h1ti60X9Q04mI6bZlLFtMpOIVhY4xVvVFqquz5LKOMhOLxcYCGGmx5T9fKLjPquhXgxQLG+CWaDS6OzWcEJ8YLUVgB5lMZrGBczyq1azUhm1a5eTKPgDWBLVGhBVYBOFweJw1m59TKltfHHXUGluH4zxBTSdGrKnAKi1YMK/ifpE4alMC6xXXdTfQCnpbHu1u4G5M6HkAyOWy1wpwf4Cmdj9HItdTwwnxyVpMEdhDPu/+U1RPBbCF0tiJoBNMYO0k3apdj1NjCBC2pvdHOBxeVj6n37EmgRWJyFPUcyLGsSWBtQqAqYJDYU1iQ8AbCPu2C7E5gdVZKDyy/HWNLmr4fABrAzO3wAfj8dTHqOWE1D5MYFlGtpBtg8rZVXHY/I4ievTRx+xRuc+XQ+wQE/5ZKBQ2U2GI2BOkbShnhYGINRVYS13XfZWaThwxdiSwFNXRZ4tuplNhA/e+59mZavHoXtg2digUHlkqol8KmI/zi1Rj6h1UdEJq3EehCOzDK7TNEejFlMTb6399uCtRiQ9ubm6uB3R/SxYJXhBAXg9tbHHel5X58+xweFWfoY6THoqWrFlVuVFTYU8FFpQVWH1hLKq062Xet0tcZnPZGwE8GKApHqEh3L71VlFCSA3HpsRGsvnszwH9KSXxNohUJIG14bUNBwEIW+HT8NtY8oa9WHN9+PIy76N23EDoyEtUcgIAJZF6S9asal1uY1MCi3t+38KxtwLL6TVxqQbhCwCsD8wMA0cNrR/+/6jrhNTyckWsxctnvwzIHymJHe5U8Up8rAnLwfbISOjMktd1wQrnXYCXy/VZ8Xh8H1hyMyOUN9mSHudQzTArBiKytNKPSKfTIwDsZc3khxxWYPWNvQmsPhKX+fwjL0Lx1YDN89eT0WQT1Z2QGvVRKAKrMeE6OQuCHEXR136Nd7e0tITKL3l7biVjBRYBgGnTptUBakVi1qiU7QihiEywxtaZwCJv6IJjRQJLoRVPYJlOY9mxsiITWL2QTqfDYku1be/OXp/z7hUyvwLQFqT4WEVuTSQSY6j5hNSggVIEduO67pau7sjJgPyX0uiVYUuWrCx7/xoRe24lM4YVWAQYM2bMwbCk0shxTNmOEIqxJ4ElIVlGTSc90exQK3TaOBVPYJUcq/oidY8bN24p9X97isXiRFjSGqJXX0926OsZJ4xzoNgYoCmfACNXU/MJqUE/niKwnwUL5q0yCJ0AgLdL9R7Mvrv8vr81FVildetWsi8OgRg5whpHvZwJfcEEi2Z5PTWd9GBFAssIllR+bbQqgbVozpw5Jap/LxTDNt9AiGGd4R1+WZnJZF6A4JsB83zOSkRTH6byE1JjsTtFEAzy+Ueeg+OcCqCL0nirh6sHlvPjGhoaIhDYcg3v6oULF1JnCBRyuC1jCRXx77LJRWVva+ZYsYGaTgBAHLXiCKFIsfLVRGJPAkvAlgF9R0z2NnAXYNXcjrlr3+7nvHzmZ4B6wVoM8cv09PRkGgAhNbQcUwTBwfNcT0W/SEm81VGXA8r5eXV1I/cHYMUVvAKsoYYQAFDAlgqsLXtP3LuMPV50d1vm2BgmsMjr9i426HX3vvvu+0oV9kmbbiBk/6s+J1qnWDy6nZ13o2LOA7AlQDO/W9Ep3VqRfrmEkH7BBFbAyOWyvwD0N5TEmxy2siawwlI6yCLprKaCkGnTptUJ8B5LopD/lvWIjMhoW+Y5EjEbqe1k676oNlQWLq/GcTi16WY6Yc/LPkWjYAILQC6X+6+IfDtgs59YvvSVy2gFhNQGTGAFkJG7jficAAVK4vV9qczOp+BAi6TDBBbB6NF7NgIYZsdozL/KHL5ac0tRd3fYUNvJ1m3MiqOxS6r0nMn2zLxhBVbfWHuEcFdvmw5F5IcA/haw+b88Hk9PpxkQMvgwgRVAWltbO0Pdzgeq6NzV+M6Nsel0umw3yxh1rElgGYBNnQlENWXNWMT5T3nXD8eaBFYkUqyjtpOt26IFCSytvI+TTCb3AjDCmnl3lBVYfaqTxRVYumuVd67rFqWkn0Cw+uqGRUu3xePxkbQGQgYXJrACivuY+zIc50wAvG0GcDo7nTI663ogRUqsQjRtj6Ne7gosM9oW0ZRKJSawyOuGspfvly0Hyyr+kKJ1SQ1WYPVCT9JiT2sHaGSX5z3bnn1SVb8fMGdofzGhn9EiCBnkwJ0iCC6e53oi8l1KAnAcM65s2xtgUw+sMLUj2EybNq0ORqK2jCdkQmU+9iBDLZINE1jkdcb6fQBahQqssrcgGFzWep7HtgG9TbPIVKsHGC72K3G5Zt1rVwJ4KljKgE/E46kP0SoIGcS4nSIINqGIfIv9sAAx5flmbWbDzN0A7G2NXJjACjyjR+95DATDLRnOMne+u6jMn2lN0kehQ6nxJBqN7g5giP/3L32x0s8wYlUF1nPU/j4ohWxOYJU2b968uD+/uHDhwi5H8TEA3YGKGRS/TiQSE2kYhAwOTGAFHNd1ixLGRwCsC7Ic1DGjyvE5nXWdB1kmGiawAo6oOdWewSBXgU+1KYE1lhpPROrtCMxM5Y/Dicpke+wf7H/V90Tbm8BSvNTR0dHvBFSmkPkHgJ8GTCNGq3FubWlpCdE4CKk+TGARZDKZFwR6YcDFUJ6mjHbdQAhAh9NCAr5HiJxoTQwCrUS1qTUJLHFkH6o8CaE0yYrdK1yFhuQ2JTZU2P+q781jisVjG/C8j9xt+Deh+FewVAKpl5e9fAmNg5DBCE4IAZDNZ2+DYHZwDUHLUoEFcaxKYAkY0AaZRCIdg8IeHTAVqcCKWBO/Ku2dAArHhgRWdfo5qT29kRxhBVafvpDam8BSyIDnvbW1tVMd5xMI2MVQqnJlLNZ0FC2EkGrH7YT00NUd+bwAq4LpsTvlCULVrhsIFWBAG+RAtqQfsGg4m19b99rjlTETW6I02jsBALXhCGHFkzHpdDoMYII9025YgdX3Im/tEcJyJS5zOXe+CH4eMNWIhKCz0+n0CFoJIVVctygC8joLFsxbpZBvBHHsRkxZzrEr8A7LRDOi5/poEjDS6XRYHD3TogDksYULF3ZV4KPtaV6rOICaTxSY7PtBVKGayBgzARZVYIrhEcI+tQmYZK/Bly9xuWnLxv8nwLMBWy8PKHaVfkgzIaR6MIFF3sS48WOvC9o5dgAQlXLZgnXf0onIOFpG8OjuNifZdHxQgEcrJSqLpn0aNZ+IDcG6Vr6Bu3Zb1djbDN99+EvU/u2JRmfsC8DeG1rLaCsdHR2b1HE+CZsqk3du1fx0PJ46idZCSHVgAou8iTlz5pRE9NvB9NkH6uREdwcw2jrJlGxrTE92yiAU59q125l7KrRw2JTA2i+dTo+m9gceGxJYVWjg7tiUwFrS2traSdXfnlDITLF6gOHy2ornua4orgugz3RjMpnkF76EVMOlpwjIW8nms3cC+HeQxqyKLQPevKRufytl48i7aBXBIhqdMR7A+ywa0nLP8/5emTgZXTbNvek0h9ACgmz70aEA9vR9MCm6qPKbo0WNvVV5fLAvSmaqxaPbkM1mV5b7Q4duHPIlAEHTqT1RkptRhi/ECSE7hgks0msMA8ivgzRgEdk00M8IwViZwBIFE1gBIyTFTwMIWTMgxf2o3JGG9TbNvYo20AIC7BQ6zkQrArBQNSqwLDpCyBsIdySbKRaPrSJJpoeefGijqJ6PgB0lVGBWIpr6PI2GkAr7KhQB6Y1wnfwOwKYADXnzwB0Bx9Jv6ZzDaBHBYdZhs4YL8CnLvPT7Kvjha6xywEWStILgohqyoVm1btq0aVEVgtUp9sw7E1h97h5qcQJLK9e4P1vIzgP05uApDH6QSCTeTcshpIKRKUVAesN13TVQ3Buc/casG7AfYNTSBJYeOOuwWcNpFcFg4/DNn1RgD4uG1KlOcW7l1g67ElhQNIFHIAJLCOL/BJbglY6Ojmp8AWfPnu/wBsI+l0SBxUcITUXnfUhn/RcALAmYytSj5MzuOY5NCKnElkURkB1wX2BGqni1DB+yv6XSiWwa3sWqjADQ0NAQEZEvWDasTC6Xq9gxP1XLEljA2Hg8zosbghqsQ32fwJIqVBPF4/GRsKBX2P/WMSawdoC1CSyt8NHRuR1z10LNpwOnMYJDQhL5Hk2HkMrABBbpk3C9cz8AE4SxliS0auAbltjr5EBn0CLsZ2j9iI8CmGiXHylzKvyANRa6BsfSGoKK+t7+tQr9nFQjVn1hVdctPELYC83NzfUArL1ZzqlCstcrePcCekcA1efzyVjyBFoRIRVYuygC0heu674K4OkgjLWue2AVWD1Ozn62ykcETGBZTjqdHgLo5ZYNa0uorsIJLGC5dfau8gFaRFCRyb4fglb+9jNH1aa+SJvcx9xXqPvbs27dusk2x0piqlN511Ws+xyAoOmYKOS3jY3H7E1LIqTMe7BtA4rH4wcl4qk7k7HkBzm95Vh+8fcAjLLLfcxdQSdnhxHBEUcffcweNAh7KXaZi2BZ9ZUC97muu6ayS6QstVAdUrFYbCytIpBMssDweQPhrg3mBQTstridJ2xx/yvoxu6NL1bjQQsWzFulgiDezjc24nTfBPaVJKSsWBNwpxvT+8VjTb8RDf0TihZVfJbTWw4/UP9p+xgFeAkDPioZ2t/2tSIS6T6FFmEniURiDICv2LfB6a2VfoYRKxvUhkKInEzLCBbpdDoMYF/f+y1OFY7DiUU306my/1Vf02zt5TwAgOVVuuwAAJDLZe5U4E/BUyI0J2NNn6I1EVJO/96CwCsRS32/GDJPC/Q8AOGtC4akU9HUuzjFA1x31bH+9hAVXVSGT5lqvy7gTFqEtXb+DQC72+UzYtVra19rrfRzQkatXCMVSnsPGF1dzvg3fCgfEwqVY09/G4xFjb0FTGD1LZsp9g6u+olLJ6SfBrAyaGqk0J8yJiWkjGuJX1+8oaFhWCKaugzGeQ7ApQC2u67UCJjxHnBga5bZv7MMvAeAA9k/AOrw3mh0xnhahV0kEol3q+JC+xxG/GHhwoVdFY9jQ8bWJH86Ho8fRAsJ0H4vJRuOEBcdx1lcBWHZk8CqxpFL/8rG4gRW9ec9m82uhOJLAdSkIUYwe2uvUULIwONuH75zIpo6e2j98Gcg+B6AMTv42Y8nk8m9OM39pyTOJtvHqKr/LoOTMzUA6uA46G6hVdhDOp0Oq3FuAhCxbWwGcls1nuN53mpgYJdA1CgCE76AVhIcRDHZgmG85LpuseK2AZ1ky7yrwwTWDmbaYt9OBqXyzitkfqfAXwOoTYd2d+q3aFSElCEg9dPLJqanZyZiqcchuAU716dhmCmyF9aAtjcR+xt7Os7CATuAigOCoQ/OeWAzSmsodpkvCnCEbeNS4B/5fFuhik/8j532rh+PRqNDaSlBQSdaYPuLKv2MdGN6PABrKilUHR4h7BtrK7BUBjFxKaXPAFgdvJhKv5iMJo+hWREywNDdDy+ZiqVmJGOpBXDMwwB26QyxiHw2Ho+P5FT3U0FKpZDtYzQm9K+B7kkQK7653hmXZ1osljqWluF/EonEgQC+aefGptdUORL4r6VqMsZxwh+jtQRkdYf4fh+TKhyHMyFjVVVOXV3lk35+pOfm5d3sHaEMWuIyl8stE8ilQQyrVOQW3upNyED9/BomFksfmoin7jTAPAWO6ufH7A4T4jGIfu9vsP0I5rJC4ZGlA/mAeDw+DsCwwCwaol+gYfib5ubmehjnDvTSO9ACVobqQr+v6jLpqK0JLIjK15qbm+tpNUHA/5eRiFP5oFzturTlFdd1N1D3tycSKdnc/wrGhAa18i6bb7tBgIcCqFrj6yLdv6GFETKAWLQWXyoaTR+QiDXd4cA8CcWAe+6I4BI64P3c4CB72+2vwxv4h4T3D5RSqLwv2Zg8jNbhX9av3fhDAEdaqZ6qv3Jdd0uV18mFFqvLhA1rN51Lq7Efgf8ridVU/gZCY1FjbwFvINzBTNvc27SzUHhk+WCbawnh8wGsD5xqKU6Nx1OfoI0R0j9qKoGVTqf3TMRS3w+J+SegZ6B8vXbGrV+7iccg+uPciB5o+fjKkMDSqYFTjJB8hdbhT+Lx1EkAPmfp8LqcMH5d7YdGupy/2+1r61f5JZDdpNPpMADf98AyIhU/QihiVV8kJrD6mmdj9eU8LwAwg/0S+fwjL6ro1wKqX1fzpl9C+kdNJLDS6fSIRCx1abHLPAfgUgAVcJT10h4Hjexa5HKk1eMzyA38M4KXwFLgzOT05JE0EH8Ri83YXxQ3wdJG/ALMyWazVf9W2X3MfRnAEotVZ8K6dRsuoQVZvBUaMwGA732kUilc+YSMiDV7voI3EO5gQ7H3CKHWzrznctlfKpAJoH4NFw3fPm3atDoaGyG7xqAmsNLp9JBErOmSUpdZBOD7AEZV8HFTi53awinfpfkJQ+QIi4e4ITQk9OSAjUhk/wCqh6Mh/IBW4it7Hu2geA+A3a11yY3+dBC90b9Z7Wur/F96enoyLclSilYE65va2+etqMJKY8+XVsoE1g6wN4Hl1FTlnQmF8XEoNgZPxbRhzG57fIOmRsiuLmGD9NxEtKml2GUWAvoTBapzG4Ojl8HSyoNK0N2tUdh8A4vofNd1iwP3/zAlkAqiMjMZTR5HS6l90ul0uNhl7gRwsLXqCNydnZ8dxKN82mG5Gg0rivkJrclOSlZUm8gLW5eCyhGNRocC2MeaiQ85PELY95pub3V9jSUuM5nMCwpcHlBF+2o83vRe2hshO0/VE1jxeOqkRKzpSYjeCVT5WyzFYfF46kRO+066gqon2O2bSK5MnzQ5sO6dyM/YG6f2KXabXwA41mZVDCmuGOTNNG//poAPJKKJ99OiapNkMjmu//u9FV/EVDwoD4fDU2DVF6FFJrB6oaWlJQTIBIudt5qb91wh81MIcgFUN0dUfxeNRnen5RGy0z53dYjH09MTsZQrir8COm3wFm1cDlZh7aRu6Bk2D9BA7hvoZ6TT6SEAxgVYTw7esGbTN2kutUsilrocigusHqTiz5lC5h+DumDWOXkAW6xXKHFuTB+V3oeWVVsko03fLZXkXf2fV/8nsBSm4gksLVpVldM9bty4pbSe7Vm5eOUEANb2JqrGZQf9ea2Scc4LxD66PfuFpO46Wh4hO+lzV9ypSiYPScRTd4qaAoCmQfe9gSMS0aZTOPVvM2+xZDMgkywe4tJ8vm3APWu6u7snIeAJURX9cizWdBStpvaIR5MXA7A9wagImW8N9ku4rrtFgQUBUKuxxYi5GfwiqHb262jTd1X0q6oDOA5mQV8nR6pwLEpCNiWwFs2ZM6dEC+rFtwup1a0hhnWGa7L3WaHg/gfAdwLqTZ+WiDWdResjZCf2+0p9cHp6enIilvydluQpKGqrebqjl9P5fjtfVj5n8/hE8WeUoVeGY5zJ1BaEHdEbeJNKbZGIpi4UkZ/aP1L5k+d5T9TEmwCPBkS9jktEU5+nlQ2+yiXjqZ+p6FcBlNatW/nSAJTX/3uZqXwCS8SexIbwBsIdecHW9r8SYNXcjrlra9ahrHN+AEhHQPXul6nG1Dtof4S8Tfxd7g9MJpN7JWKpq4qO+Q8gZ2GQbzrsfX3AYclY8oOc/t5JRVMxAFY35zaO3FWezwloA/debGrMbnv8jIKoDeLR1AUQ/Bz2J+qNgVxRKy8jqo8GRskEP0xGk020tsEhnU6HE7Hkjaq4uGcRXrJw4cKu/nxWQ0PDMCj29v02FNLKJ2TsuoGQ/a/6XMut9u1qet5d1y1KyZwLoDuAqjdCQ7i9oaEhQiskpG/KllxKp9MjkvGmb2hJngNwEYCabuyskB/09C8ib6Ek+LblQ3w1EpEsnZyy85lENHUuxTC4JGKpS0XwKwSgylQhv83n3X/WyvuE6kM5AKsDomp1KnIXvy2uPs3NzfXFLr0DkHO22Y36HZQOGTLEisbk3d3dle+BBYsSWLXZB6lGZMME1mCSbc8+KSLfD6LqKXDU0PrhX6MREtI3A05gNTQ0RBKxpvOL3eYZVb0CwEifjH1qqVu/QhV4S/AbTX1YgBmWD/Nu13WL5dlpZDK15k1O37WJRKKBghgc6SfjqR8B+D6CcUR6vRMy36ilF3JdtyjA/QHSud1NSO5JJBJjaH7VIZ1Oj16/ZsMDgJ72lv/V72SEo/4/Ci/Aqvb29nVVeJRFe75hBVbfWQRrjxCq+OPo6GtrXv0OgKcCqoH/F4s1RWmIhPThtwzkdxPR1IeH1g//D6DXQeG7W4lU9bJUKsUKmh6i0ejuENjfM0fNn8voNU+m5ryJIWqcP/KWsurS3Nxcn4glb1fFlwITXyi+lc1ml9dcSCi4O2CR3kEwcnc6nR5BS6z0Hp0+oNhlChBJ9/K/nx+AzlpwA2Hlg/LGxmP2BmCPnhseIdwB1iawoP6ovFu4cGGXo/gYgnmUMOyo3t7Y2DiKpkjI9vQrgZWYnp6ZiKUeg+B2ny/yQ0tFsG/PViTkRG4A/N8H421Yvrlr84Nl/DwmQN+qSMDkYsQ8HI1Gd6c0Kk8ymRy3fu1GF5AzgzNqfW7U6OE/r8U3i0Sc+wF0BszqE8Vu80A8Hh9Ji6wMiUQ6ERKTB/DOPoLS/icjjOP/YL0K/ZxCoaJVSQ0NK48Q9sKsw2YNB7CXtQM04pvEZaaQ+QegwYzTBFPqnPpraJGEbM8uJbDi8fT0RDT5KBzzMIAjLQm2T07GkqcFXRHi0eRFUJxq/X4gckNHR0dZvs2x3skZGIeGELmfVRmVJTk9eaSWZD6A6cHy63BRa2trTSaJXNfdIMC8wCmjIi7GubtnXSRlJBFr+gyMeWSH+02o1O+gVGzo91OFY1GOqk1fWK3xPG81rWt7tgzfMhU2H8MPF31VeTdytxHfgOJfQdRFFXwsEW06k1ZJyFv24535odT01MGJeOouUZPvo3Td5363XB+LzZgUVCWIxVKzROSHARhqSaV0Q7k+bOPIjZO5hOwwoGgsdpm7eFlCxYLac9SRPICJARv6g9l89r6a3lNUbgumzUt604jNDxx99DF70EIHTjweH5mMpX4P6LUAdngrlTFmIAkc/x8h1Cr09RGrjpXx+GBfjqLdt0uXNm/evNhPL9za2tppRM4DUArmvqq/DHKMSkhv7DCBlW5M75eIpa4zDp7sqc6x9RuJMQ6Kdwbx2tJUNPUuB7jz7ZxjK1Dc73neS2XbU4zw+ODbc2yxyzzEJs/lo7GxcVQ81nQroL9Fjd/2WgG2wDGfr/WX3Ny14a8A1gdTQyVRF+5qj0bT76S19p9kMnmImNB8BT60Ez++IZ/PrxjA5uj/BFZ1GlNbtOcLE1h9YdTi/ld4qVynEKpJPt9WAHBtQDVytIPu21paWkI0TkK20msCKxqN7h6PNv2wGDJPAzgfQDgAsjh6SN2IHwRp8mOx9KFG8DCA3QLilVxfVvdPmMDa2VgMJcdLpVITKIoBCjKaPLouVN8h0I8GcfwC+abneU/X+nt2dHRsEsVdwdVU2T8sxovHm5K02l2jpaUllIwnv6wl6YDgkJ38tX4nb3qq5XzfKDhcqkICS21KbPAGwkD6duLfyrvNnRu/KsCzAdXKxMvLVlxK6yRkK29KYDU0NAxLxFKXhiTynIh+GcDQYG1a+oVENHVhEMaaiqaOcGAehf1N219n8bj9xrWW1ZcFbyDcBafpEFNELh6PT6Mwdp10Oh1Oxpu+oSI5BQ4IqBj+FqoT39ySqurcFmSdVWAPUZ2biKW+CJv7yZSRaDT9zuVLX/FU5YcAhuyCrPsdlEYiJRuCdbNqw6oXq+AkWpPAqlLFml8XrykWj22RX1+9o6NjkwAXbF3yAqiWqpfHYk1H0UAJ6UlgpdPpcDyaumBo/fBnAHwfwOgAB9pXxeNNzTYPMRlNHmcEjwLYMzDTKvLrOXPmlMr8oazA2jUmiIbmx+Opj1AUO08slj682GUKqnoFglEN2xtFR3G+67pFv7ywN999BMAzAVffOgA/TsST9zc2HrM3rbl3mpub6+Px5FdDYv6B/lzIMJAbCGFsSMosXbhwYVclH9DTYmK8Nc6/YQJrB76dtUcIxfH30dFMPvMIBNcHVDMjDswdvO2XEMBJRpOnFLvMQhH8GsC+FAnCYnROKpaaYePgkvHkF1TkPgTm2CAAYE39lkjZz86rsgKrH4wQxW2JWPJ3DQ0NwyiOvolGo0MTsdT3HZi/AXhPwMVx5dbrtH2FEdFfUZMBqLwvEup+IhlLnkBhvGVPjiVPWL9241Oi8l3sQtXVW7IR/b+B0Pi/Mbmi8smY4eHhkwFY04NGDHtg7cC5s9e3U/8fHe0udn4FwEvBVE7ZHxr+KY2UBB1HRZoBHEhRbLs+YLgB7onHm461KxhO/lZVfmqTE7ZT0yny87kdc9eWX02YwBqA9M4aWj8izyOFvZOIJt4fQmQhgEuDZq+98M/Va1d9148vHoqEbgKwiRoNANhbIfcm4qk74/F44L8si8XShyZiqXsVci+AdwzMkRtAAkf839fJqcINhOpY1djbDN99+Esg25E+Kr0PBMOtHaD6//bJ9vb2daJ6LgJ6lFCg58XjqdNprSTIOCrObyiGXhkmqncno8lTLHCUDw8h8jdAzgngPK4vmq6ryv2hMxtm7gaAN+sNzJN6t2joH/FY8spoNDqU8th6K2ginnwY4twDAY+oAt0Gcm6ljwdVCtd11wB6O6fxTQFUi2jo38lY8nPpdDpwR2JT01MHJ2JNdzgwTwAoS0XawKpp/H9cqir9nMSxKYG1pLW1tZOL0fZ0RdTufTdsx9HRbCE7D9Cbg6qnovh1IpGYSIslQcXJ5dy/KfAPiqJXhqjIXYlY6nL4swmtJKKpixyY+btwm5Fli7z8olAovFbuz91UX2RyoTxEBPK1kISfisVSs4IqhFQqNSERS15vBP+AykyqRY/9iv6/fL7tMX8H1+ZqAIaz+SZGKeSaYpd5Kh5PfQABaPKenJ48MhlL3WYcPAXoGejjFuj+qFi3dC/q/2/DgsRM5Y/DGZsae6vy+GDfe85Ui4e3IZvNrrQmQOus/wKAJQFV1TEwzu/KuI8Q4iucrUE+bqQo+t7PAHwzEUve7qfGefF4+j2JWGo+BFcBqA/kzCk2Imx+VomPDmlpMk2jrGa2vwM8mIim7k5FU0cEZdTxeHzfeCx5jSniGUA+CR4X3JYHs7nsj/0+iFwutxCCv3I6e+WdovhTIpbKx+NN77VtcOl0OpyMJU9LxJJZdaRDgY9UwMaXFwqFzf35xYaGhggEE/zvyUoVKrAsSmzwBsK+MRYnsARWJS7ndsxdK9BPBVhbm+LR1CU0WhJEHAAY0lV3G9in4+1W/jNFnadq3clOJBJjErHU1aJmPoCjAz1jDn5VsW+bHB7vqpCDdaIRdCSiqT+loql32TrMaDR9QCKWulY09KxAPoegJpn71oOXDYpnw5IeFwrnu5zUHTJdVB9JxlIL4vHU6S0tLb5O5Kampw5OxFPfK3aZFxQyB5BEBbWr30Fpff1uE2HBzaalklPxhIzAnj1flQmsPufZ5qP7al/j/mw+e58AtwdYX78TpC99CflfGI6tWWxA/0RxvO1SMUlU5yZiqasTiURN9T+a2TBzt2S86RswzvMAPg9WcqwrafFHlXMAZTLtoYKxguADRvB4Ipr6U2J6eiYsOWKUiqVSiVjTn0Ni/gvgMwDY+2t7DErOWfl8foUtA8rl3L8BeJBT+zbrKnCUKP6wfOkrTydiqS82Nh6zt29sO5WakIimLkrGUguMg39BcRmA/aoQwfT/BkIp2VBtsqVQeGR5FZ5jT2WOwxsId7AIWfzlpLFy3juLkYsAvBJQja03gtt5qzcJGm988+ZAbjDAWRTJ22/9AD4vxvlIItb0rc2dG37V0dHRPVgvk0gkxoiGPrdFuy6Gsqn4G4455MqKBsCKKfZ3bakBWxN8AGI+kIylnlXgBoPiTX5LbCQSiTEwoRaIXmgUhwX04pxdMC39fm6+O9c+bXa+A2OO4wzvdLLgx5FQ9/cT0VSrOrjZmO7W/h6VqxSp6amDjeBkEXzAFPEeCESrbzD9r6YxOtX/+5i8iAr3mItGo7sDGG3NGqtMYPWtTmLtEUK19OjoggXzVsXjqfNFA3tU/+Ch9cN/BOBCGjAJCm8ksDL5TDYRa/ovoAdRLDvjM2IPQK8eUj/8C8l48pquYteN7e3t66r1/FisKRpSvUANTlcoqzjePDvPjdht+NWVdXIwmXKuqr0dAOD7DsJXJGOpBxXyx3Cd3LP1lrfaY2bDzN221HefJNDT1OB9gNYxb7VTM+1F6kLftHFknud6iWjqHghO5Dzvgo8iOFEUJ4YksikZS80F5F4jxftyudyyar9MNDpjfFi63wuVmSqYaYDxPevTYC6OA6jAsqDaREzFg/JQKDTFpmsYSqUwE1i90NDQEEGPTduIY/HR0Vwuc3cinpoDRUtA1fcz8XjqwVwuczctmQTDOdzGDRIxN6rKDymWXcljYLKq/DQSqr88GU39TkPOHzzPzaMC3wgmG5OHaUhOBXAaoIcqK4B6nxPFl6pwRfRkSnpQqFfgJEBPKnZpVyKamieirWJkbmZ+5t+D+WKJROJAVZnlqDRvQdcxPe9Kdp4l3aW60zx3XtHatSmsl2lJjgePePeHYa/bvmgIiVjyOQB5gVNQp7QgHA7/13XdDeWaqlhsxkSgeFAIcriqNkLQCBTHK6S2DjSHnP4nIwRTfZ9Yr0ZQXgpNHYTaukqxqb193gouJ9szPDx8srF4bRZjd+VdOOJ8pthlmgCMDWjsc0MymXx3NptdTmsmtvOm5p0lLd3iIPwdAHUUzS4zSgWfhTGfTcRSSyD4q6h6oVLIc9vdfl3zGo2mDwjBxOAgBtWZCtmfYn47XxaPeIXsXyr5jHQ6vWexy4yktAedOgiaFdKsDtBjd4/AYIFAHxsxesQTlUpkNjQ0RIYOHXoYTKhRVI9W0TSMTBLwgGA/2azinNrePs/qPhbZbPZf8VjTTQI9j1M+YHd9fwD7K/QsGAfFLoNELPUSgP8q5EVHsNzArABkpSpWO8bZ+qVSuLgexfBISHEIEBoKwQhVs584srcq9hNgAhQHAcXhW/cUrekOfKrd/Q9KVab6fcWSahyLEqtupnue21TvFEOY4ljsHm/s3viizfPnuu6riWjqC5DANnXfCyW5GcD7aOPEdt6UwMrn8ysSsaa7AT2NohkQ+0FxoUIuLIYMErHUEgWeBuR5gS4CZKXAdKk6GwFAHLObGhkOwRgI3gHFAQAOAMzuW7cdAGy4tDOUnJJ+odIP6e7GZM5Gzdrd2RCcrRCsX7uxOxFLLYTgGTHyrAqeETUvCWSFhvXVUCi00nXdvqp9JBaL7QXUjXUM9hGntA/EOVCNHgSRgwB9JwzqAcXWSkhqxIDiQ+j53tZG5wEYbPGbMKEzIRjOmS87EwFMFChUt94G8YZ19uSvYJye/3be8PFFBG/KU/nHnLfkcrkBfNtuQWKmGhVYginWhIO8gbDvaRadCnuPNizv6Oiw/rZ5r5CZnYinToPi1CDqsAKzErGmz3n5tmto0cRmtr8+2ch1cJjAKndgLcB+gM54fYnZegxhq0ekus2RBObMB8K12fbskxV3coyygbs/iAA4HIrD9XVbE9lqYiVBsWSQiKUMgLVv+b3R/wthDeBgq73q6xEujbTM/CSbz94WlMHmcrlliWjqOwC+x6knA+SF/i5IPY3J/X/xi0Hlj0WpRTcQCtj/qi/RWH0DoQZm3sXRC7UkTQB2D6Ym6w+TjUm3GvEQIYPFdtWy3nx3HoCnKRriswX7RZXS/1VlcxSbnZxAroFj3vKH6cnqRQxzw3XOZUEbdrje+TEEdC7JQOl3UOo49VYkZTSsVagosugIISuwduTc2ezbBWbes9nscoF+McCaXK8hZ3Y0GuUFX8Tq4G377Q1yHUVD/BUH44JcLre+Ov6fmUyJEzJg/lMyxQ/t4BintbiuW1TIZ8FyPjKgvWggVRXGhqTMWs/zVlfyAS0tLSFAJlijNCFhBVafBiVT7R1csOY9m8/eDEVrgJV5WtiJfJdGTWyl136F4Tr5LYBNFA/xxbasuCVbyD5YvQeyAouQAbI8bJzmQqHwWlAFkMu1ZSG4lapA+u3ADaCBuQ3HpRSVPw63cvHKCbDoYiNjhBVYfWuUtQksleBV3qlTOg/AmsBqs+KiZCx5Au2aWOn/9PaPruuuEcUciof4gFcR1i9X2ROYTLET0m/WOYoT3PnuoqALIhxxLgKwhCpB+rcXDSiB4/tgXapwHM44xqqkRl0dFtFwtmdmw8zdYENPuL6tJXCVd7lcbhkglwZYrUUhv21sPGZvWjixjb5vjFXlDQak9v13wYXZbHZlNTcEbL3pihCy63SryGmZQuYfFEXPl0XQT1ESpF+UBpDAEQuqTapQVVKyq+L6Fdd1N9Bwtqcz0rm/zeOLFINZeefl234jwEMBVu2xEaf7JrC3K7GMPhNY2fnZvyvwCEVEatd3xR9yucyd1XxmMpncB8AwSp+QXUahOC+Xa3uYothmr81n71PIDZQE2VVM2PQ/KLWi30/lq0psuplOwBsIdxAN2dwaotNtd5cF1e8oIXw+gPWB1W1BczyevIBGTuxasnes9D+hiEiN7knPdZU6z6/2U0slZzJlT0i/vKgveYXM7yiH7Rm+of5iAZ6lJMgusKK/F5ek0+kwAP83JtdqHIuyqi8SE1h9xzsWN3DHCwBMUKc2n3/kRRX9WqDVW+Un0Wj6nTR0Ygs7TGDlcplWQBZSTKTG6IajH2lvb19XdYNRTKb4Cdll5+l7Xr7tp5RE7zz05EMbofoRAF2UBtlJ+p2MKBaLEwFEfC+BULHyCRmLbqZTgA3c+5KNWlyBpZz3XC77SwUyARbBMEfM7GnTptXR2okNOG+77Kky6CC1xlc9z2sflEDc4Q2EhOySzQiuyhbavkZJ7JhsIbsAkK9SEmTnDGsA1TTFsA1JGTNy5MgXqyBneypzmMjY0Tzb69s5rLwDYEJhfByKjcFVcRwxZrfdv01VIHYsa2/DyNHDbwfwEkVFamMF1ge8fGbQkqpGmcAiZBcipt9kc5lLKIedw8u3/QyKuygJ8vamNYBkhGPDsThd3Nra2lnJJ6TT6REA9rJGZ0IOExl9qpPYe4SQiUsAQCaTeQEi3wh4EPWlZDR5DLWB+J23TWBtdRDkSoqK1MAu/KI4OBuADtrSL2Yy54GQneK3Xj77qcG0Vz8ucuF65xNgrxrytvH2QIJSZQP3naC0uWRZUqPIdaXvWGiSxYsF570HL992FaBekHVdRW45+uhj9qA2EL8v2m/L5s4NNwH6HMVFBpHNcPSD2Wx25eA6AqzAIuRtQ0vFLV4+80kEuHFsf3Fdd42E9EQAaykNsgMr639QasOxOK1CktexqrF397hx45bSbrYnlUqNB1Bv6/iMCCuwthGHijkPwJYAy2B8XaT7N1QF4md2KoHV0dHRDZVvUVxksFxVgZ7leV7H4NuLTOB0ELKjuFJu22e/vT8BJq/6TTab/ZeKnAmgRGmQXu1MQ/1P4NhwXEoqfyxKxbEpgbVozpw5XE96o2j3F5PDOsNMYG1DLpf7LxRXBNxROzURTZ1LbSB+xdnZH/QKmdsA/I0iI4PAFdl89k+D/RI939LxBg9C+g4qr8vl2z7GQKkcTnZbK4BLKQnSC93jx++xZADRiwUVWJU/FiWqNiU2eIysz1here1/JcCquR1zWc37FsL1zo8FeCzgYrgmkUgcSG0gfsTZhZ81juIisJ8Jqe7u+2cvn6mNWzOKPD5ISN/BnnzPy2U+DVZelQ0vn/mJQm6gJMhbgtIX+5skTqfTowGM8b0QQqWKJ2TUppvpBItoOX0EN3a3hmDishdc1y2KwccAdAZWCILhMKHZDQ0NEWoE8Ru7ksBCppDJA/Inio1UifnD1g85q1YCYpu/pSNkYHGeXJottH0N/IKj7Ow7fuyneDMhKVdQWiwW97ci9pKqNKa2Zs8XNvLegXAcm307zntfMe38zL8BfC/g7lvD0Prh36A2EL/h7OovGIS+BGADRUcqzD9L2n3CQ08+tLFWXsiwgTshb6VboOdm820/pCgqw5w5c0oldH8UQJbSIFtjjgEEpaWQDcH6+ipc6CIAJlujMgr2QeprokWt9e1UOO87IlznXAng7wEXw9cSiXSa2kD8xC4nsPL5R14E5JsUHakgz6uUjisUCq/VlpfjsAKLkP+xQUVOzuazN1MUlaVQKGwe0ll3ogL/oDQIBnKrmFhRSVzxW7Gj0Rn7Ahhqi8qow5vo+hYO7PXtlPO+I1zXLcIx5wLoDnQuwJhbE4nEGGoE8Y/S9oNx48deDUgHxUcqwAqV0vG5XG5Z7cUMygosQrayzMBJ9jQaJ1VgbsfctU5ITwDkv5RG0DH9r8Cyoa9TFapKQiFj1X7f3R1iIqMX0un0EAD72LtU8Ojo2+F53hMAgl5Fvh9M6HpqA/EL/UpgzZkzp2Qg5wHooghJGVktJT02l8vVZoBm87d0hOw8f1cpHZXPu49TFNUlm80u7y6FmwBZSGkEGDOAI4QW7GNShQoslIxN+/36BQvmraLh9DLNpdLUrSplKeEiE1g7wcjdhn8bwD+DLQU9LRlLfpTaQHyxtPX3F/N59/FELPUNAN+nGEkZWG0gx+XbM0/W4stFo9GhsPlbOkJ2LnT8/ebODZ/o6OjYRFkMDu3t816JxWIzHITnATiUEgkeoSGhAQSlOtXv8bpW41iUWPSFFfsg9U3J6t6mpc2bNy/mJL89ra2tnclo8hMqkgcQCqocFPKLVCqVy2QyVV8z4tGmH4roB8u37unzXi577Fv/ORFL5fqI55Z6+UwT+nEZUTweP0g0dH8f//u3Xj5zJa2svDgD+WUvn/kRVF2KkQyQVxxFUz7f9litvmA4HJ4Cm7+lI+Tt3HzgMi/fdiaTV4NPPp9f0V2KzATwFKUROFa7rrumP7+YTqfDgEz0f5RVhWNRYk9igw3cd4jF/a/wUkdHRzeneOfIFrILRPCzgIthN1PCrS0tLdVP4gn26rHH8vxRZ0IfT5rYx+8kk9Fkql+vrs65fb2HquxB6yo/zgB/34Q1dA6A1RQl6SeLnRKSmUKmpgMxLSqPD5JAIsAqFWn28pkfUBq1Q3v7vFfCdU5KgQylESiL7HfyxhgzAUDE9yIIVeFYlEW3DjuswOrbJtThDYTkDUaMGv5/UPwr0EJQxF9etuL/BXI9EOe8Xf2dni+GzqL1VJfwQD/Ane8uSsaSZynkbgw8IUYCtUZikSI802t/5Lmaf1kJTe1HVSkh/g6VgcckjA/lMm10hGsQ13XXNDc3z1q/ZuPvIDidEgmCUWq/kzfarVMhvi8kNiNHjnyxCs+xqAKLN9HtwJ4s/nKSDdx3ldbW1s5YrOk8B5pFkI8Sqn49Fmt6OJ9vK1TrmQ5Mm0J21Fv7aACHb/P3xQD6vEhIBK/sus+rH0wkEp/3PG+nC3NKXaUTABlH66ku4XJ8SDafvS8Zb7pSVb9OkZKdXCY6IMWT8rnMMl+8regUZf6KBMh/AfDz19au+vLChQt5WUeNO9wtLS0fXr7slZVQXEiJWB9Z9D8ZIY4NX8QsaW1t7azkA6ZNm1YHYF9rdMZhJc4Ogtwptn43ycq7/pHPtxUSsdS1AD4f5PyAA72tsbHxiPb29nXVeGA2n70ZwM19/f9ktOm7Knr4G7YLPJXNZy4ow6P/A+CdPf89VFU+AuAXu7CKnLvNX0oAXgR46Vflt7VyKV6u7XIoeKU62Qlbx5+HbahvyuVyy/zyykatbvRJyLa8KtATvXzmIiav/MGcOXNKXi7zWUAuAMCeJxajA+j/pHZUm1S8YnvUqL0mwqITBcawAqtvo7DYt1PDCqx+srlz41cFeDbgYpgaDg252v49Va/b1m8SyCd39nfTR6X3UaB5m/XkfoCJ42pQzg3aqFP6ECBPUKxkB1zj5TKnPfTkQxv99NLCbDoJBg+WNHx4Np+9j6LwH16+7Xo4ziwAr1IaljrbA6iqEDuC9YoHByHFZJt0pq4Oi2g525NMJvcCMNLexQJMYPWTjo6OTeo4n0TAe4cI9OPJWPIMu8fovALBvdvYzWGxWNNRO/O7xbD5OLbpK6kObqD1VIeyfsOUy+XWqxSPB7CEoiVvtXNALvTymYsAGB++PyuwiM1sguJiL59pLhQeWUpx+BfPc92wcY5S4B+UhoUxqTr9r8ACJlkggooH5eKoTfv9Std1N9ByerMlyy/nCbMSZKB7qSiuC7ydQH4Vi82YZPcY35x4cqA718xd8LFt/vvlLVs28iRalSh7iXQul1tm4JwIYA3FS3pYJqozvXzbL/348rFYbCyAERbMw3qqIumFLBzzLq+QuRq8qcAK3PnuolG7DY8CuIZzahWldetWvtTv3xYLKou08o2pDcxki3SGSYy+zMGIzV9Mbshmsys5ywNj6MYhXwICX8k22kHx1paWFmub2udymQcAbLu3fjgej++wOjMVS6Xwv95ZgOLGjo4OtnCoEhU545/Pu4/DMe9jwEwAPCohfU+2kG3zrZMjdVZ8S6eC8yD6AFWS9LBGFZ/y8pkmz/N41MAyWltbO7185iKBngrgNUrEgjUcWNzfvnTNzc31UOzteyGESpWvwBKZbIvOCBNYfWLE4sp64fHBcvDQkw9tFNXPgF8EJZcveeXLNi8HqnrzNn8fISbUssP9WLFt83YtqXMzLaZ6VKxJped57WK0GYqNFHMgKQG4wstnZmaz2eW+9gOMsSKB5Tia9XLZZjhyEgAeEws0cm+45LwrV8hcR8fMbrL57F8Nwkcq8AilEdxkxJo1myds/Qify0AqX4ElFjX2Vt5EF4h57mXimcAq1x5ayD4I4CYaDL6dSCQabR1eKCI39MSuPXsN+jxG2NjYOEqB07ZZTOYVCu6ztJYqxrQVNfr52ZwjOB7AOoo6ULwC47zPy2cuhz/7Xb110bbBydmczWZfBgDPa7unpN2HieIWqmrgeB6OnOTl20502132KgwI+fwjL+bymZk9txSyMtq3QWn/qyrCKNnQw2R9NY5FKSxq4q68gbBv104s7uvDGwjLyZDOukvA/s5hMc5tb3e0zq9kMpnFEH14m30gmmxMHtbbz0ZCQ86AYPj/flbYvL3KVPya4Ew+k4FjZoC3IgXFI5gTrnMO9ea7cy0alQUVWPI8tqm0KRQKr2ULmY9DnWYAi6m41rMJwBXhOmea57XdQ3EEEt16S6E5HMCjFIcv99d+JyPUimC98lUl6XR6CIB9rDF6VmBZbhOc92owt2PuWoF+ijaDA0RDP7Z2i9W33CIYlnP6kMQn/rctY9WoUcP/QiupLk41HuJ5XodKKc1A2WoWq+AEL5c53XVdu5KVNtxUo9qr4+8V3AeGdNa9C8D14FEyS310zIFjDvbymctd191CkQQbz/Oe9/KZGT1Hibkn+ysqHcANhOr/YF31uUo/orMTk2HBUcvXMYYVWDtQqAnWBnfKBFa5yeaz9ynkNkoC5yeiTS02DixUF/orBC9vs3Ge1fOlxhvEYulDARy9zd56S2trayfVosprXLUelMvlFkpIGwEsoNgtC5Cht8Ix787lMvdbOUIbjhDu4Nu4uR1z13r5zAWi2gzgGaq0LWqLh+CYo7xc5nTP816iRMi2eF7bPT3J66sBFCmR2qcEeaz/zp4F1SZVqCoJ2XR8EDCjRw9lkroXem6XHmbt/m/YA6sSdBfDF78pwRFYB1OvS6VS1iWAXdctqpFbtwlw9yh1lU550x4h5hNvCoLF/JaWUX2caj4sm80uL2l3GpDfU/RW8E84zgwvnz3b87zVNg6woaEhAsh+vh/ITvROyRayD27u3DgNiovBPjl+ZoGozszmM8d5ntdBcZC+6EleX6xSOhwKHi2t7TX8noE0iVXBRAuipircQKg2NfZewsqAvohY3P8KurF744uc4wo4VwvmrVLgAkoCY0wRN1Y7j1CVXSZUugHbnEhRyBvN3KdNm1anio/874eRy+VyC6kO1afqilcoFDZ7+bYze5rJdnEKfMlrUFwcrnOO8DzXtXmgdXUjJwEI+X4goZ1z/Ds6Orq9QuZqJ4xpUNxJVffRpgs8JtBTvHxmeraQnUeJkJ0ll8st9AqZk1QkBWA+JVJzZI0UzxvgZ1hwhLDyCSyFmWyR3vAYWV8uEYzNCazlHR0dmzjLldovM3fTPwYAHJuINV1s26A8z3saQGabf5oRjaYPAIAxo/Y8GcBeb/jdqmzePkgMWua0p5lsDKh8TwNSNroBXB+ucw7yCpmrXde1/tiJiJlqwzhUi7vk+GcymcVeIfMhFScKNnyucSVFDo6clM1nGrP57F/BXmak3455W9bLZ2IqOBk87j/YdEEw20BiXj6TyufzKwbo6/n/uEeoWPljUSqTbVEgBftf7UA2FiewlMcHK0y43rkQwApKQr8bi6UPt8+tflNiShwpbW3mLrrt8cG1QzcMnUMdGBwGtfTP87yOcF3oPQq5mVNR0xhA/gjHHOrlMxdY16R9R4uYwobjBLply5Z+ObK5nDvfy2dmqMjxAB6nKdQMJQj+7CjiXi6T6LlZkIkrUpb1IpfL3O3lM41wnCQg91IkVWU5gB+ES87+Xi7zkXy+rTDQD0w3pvcFEPG7HzJy5MjKH4sSe3pgObyJbkdMtHhsnPcK47ruq1C5mJJAvaPm9mg0OtSmQYXqQn8E8EZrHBE5N5VKTQEwcxtXafZDTz60kSowSPtbDSwCa3L5tnNE9X3gjUg15zACcq8YPcrLt7X0lFUGChG1oQLr5YGWk+dyba1ePnOkCs6A4EmaxqCxWgQ/DhvnAC+X+UCmkMlTJKRSeJ7refm2E+GY6RDMBo/9V5JHBXpauM6Z6OUzl7nt7pJyfXBJSjZUm1Srn5M1PbCUN9H1LRsbjtT27bmyAqsa+2Oh7Q4o7gq8IASHhBH5oU1Dcl13i0Jv22bB2EeLuB3btpRx9EZaweBRM83XsoXsg+E65zBR/AK8EWmwKUEw2zE41Mu3nZidn/17cBdmseEGwnI5M5rLZf7g5TKHq8jxUHVpKlXjb6r41LANQyZkc5kvu/PdRRQJqZqj7nntXi7zEQnpZFX9FrZWCZGB8x8Al6uU3unlMzOy+eyfKnE0X8Xxf7WJouKNcmcdNms4tulv4n8Pn0cI+3aL7E1gKSvvqka46FwI4LWgy0EFFyYSTSfaNKaQym/evAUhus0C8iQvSRpk26ull3Fddw2Az6WiqesN9BqIpDlFVWWDKG7TkPlZEKut+liVp/r9ZJZq2Z1YzeXaWgG0JhKJRpjQlwA9Gf4/olJrDvYqBW6Tkv42255l1RsZdLLZ7HIA3wRwRWJ6egac0tmAnAZgKKWz07wE4C9wnDme53pV2QMcM1lU/L2PQf5Z6WdsHLlxsmjIGkUrlRwmMvqGFVhk4HHrY+7L8XjqElHcHHiX1eiN6aPSh7mPuS/bMKBMIfNUMpZ6TIGjthusyq+p/YNLuFaVBsB7k7HkySryLSgO41RVlGeguHZIV93NczvmrqU43uQ2+/8IoZqKOTOe57UDaEkfld6nVKfnqtHzIJhCvek3myC4T4Hfjxw1/D5egU5qFOPNd+cCmHv00cd8oS5c/BCgpwFIwYZbW8vPYkDniOIP2UK26s3xHYMFKrjMzwIMQR+qeARmZArEGp3rLBQeYaVkL8Tj8ZFQjLF1fJEiK++qSS6XuSURS7UAOCHgotirFDE3Ang/rOnJKr8B9K0JrM2hOrmDmj+4hGv55Xpu1LonHk+1iOKbAA7mlJWNEoAHoM4vvIL7EABDkbyZdDo9uthl/O/kOJX/Nq7nG5fvAvh+IpqeBZhzIDgRrMzYGbYA8gAUd4br5R7XdTdQJMQvLFgwbxWAXwL4ZWPjMXuHw12nisoHsDWZVR9QsWwAxIXqXAnrw9ls9l+D6ksVsvMAzKO27hh1nN1EYUv1yov06/qYZ41MEntF0+m2u8s4y1UOpuucjxe7Sn+D1bdb7oRtAccn401fzebavmvDeEJ1ckexS38CYOT/xih/6DkxRgbT5nzwjiaXy/wBwJytRxb0IkDfz6nr9+ryLwh+JyH9Xc9xENIHxWJx/xpqE9dvRJznqmmvXsF9AMAD0Wh0aChUNxOqZ0FxMoA6atUbrAD0QahzjzrFB3K53HqKhPid9vZ5rwD4NYBfNzQ0DBtWP+y9KtIMxSwA77B5uwCwQFXnSij08ObN69s7Ojq6qRH+IpfL3A7gdkrCbkIoTVKLSu3e4vEtAhOXVcd13VeTyeTxWpK7AD0o0GGm6nfi8eRruVz21xbM64ZENHUnBJ94/d8cY26gxg8+YR+96xtHFpLTk0eqg88C0gJgBKfxbXkawB1OCbdn2jPPUBw76QYYmWJDDexg9cEoFAqbAdwD4J5EIjFGjJygwPECmaXAHgFTp/UCZCHqljT0cD7vPk4LIzbTc/PpfT1/kEwmxxkjSccgqSJJQKf5zAfZlhWALAC03QALSqXO+e3t7es464T4IcLGFjiYY+XQjHmKEzw4ZLPZf6XT6fcUO/VjcPQUqOwnwF5amW/CtwDY3I/fG1mNfVdUrkwkmpZ6Xts9ZftQB1ugWP2Griv6eVpB1gI6/I2/idnx7coh8xsY5wM9f3suOz+b2/Hygg2C/70nxGymdVRAx/z88ul0ekSx05wO0XMAift9POXMWQBagMp9DnBfT08xsosk48kvq4rfr4bd4uUzw1BD59FbWlpCS5euONqBHg/Be6F4D+w7arQCkAUqJq/quHV18lglbhcjxK9srdAMHaYqR4jiSEDeBeAgoKZ602wB8AwgC6H6hIg+JWF5MpPJLOYMEkIIIX37+nPmzClREqQSWJPwSaVSE0xRTlXoBwVIwIazX7vGq4A+DJV7S+h+oFAovEb1HhjJaOpXKviUz4fxby+fOaSWXzCdTg8pFvEe1VJSVOIQNECxj49kvFKBpwT6uIosiJScdne+u4gWRMiuE4vFxjpO3SGqZn9RTAB0IiD7AdgPwJ7YWr1Zjv29BGAVICshZjFUlgFYrILFIs5z4W4867a7S2FNM1pCCCGEEP9jZcVSLBYb62h4JgTHAHqMnU319EWFk4Wq54Q1m81m/01Hu7wkYqkHABzn82Hc5+Uz7/elDZu6w+DoYQq8y4EepMBUAHsP0ittAfCCAC+o4AWoPC1qFpak9FQ+n19BayGkeqTT6T27u7v3EJERqqFhUpJ6DZlRYmT7GxBD2IKibHbEbDIh0+k4zmt1G+te4427hBBCCCH+IxBH7mKxGfs7KB0DmDSAowHZ32dDeBWij0PlCah0hI1k3XZ3CdW3siRiqafh88bDCv15Lp/9vC1zMuuwWcM3jOia4jg6RQz2g2Avo2ZPAfYEZB9ARgE6DFuPJI7C1rP+owCs3U40wBoINohio4puhJHX4GClQFao4mUVfRlwVjhO6UVeeEAIIYQQQgghg0sge0al0+nRpsscWVIcKSINgB6OrdUdg31L2msAngfkWag+oY48ARSfyOVyvBK3yrS0tISWL31lE3x+c56qfiFXyF7FGSWEEEIIIYQQ4mfCQRy067prADzS8+d1nEQisZ9qaH9Ap0J1qohMFsWeCozF1r4bewAY1o9HKoCVgKyEmpUQLAdk5dYKD3kecJ4TKT7ned5qqmRtsHTpqv0cnyevtmq1PM/ZJIQQQgghhBDid8IUwRsYz/NeAvASgEf7+qFoNDo0EonsaYyJAICIDFHVoW/5sdWO46gxZs2QzUMMe234D5HSVBs6iqk6TGARQgghhBBCCPE9TGDtIoVCYTMAXqFtOWJ0ig0HbOvqsIizSQghhBBCCCHE7zgUASG9IJhiwRhedl13AyeTEEIIIYQQQojfYQKLkN4QTPX9GBQ8PkgIIYQQQgghxAqYwCKkN9T/CSwFG7gTQgghhBBCCLEDJrAI6R0LKrAME1iEEEIIIYQQQqyACSxC3sKsw2YNB7CX741b8AJnkxBCCCGEEEKIDTCBRchb2DJ8y1TA/3cQGnGe42wSQgghhBBCCLEBJrAIeQsqOtWGcRgT4hFCQgghhBBCCCFWwAQWIW/BKKZYMIwthcIjyzmbhBBCCCGEEEJsgAksQt6CiNiQwHoBgOFsEkIIIYQQQgixASawCNkO8f0RQgEbuBNCCCGEEEIIsQcmsAh5K2pBDywF+18RQgghhBBCCLEGJrAIeTMCwWS/D0JFWIFFCCGEEEIIIcQamMAiZBuSyeQ+AIb5fiDKI4SEEEIIIYQQQuyBCSxCtqUbU20YhmEFFiGEEEIIIYQQi2ACi5A3W4QNNxCirg6LOJmEEEIIIYQQQuwJ1wkh/0McGyqwVruuu4aTSQghhBBCCCHEFpjAImQbjFpRgcXjg4QQQgghhBBCrIIJLELehPq+AkuZwCKEEEIIIYQQYhlMYBGyDQILmrirPM+ZJIQQQgghhBBiE0xgEdJDc3NzPYB9fW/UwgosQgghhBBCCCF2wQQWIT2sW7dusg02oSpMYBFCCCGEEEIIsQomsAh5g7ANNxBCnW4msAghhBBCCCGEWAUTWIT0IHbcQKiRSORFziYhhBBCCCGEEJtgAouQHkTUhgTWctd1t3A2CSGEEEIIIYTYBBNYhPSgxoIbCNnAnRBCCCGEEEKIhTCBRcjriP8TWGzgTgghhBBCCCHERpjAIuR/+P4IocMKLEIIIYQQQgghFsIEFiEAjj76mD0A7Ob3cagygUUIIYQQQgghxD6YwCIEQDhcnGqHRfMIISGEEEIIIYQQ+2ACixAAImpFAssYhwksQgghhBBCCCHWwQQWIQDE+L//FYDu8eP3WMLZJIQQQgghhBBiG0xgEQIAYkMCS1+aM2dOiZNJCCGEEEIIIcQ2mMAiBABsOELIGwgJIYQQQgghhFgKE1iEAICK/xNYvIGQEEIIIYQQQoilMIFFAk86nQ4DmOD3cSgrsAghhBBCCCGEWAoTWCTwGGMmAIj43phZgUUIIYQQQgghxFKYwCKkaMUNhDASWsTJJIQQQgghhBBiI0xgkcBTEjsSWKpdz3M2CSGEEEIIIYTYSJgiIEFHFJN9PwjFxnwhv5KzSQghhBBCCCHERliBRQKPQib7fhAiiwAoZ5MQQgghhBBCiI0wgUUCj4jacISQDdwJIYQQQgghhFgLE1iEWHCEUGGYwCKEEEIIIYQQYi1MYJFA09zcXA9gnO8NWViBRQghhBBCCCHEXpjAIoFm/fr1k6ywAwVvICSEEEIIIYQQYi1MYJFAY4wz2YqBlFiBRQghhBBCCCHEXpjAIoFGFDY0cEcXuhZxNgkhhBBCCCGE2AoTWCTgBiCT/D4GAVa1t7ev42wSQgghhBBCCLE3fickwKj4vwJLweODhBBCCCGEEELshgksEnB0su+HwBsICSGEEEIIIYRYDhNYJOj4vweWKhNYhBBCCCGEEEKshgksElii0ehQAGP9Pg5lBRYhhBBCCCGEEMthAosElohGJgMQ3xuxYQKLEEIIIYQQQojdMIFFAkspZMHxQQAa4hFCQgghhBBCCCF2wwQWCSyiMtmCYWg4HH6Js0kIIYQQQgghxGaYwCKBRRWTLRjGUtd1t3A2CSGEEEIIIYTYDBNYJLCIo5MtGAaPDxJCCCGEEEIIsR4msEhgEQsqsBTyX84kIYQQQgghhBDbYQKLBBaFBUcIRVs5k4QQQgghhBBCbCdMEZDgIt8B8F6IGVFTr6UyGhDZ8aublWrwYC6f/TPnkRBCCCGEEEIIIYQQQgghhBBCCCFkEPn/9EGL/LC/HVcAAAAldEVYdGRhdGU6Y3JlYXRlADIwMjEtMDQtMTZUMDk6MTg6MzkrMDA6MDBoMHqbAAAAJXRFWHRkYXRlOm1vZGlmeQAyMDIxLTA0LTE2VDA5OjE4OjM5KzAwOjAwGW3CJwAAAABJRU5ErkJggg==;strokeColor=default;fillColor=none;" parent="1" vertex="1">
                    <mxGeometry x="261" y="154.50000000000003" width="40" height="20.77" as="geometry"/>
                </mxCell>
                <mxCell id="17" value="df1" style="ellipse;whiteSpace=wrap;html=1;aspect=fixed;fillColor=#fff2cc;strokeColor=#d6b656;fontStyle=1" parent="1" vertex="1">
                    <mxGeometry x="-33" y="310" width="107" height="107" as="geometry"/>
                </mxCell>
                <mxCell id="18" value="df2" style="ellipse;whiteSpace=wrap;html=1;aspect=fixed;fillColor=#f8cecc;strokeColor=#b85450;fontStyle=1" parent="1" vertex="1">
                    <mxGeometry x="45" y="310" width="107" height="107" as="geometry"/>
                </mxCell>
                <mxCell id="19" value="" style="ellipse;whiteSpace=wrap;html=1;aspect=fixed;fillColor=none;strokeColor=#82b366;fontStyle=1" parent="1" vertex="1">
                    <mxGeometry x="-33" y="310" width="107" height="107" as="geometry"/>
                </mxCell>
                <mxCell id="21" value="" style="curved=1;endArrow=classic;html=1;" parent="1" edge="1">
                    <mxGeometry width="50" height="50" relative="1" as="geometry">
                        <mxPoint x="85" y="74" as="sourcePoint"/>
                        <mxPoint x="75" y="4" as="targetPoint"/>
                        <Array as="points">
                            <mxPoint x="55" y="44"/>
                            <mxPoint x="85" y="34"/>
                        </Array>
                    </mxGeometry>
                </mxCell>
                <mxCell id="23" value="INNER" style="text;html=1;align=center;verticalAlign=middle;resizable=0;points=[];autosize=1;strokeColor=none;fillColor=none;fontStyle=1;fontSize=10;" parent="1" vertex="1">
                    <mxGeometry x="29" y="-16" width="50" height="30" as="geometry"/>
                </mxCell>
                <mxCell id="24" value="" style="whiteSpace=wrap;html=1;shape=mxgraph.basic.pointed_oval;strokeColor=#82B366;fillColor=#fff2cc;rotation=0;" parent="1" vertex="1">
                    <mxGeometry x="40" y="327" width="39" height="73" as="geometry"/>
                </mxCell>
                <mxCell id="25" value="" style="curved=1;endArrow=classic;html=1;" parent="1" edge="1">
                    <mxGeometry width="50" height="50" relative="1" as="geometry">
                        <mxPoint x="-13" y="344" as="sourcePoint"/>
                        <mxPoint x="-23" y="304" as="targetPoint"/>
                        <Array as="points">
                            <mxPoint x="-13" y="334"/>
                            <mxPoint x="-43" y="324"/>
                        </Array>
                    </mxGeometry>
                </mxCell>
                <mxCell id="26" value="LEFT / LEFT OUTER" style="text;html=1;align=center;verticalAlign=middle;resizable=0;points=[];autosize=1;strokeColor=none;fillColor=none;fontStyle=1" parent="1" vertex="1">
                    <mxGeometry x="-27.5" y="279.5" width="140" height="30" as="geometry"/>
                </mxCell>
                <mxCell id="27" value="df1" style="ellipse;whiteSpace=wrap;html=1;aspect=fixed;fillColor=#fff2cc;strokeColor=#d6b656;fontStyle=1" parent="1" vertex="1">
                    <mxGeometry x="312" y="-50" width="107" height="107" as="geometry"/>
                </mxCell>
                <mxCell id="28" value="df2" style="ellipse;whiteSpace=wrap;html=1;aspect=fixed;fillColor=#fff2cc;strokeColor=#d6b656;fontStyle=1" parent="1" vertex="1">
                    <mxGeometry x="390" y="-50" width="107" height="107" as="geometry"/>
                </mxCell>
                <mxCell id="29" value="" style="ellipse;whiteSpace=wrap;html=1;aspect=fixed;fillColor=none;strokeColor=#82b366;fontStyle=1" parent="1" vertex="1">
                    <mxGeometry x="312" y="-50" width="107" height="107" as="geometry"/>
                </mxCell>
                <mxCell id="30" value="" style="whiteSpace=wrap;html=1;shape=mxgraph.basic.pointed_oval;strokeColor=#82B366;fillColor=#fff2cc;rotation=0;" parent="1" vertex="1">
                    <mxGeometry x="385" y="-33" width="39" height="73" as="geometry"/>
                </mxCell>
                <mxCell id="31" value="" style="curved=1;endArrow=classic;html=1;" parent="1" edge="1">
                    <mxGeometry width="50" height="50" relative="1" as="geometry">
                        <mxPoint x="331.9999999999998" y="-16" as="sourcePoint"/>
                        <mxPoint x="321.9999999999998" y="-56" as="targetPoint"/>
                        <Array as="points">
                            <mxPoint x="332" y="-26"/>
                            <mxPoint x="302" y="-36"/>
                        </Array>
                    </mxGeometry>
                </mxCell>
                <mxCell id="32" value="FULL / FULL OUTER" style="text;html=1;align=center;verticalAlign=middle;resizable=0;points=[];autosize=1;strokeColor=none;fillColor=none;fontStyle=1" parent="1" vertex="1">
                    <mxGeometry x="312" y="-80" width="140" height="30" as="geometry"/>
                </mxCell>
                <mxCell id="33" value="df1" style="ellipse;whiteSpace=wrap;html=1;aspect=fixed;fillColor=#d5e8d4;strokeColor=#82b366;fontStyle=1" parent="1" vertex="1">
                    <mxGeometry x="630" y="104" width="107" height="107" as="geometry"/>
                </mxCell>
                <mxCell id="34" value="df2" style="ellipse;whiteSpace=wrap;html=1;aspect=fixed;fillColor=#f8cecc;strokeColor=#b85450;fontStyle=1" parent="1" vertex="1">
                    <mxGeometry x="927" y="104" width="107" height="107" as="geometry"/>
                </mxCell>
                <mxCell id="38" value="" style="ellipse;whiteSpace=wrap;html=1;aspect=fixed;fillColor=#fff2cc;strokeColor=#d6b656;fontStyle=1" parent="1" vertex="1">
                    <mxGeometry x="780" y="104" width="107" height="107" as="geometry"/>
                </mxCell>
                <mxCell id="41" value="1" style="text;html=1;align=center;verticalAlign=middle;resizable=0;points=[];autosize=1;strokeColor=none;fillColor=none;" parent="1" vertex="1">
                    <mxGeometry x="730" y="97" width="30" height="30" as="geometry"/>
                </mxCell>
                <mxCell id="42" value="2" style="text;html=1;align=center;verticalAlign=middle;resizable=0;points=[];autosize=1;strokeColor=none;fillColor=none;" parent="1" vertex="1">
                    <mxGeometry x="730" y="127" width="30" height="30" as="geometry"/>
                </mxCell>
                <mxCell id="43" value="3" style="text;html=1;align=center;verticalAlign=middle;resizable=0;points=[];autosize=1;strokeColor=none;fillColor=none;" parent="1" vertex="1">
                    <mxGeometry x="730" y="157" width="30" height="30" as="geometry"/>
                </mxCell>
                <mxCell id="44" value="4" style="text;html=1;align=center;verticalAlign=middle;resizable=0;points=[];autosize=1;strokeColor=none;fillColor=none;" parent="1" vertex="1">
                    <mxGeometry x="730" y="187" width="30" height="30" as="geometry"/>
                </mxCell>
                <mxCell id="45" value="A" style="text;html=1;align=center;verticalAlign=middle;resizable=0;points=[];autosize=1;strokeColor=none;fillColor=none;" parent="1" vertex="1">
                    <mxGeometry x="900" y="110" width="30" height="30" as="geometry"/>
                </mxCell>
                <mxCell id="46" value="B" style="text;html=1;align=center;verticalAlign=middle;resizable=0;points=[];autosize=1;strokeColor=none;fillColor=none;" parent="1" vertex="1">
                    <mxGeometry x="900" y="142.5" width="30" height="30" as="geometry"/>
                </mxCell>
                <mxCell id="47" value="C" style="text;html=1;align=center;verticalAlign=middle;resizable=0;points=[];autosize=1;strokeColor=none;fillColor=none;" parent="1" vertex="1">
                    <mxGeometry x="900" y="175" width="30" height="30" as="geometry"/>
                </mxCell>
                <mxCell id="48" value="" style="endArrow=none;html=1;exitX=1.022;exitY=0.603;exitDx=0;exitDy=0;exitPerimeter=0;entryX=-0.066;entryY=0.476;entryDx=0;entryDy=0;entryPerimeter=0;fillColor=#dae8fc;strokeColor=#6c8ebf;opacity=20;" parent="1" source="41" target="45" edge="1">
                    <mxGeometry width="50" height="50" relative="1" as="geometry">
                        <mxPoint x="850" y="342" as="sourcePoint"/>
                        <mxPoint x="900" y="292" as="targetPoint"/>
                    </mxGeometry>
                </mxCell>
                <mxCell id="49" value="" style="endArrow=none;html=1;exitX=1.042;exitY=0.603;exitDx=0;exitDy=0;exitPerimeter=0;entryX=-0.085;entryY=0.466;entryDx=0;entryDy=0;entryPerimeter=0;opacity=20;fillColor=#dae8fc;strokeColor=#6c8ebf;" parent="1" source="41" target="46" edge="1">
                    <mxGeometry width="50" height="50" relative="1" as="geometry">
                        <mxPoint x="770.6599999999999" y="125.09000000000015" as="sourcePoint"/>
                        <mxPoint x="908.02" y="134.27999999999997" as="targetPoint"/>
                    </mxGeometry>
                </mxCell>
                <mxCell id="50" value="" style="endArrow=none;html=1;exitX=1.031;exitY=0.61;exitDx=0;exitDy=0;exitPerimeter=0;entryX=-0.049;entryY=0.476;entryDx=0;entryDy=0;entryPerimeter=0;opacity=20;fillColor=#dae8fc;strokeColor=#6c8ebf;" parent="1" source="41" target="47" edge="1">
                    <mxGeometry width="50" height="50" relative="1" as="geometry">
                        <mxPoint x="771.2600000000002" y="125.08999999999992" as="sourcePoint"/>
                        <mxPoint x="907.4499999999998" y="166.48000000000002" as="targetPoint"/>
                    </mxGeometry>
                </mxCell>
                <mxCell id="51" value="" style="endArrow=none;html=1;exitX=0.999;exitY=0.489;exitDx=0;exitDy=0;exitPerimeter=0;entryX=-0.038;entryY=0.469;entryDx=0;entryDy=0;entryPerimeter=0;fillColor=#d5e8d4;strokeColor=#82b366;opacity=20;" parent="1" source="42" target="45" edge="1">
                    <mxGeometry width="50" height="50" relative="1" as="geometry">
                        <mxPoint x="770.6600000000001" y="125.08999999999992" as="sourcePoint"/>
                        <mxPoint x="900" y="122" as="targetPoint"/>
                    </mxGeometry>
                </mxCell>
                <mxCell id="52" value="" style="endArrow=none;html=1;exitX=0.999;exitY=0.496;exitDx=0;exitDy=0;exitPerimeter=0;entryX=-0.076;entryY=0.464;entryDx=0;entryDy=0;entryPerimeter=0;fillColor=#d5e8d4;strokeColor=#82b366;opacity=20;" parent="1" source="42" target="46" edge="1">
                    <mxGeometry width="50" height="50" relative="1" as="geometry">
                        <mxPoint x="769.97" y="151.67000000000007" as="sourcePoint"/>
                        <mxPoint x="908.8599999999999" y="134.06999999999994" as="targetPoint"/>
                    </mxGeometry>
                </mxCell>
                <mxCell id="53" value="" style="endArrow=none;html=1;entryX=-0.064;entryY=0.467;entryDx=0;entryDy=0;entryPerimeter=0;fillColor=#d5e8d4;strokeColor=#82b366;opacity=20;" parent="1" target="47" edge="1">
                    <mxGeometry width="50" height="50" relative="1" as="geometry">
                        <mxPoint x="760" y="142" as="sourcePoint"/>
                        <mxPoint x="907.7200000000003" y="166.42000000000007" as="targetPoint"/>
                    </mxGeometry>
                </mxCell>
                <mxCell id="54" value="" style="endArrow=none;html=1;entryX=-0.009;entryY=0.467;entryDx=0;entryDy=0;entryPerimeter=0;exitX=1.019;exitY=0.502;exitDx=0;exitDy=0;exitPerimeter=0;fillColor=#e1d5e7;strokeColor=#9673a6;opacity=20;" parent="1" source="43" target="45" edge="1">
                    <mxGeometry width="50" height="50" relative="1" as="geometry">
                        <mxPoint x="770" y="152" as="sourcePoint"/>
                        <mxPoint x="908.0799999999999" y="199.01" as="targetPoint"/>
                    </mxGeometry>
                </mxCell>
                <mxCell id="55" value="" style="endArrow=none;html=1;entryX=-0.065;entryY=0.476;entryDx=0;entryDy=0;entryPerimeter=0;exitX=1;exitY=0.502;exitDx=0;exitDy=0;exitPerimeter=0;fillColor=#e1d5e7;strokeColor=#9673a6;opacity=20;" parent="1" source="43" target="46" edge="1">
                    <mxGeometry width="50" height="50" relative="1" as="geometry">
                        <mxPoint x="770" y="152" as="sourcePoint"/>
                        <mxPoint x="908.0799999999999" y="199.01" as="targetPoint"/>
                    </mxGeometry>
                </mxCell>
                <mxCell id="56" value="" style="endArrow=none;html=1;entryX=-0.065;entryY=0.457;entryDx=0;entryDy=0;entryPerimeter=0;exitX=1;exitY=0.511;exitDx=0;exitDy=0;exitPerimeter=0;fillColor=#e1d5e7;strokeColor=#9673a6;opacity=20;" parent="1" source="43" target="47" edge="1">
                    <mxGeometry width="50" height="50" relative="1" as="geometry">
                        <mxPoint x="770" y="182.06000000000017" as="sourcePoint"/>
                        <mxPoint x="908.05" y="166.77999999999997" as="targetPoint"/>
                    </mxGeometry>
                </mxCell>
                <mxCell id="57" value="" style="endArrow=none;html=1;entryX=-0.046;entryY=0.476;entryDx=0;entryDy=0;entryPerimeter=0;exitX=1;exitY=0.52;exitDx=0;exitDy=0;exitPerimeter=0;fillColor=#f8cecc;strokeColor=#b85450;opacity=20;" parent="1" source="44" target="45" edge="1">
                    <mxGeometry width="50" height="50" relative="1" as="geometry">
                        <mxPoint x="770" y="182.32999999999993" as="sourcePoint"/>
                        <mxPoint x="908.05" y="198.71000000000004" as="targetPoint"/>
                    </mxGeometry>
                </mxCell>
                <mxCell id="58" value="" style="endArrow=none;html=1;entryX=-0.055;entryY=0.467;entryDx=0;entryDy=0;entryPerimeter=0;exitX=1.002;exitY=0.525;exitDx=0;exitDy=0;exitPerimeter=0;fillColor=#f8cecc;strokeColor=#b85450;opacity=20;" parent="1" source="44" target="46" edge="1">
                    <mxGeometry width="50" height="50" relative="1" as="geometry">
                        <mxPoint x="770" y="212.60000000000014" as="sourcePoint"/>
                        <mxPoint x="908.6199999999999" y="134.27999999999997" as="targetPoint"/>
                    </mxGeometry>
                </mxCell>
                <mxCell id="59" value="" style="endArrow=none;html=1;entryX=-0.074;entryY=0.467;entryDx=0;entryDy=0;entryPerimeter=0;exitX=1.009;exitY=0.53;exitDx=0;exitDy=0;exitPerimeter=0;fillColor=#f8cecc;strokeColor=#b85450;opacity=20;" parent="1" source="44" target="47" edge="1">
                    <mxGeometry width="50" height="50" relative="1" as="geometry">
                        <mxPoint x="769.7299999999998" y="213.43999999999983" as="sourcePoint"/>
                        <mxPoint x="908.3500000000001" y="166.51" as="targetPoint"/>
                    </mxGeometry>
                </mxCell>
                <mxCell id="60" value="(1, A)" style="text;html=1;align=center;verticalAlign=middle;resizable=0;points=[];autosize=1;strokeColor=none;fillColor=none;fontSize=7;fontStyle=1" parent="1" vertex="1">
                    <mxGeometry x="825" y="172" width="40" height="20" as="geometry"/>
                </mxCell>
                <mxCell id="61" value="(1, C)" style="text;html=1;align=center;verticalAlign=middle;resizable=0;points=[];autosize=1;strokeColor=none;fillColor=none;fontSize=7;fontStyle=1" parent="1" vertex="1">
                    <mxGeometry x="820" y="185" width="40" height="20" as="geometry"/>
                </mxCell>
                <mxCell id="62" value="(1, B)" style="text;html=1;align=center;verticalAlign=middle;resizable=0;points=[];autosize=1;strokeColor=none;fillColor=none;fontSize=7;fontStyle=1" parent="1" vertex="1">
                    <mxGeometry x="843" y="161" width="40" height="20" as="geometry"/>
                </mxCell>
                <mxCell id="63" value="(2, A)" style="text;html=1;align=center;verticalAlign=middle;resizable=0;points=[];autosize=1;strokeColor=none;fillColor=none;fontSize=7;fontStyle=1" parent="1" vertex="1">
                    <mxGeometry x="794" y="173.5" width="40" height="20" as="geometry"/>
                </mxCell>
                <mxCell id="64" value="(2, B)" style="text;html=1;align=center;verticalAlign=middle;resizable=0;points=[];autosize=1;strokeColor=none;fillColor=none;fontSize=7;fontStyle=1" parent="1" vertex="1">
                    <mxGeometry x="784" y="154.5" width="40" height="20" as="geometry"/>
                </mxCell>
                <mxCell id="65" value="(2, C)" style="text;html=1;align=center;verticalAlign=middle;resizable=0;points=[];autosize=1;strokeColor=none;fillColor=none;fontSize=7;fontStyle=1" parent="1" vertex="1">
                    <mxGeometry x="809" y="156.5" width="40" height="20" as="geometry"/>
                </mxCell>
                <mxCell id="66" value="(3, C)" style="text;html=1;align=center;verticalAlign=middle;resizable=0;points=[];autosize=1;strokeColor=none;fillColor=none;fontSize=7;fontStyle=1" parent="1" vertex="1">
                    <mxGeometry x="805" y="136" width="40" height="20" as="geometry"/>
                </mxCell>
                <mxCell id="67" value="(3, A)" style="text;html=1;align=center;verticalAlign=middle;resizable=0;points=[];autosize=1;strokeColor=none;fillColor=none;fontSize=7;fontStyle=1" parent="1" vertex="1">
                    <mxGeometry x="790" y="116" width="40" height="20" as="geometry"/>
                </mxCell>
                <mxCell id="68" value="(3, B)" style="text;html=1;align=center;verticalAlign=middle;resizable=0;points=[];autosize=1;strokeColor=none;fillColor=none;fontSize=7;fontStyle=1" parent="1" vertex="1">
                    <mxGeometry x="780" y="132" width="40" height="20" as="geometry"/>
                </mxCell>
                <mxCell id="69" value="(4, B)" style="text;html=1;align=center;verticalAlign=middle;resizable=0;points=[];autosize=1;strokeColor=none;fillColor=none;fontSize=7;fontStyle=1" parent="1" vertex="1">
                    <mxGeometry x="820" y="112" width="40" height="20" as="geometry"/>
                </mxCell>
                <mxCell id="70" value="(4, A)" style="text;html=1;align=center;verticalAlign=middle;resizable=0;points=[];autosize=1;strokeColor=none;fillColor=none;fontSize=7;fontStyle=1" parent="1" vertex="1">
                    <mxGeometry x="837" y="125" width="40" height="20" as="geometry"/>
                </mxCell>
                <mxCell id="71" value="(4, C)" style="text;html=1;align=center;verticalAlign=middle;resizable=0;points=[];autosize=1;strokeColor=none;fillColor=none;fontSize=7;fontStyle=1" parent="1" vertex="1">
                    <mxGeometry x="830" y="145" width="40" height="20" as="geometry"/>
                </mxCell>
                <mxCell id="73" value="" style="curved=1;endArrow=classic;html=1;strokeWidth=1;fontSize=7;jumpSize=0;" parent="1" edge="1">
                    <mxGeometry width="50" height="50" relative="1" as="geometry">
                        <mxPoint x="860" y="122" as="sourcePoint"/>
                        <mxPoint x="900" y="72" as="targetPoint"/>
                        <Array as="points">
                            <mxPoint x="890" y="112"/>
                            <mxPoint x="860" y="72"/>
                        </Array>
                    </mxGeometry>
                </mxCell>
                <mxCell id="74" value="CROSS" style="text;html=1;align=center;verticalAlign=middle;resizable=0;points=[];autosize=1;strokeColor=none;fillColor=none;fontSize=12;fontStyle=1" parent="1" vertex="1">
                    <mxGeometry x="891" y="57" width="70" height="30" as="geometry"/>
                </mxCell>
                <mxCell id="109" value="" style="curved=1;endArrow=classic;html=1;strokeWidth=1;fontSize=7;jumpSize=0;" parent="1" edge="1">
                    <mxGeometry width="50" height="50" relative="1" as="geometry">
                        <mxPoint x="693.75" y="395" as="sourcePoint"/>
                        <mxPoint x="733.75" y="345" as="targetPoint"/>
                        <Array as="points">
                            <mxPoint x="723.75" y="385"/>
                            <mxPoint x="693.75" y="345"/>
                        </Array>
                    </mxGeometry>
                </mxCell>
                <mxCell id="110" value="&lt;span style=&quot;font-weight: 400;&quot;&gt;# Return values from the left size&lt;br&gt;&lt;/span&gt;SEMI / LEFT SEMI" style="text;html=1;align=left;verticalAlign=middle;resizable=0;points=[];autosize=1;strokeColor=none;fillColor=none;fontSize=12;fontStyle=1" parent="1" vertex="1">
                    <mxGeometry x="744.75" y="320" width="200" height="40" as="geometry"/>
                </mxCell>
                <mxCell id="116" value="df1" style="ellipse;whiteSpace=wrap;html=1;aspect=fixed;fillColor=#fff2cc;strokeColor=#d6b656;fontStyle=1" parent="1" vertex="1">
                    <mxGeometry x="287" y="443" width="107" height="107" as="geometry"/>
                </mxCell>
                <mxCell id="117" value="df2" style="ellipse;whiteSpace=wrap;html=1;aspect=fixed;fillColor=#f8cecc;strokeColor=#b85450;fontStyle=1" parent="1" vertex="1">
                    <mxGeometry x="365" y="443" width="107" height="107" as="geometry"/>
                </mxCell>
                <mxCell id="118" value="" style="ellipse;whiteSpace=wrap;html=1;aspect=fixed;fillColor=none;strokeColor=#82b366;fontStyle=1" parent="1" vertex="1">
                    <mxGeometry x="287" y="443" width="107" height="107" as="geometry"/>
                </mxCell>
                <mxCell id="119" value="" style="whiteSpace=wrap;html=1;shape=mxgraph.basic.pointed_oval;strokeColor=#82B366;fillColor=#fff2cc;rotation=0;" parent="1" vertex="1">
                    <mxGeometry x="360" y="460" width="39" height="73" as="geometry"/>
                </mxCell>
                <mxCell id="120" value="" style="curved=1;endArrow=classic;html=1;" parent="1" edge="1">
                    <mxGeometry width="50" height="50" relative="1" as="geometry">
                        <mxPoint x="307" y="477" as="sourcePoint"/>
                        <mxPoint x="297" y="437" as="targetPoint"/>
                        <Array as="points">
                            <mxPoint x="307" y="467"/>
                            <mxPoint x="277" y="457"/>
                        </Array>
                    </mxGeometry>
                </mxCell>
                <mxCell id="121" value="&lt;span style=&quot;font-weight: 400;&quot;&gt;# Return values from the left size&lt;/span&gt;&lt;br&gt;ANTI / LEFT ANTI" style="text;html=1;align=left;verticalAlign=middle;resizable=0;points=[];autosize=1;strokeColor=none;fillColor=none;fontStyle=1" parent="1" vertex="1">
                    <mxGeometry x="304.5" y="400" width="200" height="40" as="geometry"/>
                </mxCell>
            </root>
        </mxGraphModel>
    </diagram>
</mxfile>
